<svg width="10" height="10" viewBox="0 0 10 10" fill="none" xmlns="http://www.w3.org/2000/svg">
<g clip-path="url(#clip0)">
<path d="M9.96401 7.84851L9.3832 6.15821C9.66317 5.58591 9.81112 4.94942 9.81211 4.30901C9.81383 3.19547 9.38301 2.1426 8.59898 1.34436C7.8148 0.545956 6.76984 0.0965217 5.65656 0.078885C4.50216 0.0606428 3.41708 0.499745 2.60132 1.31549C1.81471 2.10207 1.37842 3.13905 1.36461 4.24718C0.58934 4.83089 0.131741 5.74095 0.133245 6.713C0.133968 7.16788 0.236351 7.62005 0.430355 8.02894L0.0302955 9.19316C-0.0384741 9.3933 0.0117603 9.61061 0.161409 9.76025C0.266722 9.86559 0.40557 9.92166 0.548363 9.92166C0.608441 9.92166 0.669223 9.91174 0.7285 9.89137L1.89274 9.49131C2.30163 9.68531 2.7538 9.78769 3.20868 9.78842C3.21032 9.78842 3.21188 9.78842 3.21352 9.78842C4.20005 9.78838 5.11704 9.31898 5.69863 8.5247C6.30384 8.50877 6.90265 8.36226 7.444 8.09744L9.13432 8.67826C9.20475 8.70246 9.27697 8.71426 9.34836 8.71426C9.51805 8.71426 9.68305 8.64761 9.80822 8.52242C9.98604 8.34459 10.0457 8.08636 9.96401 7.84851ZM3.21349 9.19318C3.21222 9.19318 3.21087 9.19318 3.2096 9.19318C2.80698 9.19258 2.40716 9.09332 2.05342 8.90617C1.98069 8.86771 1.8953 8.86105 1.81753 8.88777L0.623715 9.29799L1.03393 8.1042C1.06065 8.0264 1.05401 7.94101 1.01553 7.8683C0.828383 7.51455 0.729125 7.11474 0.7285 6.7121C0.727504 6.06446 0.979438 5.45062 1.42001 4.99097C1.56391 5.86823 1.98202 6.67663 2.63011 7.3132C3.27341 7.94505 4.08204 8.34736 4.95454 8.47888C4.49384 8.93297 3.87282 9.19318 3.21349 9.19318ZM9.38729 8.10152C9.37035 8.11845 9.35028 8.12306 9.3277 8.11529L7.51816 7.49349C7.48674 7.48269 7.45404 7.47734 7.42146 7.47734C7.37344 7.47734 7.32558 7.48896 7.28228 7.51189C6.76562 7.78521 6.18179 7.93017 5.59386 7.93107C5.59193 7.93107 5.59017 7.93107 5.58824 7.93107C3.61825 7.93107 1.99104 6.33079 1.95983 4.36128C1.94411 3.36938 2.32141 2.43717 3.02222 1.73637C3.72302 1.03557 4.65538 0.658398 5.64714 0.674023C7.61855 0.705293 9.21992 2.33551 9.21688 4.30807C9.21596 4.896 9.07102 5.47985 8.79772 5.99648C8.75924 6.06919 8.7526 6.15458 8.77932 6.23238L9.4011 8.04191C9.40885 8.06457 9.4042 8.08463 9.38729 8.10152Z" fill="white"/>
<path d="M7.36118 2.72485H3.81507C3.6507 2.72485 3.51746 2.85811 3.51746 3.02246C3.51746 3.18684 3.65072 3.32008 3.81507 3.32008H7.36118C7.52555 3.32008 7.65879 3.18682 7.65879 3.02246C7.65879 2.85811 7.52555 2.72485 7.36118 2.72485Z" fill="white"/>
<path d="M7.36118 3.94889H3.81507C3.6507 3.94889 3.51746 4.08216 3.51746 4.24651C3.51746 4.41087 3.65072 4.54413 3.81507 4.54413H7.36118C7.52555 4.54413 7.65879 4.41087 7.65879 4.24651C7.65879 4.08216 7.52555 3.94889 7.36118 3.94889Z" fill="white"/>
<path d="M5.99619 5.1729H3.81507C3.6507 5.1729 3.51746 5.30616 3.51746 5.47052C3.51746 5.63489 3.65072 5.76814 3.81507 5.76814H5.99617C6.16055 5.76814 6.29379 5.63487 6.29379 5.47052C6.29379 5.30616 6.16057 5.1729 5.99619 5.1729Z" fill="white"/>
</g>
<defs>
<clipPath id="clip0">
<rect width="10" height="10" fill="white"/>
</clipPath>
</defs>
</svg>
