<svg width="10" height="10" viewBox="0 0 10 10" fill="none" xmlns="http://www.w3.org/2000/svg">
<path d="M7.16707 3.75L8.67965 1.48113C8.86424 1.20424 8.66575 0.83334 8.33297 0.83334H2.08297V0.41666C2.08297 0.186543 1.89641 0 1.66629 0C1.43618 0 1.24963 0.186543 1.24963 0.41666V1.25V6.25V9.58334C1.24963 9.81346 1.43618 10 1.66629 10C1.89641 10 2.08295 9.81346 2.08295 9.58334V6.66666H8.33295C8.66575 6.66666 8.86424 6.29576 8.67963 6.01887L7.16707 3.75ZM2.08297 5.83334V1.66666H7.55442L6.31961 3.51887C6.22631 3.65883 6.22631 3.84115 6.31961 3.98111L7.55442 5.83332H2.08297V5.83334Z" fill="white"/>
</svg>
