<svg width="10" height="10" viewBox="0 0 10 10" fill="none" xmlns="http://www.w3.org/2000/svg">
<path d="M4.84684 6.70351C4.56092 6.70351 4.32944 6.9418 4.32944 7.22773C4.32944 7.50685 4.5541 7.75195 4.84684 7.75195C5.13957 7.75195 5.37106 7.50687 5.37106 7.22773C5.37106 6.9418 5.13279 6.70351 4.84684 6.70351Z" fill="white"/>
<path d="M4.93535 2.73442C4.01627 2.73442 3.59418 3.27904 3.59418 3.64668C3.59418 3.91221 3.81883 4.03475 4.00265 4.03475C4.37027 4.03475 4.22051 3.51053 4.91492 3.51053C5.25533 3.51053 5.52765 3.66031 5.52765 3.97348C5.52765 4.34113 5.1464 4.55217 4.92174 4.74279C4.72431 4.91299 4.4656 5.19213 4.4656 5.77762C4.4656 6.13162 4.5609 6.23375 4.84004 6.23375C5.17363 6.23375 5.2417 6.08399 5.2417 5.95463C5.2417 5.60061 5.24853 5.39637 5.62297 5.10363C5.80677 4.96067 6.38547 4.49772 6.38547 3.85775C6.38547 3.21779 5.80677 2.73442 4.93535 2.73442Z" fill="white"/>
<path d="M5 0C2.23664 0 0 2.23627 0 5V9.60938C0 9.82512 0.174883 10 0.390625 10H5C7.76334 10 10 7.76373 10 5C10 2.23664 7.76373 0 5 0ZM5 9.21875H0.78125V5C0.78125 2.66842 2.66811 0.78125 5 0.78125C7.33158 0.78125 9.21875 2.66811 9.21875 5C9.21875 7.33158 7.33189 9.21875 5 9.21875Z" fill="white"/>
</svg>
