<svg width="10" height="10" viewBox="0 0 10 10" fill="none" xmlns="http://www.w3.org/2000/svg">
<path d="M5.00001 5.6326C1.99538 5.6326 0.340637 7.054 0.340637 9.63504C0.340637 9.83662 0.504016 10 0.705598 10H9.29441C9.49599 10 9.65937 9.83662 9.65937 9.63504C9.65939 7.05414 8.00464 5.6326 5.00001 5.6326ZM1.08384 9.27008C1.2274 7.34027 2.54308 6.36254 5.00001 6.36254C7.45695 6.36254 8.77265 7.34027 8.91632 9.27008H1.08384Z" fill="white"/>
<path d="M4.99999 0C3.61981 0 2.57907 1.06168 2.57907 2.46947C2.57907 3.9185 3.66509 5.09721 4.99999 5.09721C6.33489 5.09721 7.42091 3.9185 7.42091 2.46959C7.42091 1.06168 6.38017 0 4.99999 0ZM4.99999 4.3674C4.06751 4.3674 3.30899 3.51605 3.30899 2.46959C3.30899 1.46156 4.02018 0.729922 4.99999 0.729922C5.96411 0.729922 6.69099 1.47773 6.69099 2.46959C6.69099 3.51605 5.93247 4.3674 4.99999 4.3674Z" fill="white"/>
</svg>
