<svg width="10" height="10" viewBox="0 0 10 10" fill="none" xmlns="http://www.w3.org/2000/svg">
<path d="M7.53906 4.49219C7.7548 4.49219 7.92969 4.3173 7.92969 4.10156C7.92969 3.88583 7.7548 3.71094 7.53906 3.71094C7.32333 3.71094 7.14844 3.88583 7.14844 4.10156C7.14844 4.3173 7.32333 4.49219 7.53906 4.49219Z" fill="white"/>
<path d="M8.4375 0.78125H7.92969V0.390625C7.92969 0.174883 7.7548 0 7.53906 0C7.32332 0 7.14844 0.174883 7.14844 0.390625V0.78125H5.37109V0.390625C5.37109 0.174883 5.19621 0 4.98047 0C4.76473 0 4.58984 0.174883 4.58984 0.390625V0.78125H2.83203V0.390625C2.83203 0.174883 2.65715 0 2.44141 0C2.22566 0 2.05078 0.174883 2.05078 0.390625V0.78125H1.5625C0.700938 0.78125 0 1.48219 0 2.34375V8.4375C0 9.29906 0.700938 10 1.5625 10H4.55078C4.76652 10 4.94141 9.82512 4.94141 9.60938C4.94141 9.39363 4.76652 9.21875 4.55078 9.21875H1.5625C1.13172 9.21875 0.78125 8.86828 0.78125 8.4375V2.34375C0.78125 1.91297 1.13172 1.5625 1.5625 1.5625H2.05078V1.95312C2.05078 2.16887 2.22566 2.34375 2.44141 2.34375C2.65715 2.34375 2.83203 2.16887 2.83203 1.95312V1.5625H4.58984V1.95312C4.58984 2.16887 4.76473 2.34375 4.98047 2.34375C5.19621 2.34375 5.37109 2.16887 5.37109 1.95312V1.5625H7.14844V1.95312C7.14844 2.16887 7.32332 2.34375 7.53906 2.34375C7.7548 2.34375 7.92969 2.16887 7.92969 1.95312V1.5625H8.4375C8.86828 1.5625 9.21875 1.91297 9.21875 2.34375V4.57031C9.21875 4.78605 9.39363 4.96094 9.60938 4.96094C9.82512 4.96094 10 4.78605 10 4.57031V2.34375C10 1.48219 9.29906 0.78125 8.4375 0.78125Z" fill="white"/>
<path d="M7.63672 5.27344C6.33359 5.27344 5.27344 6.33359 5.27344 7.63672C5.27344 8.93984 6.33359 10 7.63672 10C8.93984 10 10 8.93984 10 7.63672C10 6.33359 8.93984 5.27344 7.63672 5.27344ZM7.63672 9.21875C6.76439 9.21875 6.05469 8.50906 6.05469 7.63672C6.05469 6.76437 6.76439 6.05469 7.63672 6.05469C8.50904 6.05469 9.21875 6.76437 9.21875 7.63672C9.21875 8.50906 8.50904 9.21875 7.63672 9.21875Z" fill="white"/>
<path d="M8.20312 7.24609H8.02734V6.83594C8.02734 6.6202 7.85246 6.44531 7.63672 6.44531C7.42098 6.44531 7.24609 6.6202 7.24609 6.83594V7.63672C7.24609 7.85246 7.42098 8.02734 7.63672 8.02734H8.20312C8.41887 8.02734 8.59375 7.85246 8.59375 7.63672C8.59375 7.42098 8.41887 7.24609 8.20312 7.24609Z" fill="white"/>
<path d="M5.83984 4.49219C6.05558 4.49219 6.23047 4.3173 6.23047 4.10156C6.23047 3.88583 6.05558 3.71094 5.83984 3.71094C5.62411 3.71094 5.44922 3.88583 5.44922 4.10156C5.44922 4.3173 5.62411 4.49219 5.83984 4.49219Z" fill="white"/>
<path d="M4.14062 6.19141C4.35636 6.19141 4.53125 6.01652 4.53125 5.80078C4.53125 5.58505 4.35636 5.41016 4.14062 5.41016C3.92489 5.41016 3.75 5.58505 3.75 5.80078C3.75 6.01652 3.92489 6.19141 4.14062 6.19141Z" fill="white"/>
<path d="M2.44141 4.49219C2.65714 4.49219 2.83203 4.3173 2.83203 4.10156C2.83203 3.88583 2.65714 3.71094 2.44141 3.71094C2.22567 3.71094 2.05078 3.88583 2.05078 4.10156C2.05078 4.3173 2.22567 4.49219 2.44141 4.49219Z" fill="white"/>
<path d="M2.44141 6.19141C2.65714 6.19141 2.83203 6.01652 2.83203 5.80078C2.83203 5.58505 2.65714 5.41016 2.44141 5.41016C2.22567 5.41016 2.05078 5.58505 2.05078 5.80078C2.05078 6.01652 2.22567 6.19141 2.44141 6.19141Z" fill="white"/>
<path d="M2.44141 7.89062C2.65714 7.89062 2.83203 7.71574 2.83203 7.5C2.83203 7.28426 2.65714 7.10938 2.44141 7.10938C2.22567 7.10938 2.05078 7.28426 2.05078 7.5C2.05078 7.71574 2.22567 7.89062 2.44141 7.89062Z" fill="white"/>
<path d="M4.14062 7.89062C4.35636 7.89062 4.53125 7.71574 4.53125 7.5C4.53125 7.28426 4.35636 7.10938 4.14062 7.10938C3.92489 7.10938 3.75 7.28426 3.75 7.5C3.75 7.71574 3.92489 7.89062 4.14062 7.89062Z" fill="white"/>
<path d="M4.14062 4.49219C4.35636 4.49219 4.53125 4.3173 4.53125 4.10156C4.53125 3.88583 4.35636 3.71094 4.14062 3.71094C3.92489 3.71094 3.75 3.88583 3.75 4.10156C3.75 4.3173 3.92489 4.49219 4.14062 4.49219Z" fill="white"/>
</svg>
