<svg width="10" height="10" viewBox="0 0 10 10" fill="none" xmlns="http://www.w3.org/2000/svg">
<path d="M8.53516 5.23734H7.55629C7.42307 5.23734 7.29408 5.25554 7.17133 5.28902C6.92918 4.813 6.4348 4.48593 5.86514 4.48593H4.13486C3.5652 4.48593 3.07082 4.813 2.82867 5.28902C2.70592 5.25554 2.57693 5.23734 2.44371 5.23734H1.46484C0.657129 5.23734 0 5.89447 0 6.70218V8.26699C0 8.75162 0.394277 9.1459 0.878906 9.1459H9.12109C9.60572 9.1459 10 8.75162 10 8.26699V6.70218C10 5.89447 9.34287 5.23734 8.53516 5.23734ZM2.67002 5.95082V8.55998H0.878906C0.717363 8.55998 0.585938 8.42855 0.585938 8.26701V6.7022C0.585938 6.21757 0.980215 5.8233 1.46484 5.8233H2.44371C2.52324 5.8233 2.60025 5.8341 2.67357 5.854C2.67146 5.88605 2.67002 5.91828 2.67002 5.95082ZM6.74404 8.55998H3.25596V5.9508C3.25596 5.46617 3.65023 5.07189 4.13486 5.07189H5.86514C6.34977 5.07189 6.74404 5.46617 6.74404 5.9508V8.55998ZM9.41406 8.26701C9.41406 8.42855 9.28264 8.55998 9.12109 8.55998H7.32998V5.9508C7.32998 5.91824 7.32854 5.88601 7.32643 5.85398C7.39975 5.8341 7.47676 5.82328 7.55629 5.82328H8.53516C9.01978 5.82328 9.41406 6.21755 9.41406 6.70218V8.26701Z" fill="white"/>
<path d="M1.9543 2.47078C1.23654 2.47078 0.652618 3.0547 0.652618 3.77246C0.652599 4.49021 1.23654 5.07414 1.9543 5.07414C2.67203 5.07414 3.25598 4.49021 3.25598 3.77246C3.25598 3.0547 2.67205 2.47078 1.9543 2.47078ZM1.95428 4.4882C1.55961 4.4882 1.23854 4.16713 1.23854 3.77246C1.23854 3.37779 1.55961 3.05672 1.95428 3.05672C2.34895 3.05672 2.67002 3.37779 2.67002 3.77246C2.67002 4.16713 2.34895 4.4882 1.95428 4.4882Z" fill="white"/>
<path d="M5.00001 0.85408C4.0411 0.85408 3.26099 1.6342 3.26099 2.5931C3.26099 3.55201 4.0411 4.33213 5.00001 4.33213C5.95892 4.33213 6.73903 3.55201 6.73903 2.5931C6.73903 1.63422 5.95892 0.85408 5.00001 0.85408ZM5.00001 3.74619C4.36419 3.74619 3.84692 3.22892 3.84692 2.5931C3.84692 1.9573 4.36419 1.44002 5.00001 1.44002C5.63583 1.44002 6.1531 1.95728 6.1531 2.5931C6.1531 3.22892 5.63583 3.74619 5.00001 3.74619Z" fill="white"/>
<path d="M8.0457 2.47078C7.32796 2.47078 6.74402 3.0547 6.74402 3.77246C6.74404 4.49021 7.32796 5.07414 8.0457 5.07414C8.76345 5.07414 9.34738 4.49021 9.34738 3.77246C9.34738 3.0547 8.76345 2.47078 8.0457 2.47078ZM8.0457 4.4882C7.65105 4.4882 7.32996 4.16713 7.32996 3.77246C7.32998 3.37779 7.65105 3.05672 8.0457 3.05672C8.44037 3.05672 8.76144 3.37779 8.76144 3.77246C8.76144 4.16713 8.44037 4.4882 8.0457 4.4882Z" fill="white"/>
</svg>
