<svg width="10" height="10" viewBox="0 0 10 10" fill="none" xmlns="http://www.w3.org/2000/svg">
<g clip-path="url(#clip0)">
<path d="M5.62501 10H4.37501C4.08334 10 3.75001 9.75001 3.75001 9.25001V8.37501C3.75001 7.95834 3.54168 7.58334 3.20834 7.29168C2.45834 6.70834 2.08334 5.87501 2.08334 4.95834C2.12501 3.37501 3.41668 2.12501 4.95834 2.08334C5.75001 2.08334 6.50001 2.37501 7.04168 2.91668C7.58334 3.45834 7.91668 4.20834 7.91668 5.00001C7.91668 5.87501 7.54168 6.70834 6.83334 7.25001C6.45834 7.54168 6.25001 8.00001 6.25001 8.41668V9.37501C6.25001 9.70834 5.95834 10 5.62501 10ZM5.00001 2.50001C3.66668 2.50001 2.54168 3.62501 2.50001 4.95834C2.50001 5.75001 2.83334 6.50001 3.45834 6.95834C3.91668 7.33334 4.16668 7.83334 4.16668 8.37501V9.25001C4.16668 9.33334 4.16668 9.58334 4.37501 9.58334H5.62501C5.75001 9.58334 5.83334 9.50001 5.83334 9.37501V8.41668C5.83334 7.87501 6.12501 7.29168 6.58334 6.91668C7.16668 6.45834 7.50001 5.75001 7.50001 5.00001C7.50001 4.33334 7.25001 3.70834 6.75001 3.20834C6.29168 2.75001 5.66668 2.50001 5.00001 2.50001Z" fill="white"/>
<path d="M6.04167 8.74999H3.95833C3.83333 8.74999 3.75 8.66666 3.75 8.54166C3.75 8.41666 3.83333 8.33333 3.95833 8.33333H6.04167C6.16667 8.33333 6.25 8.41666 6.25 8.54166C6.25 8.66666 6.16667 8.74999 6.04167 8.74999Z" fill="white"/>
<path d="M5.00002 1.25C4.87502 1.25 4.79169 1.16667 4.79169 1.04167V0.208333C4.79169 0.0833333 4.87502 0 5.00002 0C5.12502 0 5.20835 0.0833333 5.20835 0.208333V1.04167C5.20835 1.16667 5.12502 1.25 5.00002 1.25Z" fill="white"/>
<path d="M7.79167 2.41667C7.75 2.41667 7.66667 2.41667 7.625 2.375C7.54167 2.29167 7.54167 2.16667 7.625 2.08333L8.20833 1.5C8.29167 1.41667 8.41667 1.41667 8.5 1.5C8.58333 1.58333 8.58333 1.70833 8.5 1.79167L7.91667 2.375C7.91667 2.375 7.83333 2.41667 7.79167 2.41667Z" fill="white"/>
<path d="M9.79167 5.20834H8.95833C8.83333 5.20834 8.75 5.12501 8.75 5.00001C8.75 4.87501 8.83333 4.79167 8.95833 4.79167H9.79167C9.91667 4.79167 10 4.87501 10 5.00001C10 5.12501 9.91667 5.20834 9.79167 5.20834Z" fill="white"/>
<path d="M8.375 8.58334C8.33333 8.58334 8.25 8.58334 8.20833 8.54167L7.625 7.95834C7.54167 7.87501 7.54167 7.75001 7.625 7.66667C7.70833 7.58334 7.83333 7.58334 7.91667 7.66667L8.5 8.25C8.58333 8.33334 8.58333 8.45834 8.5 8.54167C8.5 8.58334 8.45833 8.58334 8.375 8.58334Z" fill="white"/>
<path d="M1.62498 8.58334C1.58331 8.58334 1.49998 8.58334 1.45831 8.54167C1.37498 8.45834 1.37498 8.33334 1.45831 8.25L2.04165 7.66667C2.12498 7.58334 2.24998 7.58334 2.33331 7.66667C2.41665 7.75001 2.41665 7.87501 2.33331 7.95834L1.74998 8.54167C1.70831 8.58334 1.66665 8.58334 1.62498 8.58334Z" fill="white"/>
<path d="M1.04167 5.20834H0.208333C0.0833333 5.20834 0 5.12501 0 5.00001C0 4.87501 0.0833333 4.79167 0.208333 4.79167H1.04167C1.16667 4.79167 1.25 4.87501 1.25 5.00001C1.25 5.12501 1.16667 5.20834 1.04167 5.20834Z" fill="white"/>
<path d="M2.20831 2.41666C2.16665 2.41666 2.08331 2.41666 2.04165 2.37499L1.45831 1.74999C1.37498 1.66666 1.37498 1.54166 1.45831 1.45833C1.54165 1.37499 1.66665 1.37499 1.74998 1.45833L2.33331 2.04166C2.41665 2.12499 2.41665 2.24999 2.33331 2.33333C2.29165 2.37499 2.24998 2.41666 2.20831 2.41666Z" fill="white"/>
<path d="M6.66669 5.20833C6.54169 5.20833 6.45836 5.125 6.45836 5C6.45836 4.20833 5.79169 3.54167 5.00002 3.54167C4.87502 3.54167 4.79169 3.45833 4.79169 3.33333C4.79169 3.20833 4.87502 3.125 5.00002 3.125C6.04169 3.125 6.87502 3.95833 6.87502 5C6.87502 5.125 6.79169 5.20833 6.66669 5.20833Z" fill="white"/>
</g>
<defs>
<clipPath id="clip0">
<rect width="10" height="10" fill="white"/>
</clipPath>
</defs>
</svg>
