<svg width="283" height="381" viewBox="0 0 283 381" fill="none" xmlns="http://www.w3.org/2000/svg">
<g clip-path="url(#clip0)">
<path fill-rule="evenodd" clip-rule="evenodd" d="M104.439 304.858L19.0165 143.361C15.2547 144.849 10.8796 144.693 7.07596 142.561C0.364828 138.799 -2.02598 130.309 1.73595 123.598C5.49787 116.886 13.988 114.496 20.6991 118.258C25.213 120.788 27.7724 125.457 27.8198 130.285L213.014 148.661C213.24 146.964 213.785 145.281 214.673 143.696C218.435 136.985 226.925 134.594 233.636 138.356C240.348 142.118 242.738 150.608 238.976 157.319C235.351 163.786 227.336 166.242 220.752 163.046L121.199 305.766C126.214 309.985 127.692 317.301 124.369 323.23C120.607 329.941 112.117 332.331 105.406 328.57C98.6949 324.808 96.3041 316.317 100.066 309.606C101.171 307.635 102.683 306.037 104.439 304.858ZM26.0391 137.221C26.3087 136.74 26.5467 136.25 26.7538 135.753L126.516 166.708C125.442 172.423 128.046 178.431 133.399 181.432C134.565 182.085 135.784 182.553 137.023 182.844L113.444 302.538C111.182 302.34 108.915 302.701 106.845 303.565L21.4466 142.114C23.2956 140.922 24.8885 139.273 26.0391 137.221ZM139.735 183.205L116.128 303.044C117.089 303.326 118.034 303.717 118.946 304.22L218.418 161.618C216.339 160.048 214.801 157.972 213.883 155.664L154.113 168.375C154.285 170.974 153.731 173.65 152.362 176.092C149.727 180.792 144.773 183.373 139.735 183.205ZM153.667 165.677L213.125 153.033C213.025 152.493 212.957 151.947 212.921 151.397L27.5777 133.006C27.5692 133.051 27.5604 133.096 27.5515 133.14L127.283 164.086C127.504 163.538 127.762 162.998 128.059 162.468C131.821 155.757 140.311 153.366 147.022 157.128C150.434 159.041 152.729 162.176 153.667 165.677Z" fill="url(#paint0_linear)"/>
</g>
<defs>
<linearGradient id="paint0_linear" x1="-5.00884" y1="135.63" x2="189.893" y2="244.882" gradientUnits="userSpaceOnUse">
<stop stop-color="#F52D2E"/>
<stop offset="0.544792" stop-color="#FF048B"/>
<stop offset="1" stop-color="#33D3FF"/>
</linearGradient>
<clipPath id="clip0">
<rect width="279.702" height="279.702" fill="white" transform="translate(-98 243.985) rotate(-60.7272)"/>
</clipPath>
</defs>
</svg>
