<svg width="354" height="64" viewBox="0 0 354 64" fill="none" xmlns="http://www.w3.org/2000/svg">
<path d="M6.5304 21.1421L0.422364 14.746L0.0974687 14.543H27.6486L39.6373 26.0406L51.9508 14.543H61.3728L44.9656 30.99L61.5677 47.0563H51.6259L39.7997 35.5332L27.5187 47.0563H0L6.5304 40.5333H24.8545L34.3415 30.99L24.2047 21.1421H6.5304Z" fill="white"/>
<path d="M6.92028 34.1372V27.3858H24.2047L27.6486 30.99L24.2047 34.1372H6.92028Z" fill="white"/>
<path d="M82.3924 48.5656C91.3653 48.5656 98.2638 42.5354 99.5663 33.659H90.0628C89.098 37.4219 86.1553 39.8822 82.3924 39.8822C77.6165 39.8822 74.0949 36.0711 74.0949 30.861C74.0949 25.651 77.6165 21.7917 82.3924 21.7917C85.9623 21.7917 88.8568 24.059 90.0146 27.4841H99.4699C98.0709 18.9454 91.2206 13.1082 82.3924 13.1082C72.117 13.1082 64.4467 20.7304 64.4467 30.861C64.4467 40.9435 72.117 48.5656 82.3924 48.5656ZM113.276 39.641V34.5756H124.371V26.9535H113.276V21.9846H125.625V13.9283H104.013V47.6973H126.059V39.641H113.276ZM140.84 39.2068V13.9283H131.385V47.6973H152.852V39.2068H140.84ZM168.553 48.5656C176.416 48.5656 182.06 44.7063 182.06 37.3254C182.06 29.655 175.596 27.9666 170.579 26.7123C167.443 25.8922 164.886 25.265 164.886 23.3354C164.886 21.7434 166.478 21.0198 168.118 21.0198C170.048 21.0198 171.64 22.0329 171.64 24.2037H180.999C180.999 17.3052 176.319 13.1565 168.215 13.1565C160.255 13.1565 155.383 16.9675 155.383 23.6248C155.383 31.2952 161.606 32.7907 166.478 33.9967C169.71 34.7686 172.364 35.3957 172.364 37.5183C172.364 39.3515 170.482 40.4128 168.553 40.4128C166.43 40.4128 164.549 39.2068 164.549 36.7947H154.949C154.949 44.1756 160.303 48.5656 168.553 48.5656ZM186.928 47.6973H196.383V13.9283H186.928V47.6973ZM219.735 48.5656C230.589 48.5656 238.308 41.1847 238.308 30.861C238.308 20.4892 230.589 13.1082 219.735 13.1082C208.88 13.1082 201.162 20.5374 201.162 30.861C201.162 41.1364 208.88 48.5656 219.735 48.5656ZM219.735 39.9304C214.621 39.9304 210.81 36.0711 210.81 30.861C210.81 25.6027 214.621 21.7434 219.735 21.7434C224.897 21.7434 228.611 25.5545 228.611 30.861C228.611 36.1193 224.897 39.9304 219.735 39.9304ZM261.224 47.6973H271.596L264.89 35.444C268.219 33.4661 270.245 30.0409 270.245 25.8922C270.245 18.849 264.938 13.9283 257.702 13.9283H243.037V47.6973H252.347V37.3736H255.724L261.224 47.6973ZM252.347 22.2258H256.593C259.198 22.2258 260.693 23.7696 260.693 25.8922C260.693 27.9666 259.198 29.5585 256.593 29.5585H252.347V22.2258Z" fill="white"/>
<path d="M286.226 27.197H284.876V28.6697L286.343 28.5415L286.226 27.197ZM294.62 10.4573H295.969V9.1076H294.62V10.4573ZM285.84 10.4573V9.1076H284.49V10.4573H285.84ZM285.84 18.7548H284.49V20.1044H285.84V18.7548ZM290.037 18.7548H291.386V17.4051H290.037V18.7548ZM286.226 22.7588L286.101 21.4149L284.876 21.5283V22.7588H286.226ZM286.343 28.5415C289.11 28.2997 291.533 27.2141 293.268 25.3728C295.008 23.5267 295.969 21.0123 295.969 18.0794H293.27C293.27 20.4048 292.519 22.2321 291.304 23.5216C290.084 24.8161 288.31 25.6601 286.108 25.8525L286.343 28.5415ZM295.969 18.0794V10.4573H293.27V18.0794H295.969ZM294.62 9.1076H285.84V11.8069H294.62V9.1076ZM284.49 10.4573V18.7548H287.189V10.4573H284.49ZM285.84 20.1044H290.037V17.4051H285.84V20.1044ZM288.687 18.7548C288.687 19.5327 288.464 20.1343 288.096 20.5518C287.736 20.9603 287.126 21.32 286.101 21.4149L286.35 24.1027C287.931 23.9563 289.226 23.3513 290.121 22.3366C291.007 21.3311 291.386 20.0512 291.386 18.7548H288.687ZM284.876 22.7588V27.197H287.575V22.7588H284.876ZM323.098 37.4242L322.075 36.5438L320.156 38.7738H323.098V37.4242ZM308.674 23.4824H307.324V24.8321H308.674V23.4824ZM317.164 23.4824V24.8321H318.514V23.4824H317.164ZM308.143 43.0684L307.114 42.1954L306.793 42.5731V43.0684H308.143ZM308.143 44.998H306.793V46.3477H308.143V44.998ZM332.023 44.998V46.3477H333.372V44.998H332.023ZM332.023 37.4242H333.372V36.0745H332.023V37.4242ZM324.121 38.3045C330.973 30.3426 332.793 26.918 332.793 22.3246H330.094C330.094 25.8358 328.923 28.5861 322.075 36.5438L324.121 38.3045ZM332.793 22.3246C332.793 18.9388 331.469 16.0211 329.149 13.9639C326.842 11.9181 323.635 10.796 319.962 10.796V13.4954C323.092 13.4954 325.626 14.4476 327.358 15.9838C329.078 17.5085 330.094 19.6803 330.094 22.3246H332.793ZM319.962 10.796C316.169 10.796 312.984 11.9437 310.739 14.1116C308.49 16.2836 307.324 19.3469 307.324 22.9035H310.023C310.023 19.9476 310.98 17.6319 312.614 16.0532C314.253 14.4703 316.712 13.4954 319.962 13.4954V10.796ZM307.324 22.9035V23.4824H310.023V22.9035H307.324ZM308.674 24.8321H317.164V22.1328H308.674V24.8321ZM318.514 23.4824V22.8553H315.815V23.4824H318.514ZM318.514 22.8553C318.514 22.1442 318.716 21.7159 318.934 21.4788C319.141 21.2543 319.483 21.0692 320.059 21.0692V18.3699C318.849 18.3699 317.744 18.7879 316.95 19.6488C316.168 20.4971 315.815 21.6367 315.815 22.8553H318.514ZM320.059 21.0692C320.552 21.0692 320.891 21.2369 321.107 21.4584C321.325 21.6814 321.507 22.0516 321.507 22.6141H324.206C324.206 21.4398 323.81 20.3628 323.039 19.5728C322.266 18.7812 321.206 18.3699 320.059 18.3699V21.0692ZM321.507 22.6141C321.507 23.5523 321.271 24.5645 319.253 27.3672C317.229 30.1781 313.591 34.5578 307.114 42.1954L309.172 43.9414C315.624 36.3347 319.343 31.8621 321.443 28.9444C323.55 26.0184 324.206 24.4256 324.206 22.6141H321.507ZM306.793 43.0684V44.998H309.493V43.0684H306.793ZM308.143 46.3477H332.023V43.6484H308.143V46.3477ZM333.372 44.998V37.4242H330.673V44.998H333.372ZM332.023 36.0745H323.098V38.7738H332.023V36.0745ZM335.565 12.9176V11.5679H334.215V12.9176H335.565ZM335.565 20.202H334.215V21.5517H335.565V20.202ZM340.341 20.202H341.69V18.8523H340.341V20.202ZM340.341 44.998H338.991V46.3477H340.341V44.998ZM348.976 44.998V46.3477H350.326V44.998H348.976ZM348.976 12.9176H350.326V11.5679H348.976V12.9176ZM334.215 12.9176V20.202H336.915V12.9176H334.215ZM335.565 21.5517H340.341V18.8523H335.565V21.5517ZM338.991 20.202V44.998H341.69V20.202H338.991ZM340.341 46.3477H348.976V43.6484H340.341V46.3477ZM350.326 44.998V12.9176H347.626V44.998H350.326ZM348.976 11.5679H335.565V14.2672H348.976V11.5679Z" fill="white"/>
</svg>
