<svg width="390" height="631" viewBox="0 0 390 631" fill="none" xmlns="http://www.w3.org/2000/svg">
<g clip-path="url(#clip0)">
<path fill-rule="evenodd" clip-rule="evenodd" d="M71.7816 384.326L-69.6644 116.913C-75.8935 119.375 -83.1379 119.118 -89.4362 115.587C-100.549 109.358 -104.508 95.2997 -98.2784 84.1871C-92.0492 73.0745 -77.991 69.1157 -66.8784 75.3449C-59.4041 79.5346 -55.1661 87.266 -55.0876 95.2608L251.564 125.688C251.939 122.878 252.842 120.091 254.312 117.467C260.542 106.355 274.6 102.396 285.712 108.625C296.825 114.854 300.784 128.913 294.555 140.025C288.552 150.734 275.279 154.799 264.378 149.507L99.5333 385.829C107.839 392.816 110.286 404.93 104.783 414.746C98.554 425.859 84.4957 429.818 73.3831 423.589C62.2706 417.359 58.3117 403.301 64.5409 392.188C66.3702 388.925 68.8748 386.279 71.7816 384.326ZM-58.0361 106.745C-57.5897 105.948 -57.1956 105.137 -56.8527 104.314L108.337 155.571C106.559 165.034 110.872 174.983 119.735 179.951C121.665 181.033 123.684 181.807 125.735 182.291L86.6919 380.484C82.9474 380.156 79.1939 380.754 75.7655 382.184L-65.6407 114.847C-62.579 112.873 -59.9414 110.144 -58.0361 106.745ZM130.227 182.888L91.1366 381.323C92.7278 381.789 94.2925 382.436 95.8038 383.27L260.513 147.143C257.07 144.544 254.524 141.106 253.004 137.284L154.035 158.331C154.319 162.635 153.401 167.067 151.135 171.109C146.772 178.892 138.569 183.166 130.227 182.888ZM153.296 153.865L251.748 132.927C251.583 132.033 251.47 131.129 251.411 130.218L-55.4885 99.7661C-55.5026 99.8402 -55.5171 99.9143 -55.5319 99.9884L109.608 151.23C109.974 150.322 110.402 149.428 110.893 148.551C117.122 137.439 131.18 133.48 142.293 139.709C147.943 142.876 151.743 148.066 153.296 153.865Z" fill="url(#paint0_linear)"/>
</g>
<defs>
<linearGradient id="paint0_linear" x1="-109.447" y1="104.111" x2="213.28" y2="285.016" gradientUnits="userSpaceOnUse">
<stop stop-color="#F52D2E"/>
<stop offset="0.544792" stop-color="#FF048B"/>
<stop offset="1" stop-color="#33D3FF"/>
</linearGradient>
<clipPath id="clip0">
<rect width="463.143" height="463.143" fill="white" transform="translate(-241 404) rotate(-60.7272)"/>
</clipPath>
</defs>
</svg>
