<svg width="564" height="113" viewBox="0 0 564 113" fill="none" xmlns="http://www.w3.org/2000/svg">
<path d="M30.3411 84.007H29.4602V84.8879H30.3411V84.007ZM30.3411 68.2928V67.4119H29.4602V68.2928H30.3411ZM64.7627 68.2928V69.1737H65.6436V68.2928H64.7627ZM64.7627 44.6467H65.6436V43.7658H64.7627V44.6467ZM30.3411 44.6467H29.4602V45.5276H30.3411V44.6467ZM30.3411 29.2318V28.3509H29.4602V29.2318H30.3411ZM68.6538 29.2318V30.1127H69.5347V29.2318H68.6538ZM68.6538 4.23877H69.5347V3.35785H68.6538V4.23877ZM1.60661 4.23877V3.35785H0.725698V4.23877H1.60661ZM1.60661 109H0.725698V109.881H1.60661V109ZM70.0007 109V109.881H70.8817V109H70.0007ZM70.0007 84.007H70.8817V83.126H70.0007V84.007ZM31.222 84.007V68.2928H29.4602V84.007H31.222ZM30.3411 69.1737H64.7627V67.4119H30.3411V69.1737ZM65.6436 68.2928V44.6467H63.8818V68.2928H65.6436ZM64.7627 43.7658H30.3411V45.5276H64.7627V43.7658ZM31.222 44.6467V29.2318H29.4602V44.6467H31.222ZM30.3411 30.1127H68.6538V28.3509H30.3411V30.1127ZM69.5347 29.2318V4.23877H67.7729V29.2318H69.5347ZM68.6538 3.35785H1.60661V5.11969H68.6538V3.35785ZM0.725698 4.23877V109H2.48753V4.23877H0.725698ZM1.60661 109.881H70.0007V108.119H1.60661V109.881ZM70.8817 109V84.007H69.1198V109H70.8817ZM70.0007 83.126H30.3411V84.8879H70.0007V83.126ZM151.622 4.23877V3.35785H150.978L150.783 3.9712L151.622 4.23877ZM130.82 69.4901L129.982 69.7646L130.831 72.3529L131.659 69.7576L130.82 69.4901ZM109.418 4.23877L110.255 3.96424L110.056 3.35785H109.418V4.23877ZM76.4933 4.23877V3.35785H75.2043L75.6726 4.55885L76.4933 4.23877ZM117.35 109L116.53 109.32L116.748 109.881H117.35V109ZM144.289 109V109.881H144.895L145.112 109.315L144.289 109ZM184.397 4.23877L185.22 4.55374L185.678 3.35785H184.397V4.23877ZM150.783 3.9712L129.98 69.2225L131.659 69.7576L152.461 4.50634L150.783 3.9712ZM131.657 69.2155L110.255 3.96424L108.581 4.51331L129.982 69.7646L131.657 69.2155ZM109.418 3.35785H76.4933V5.11969H109.418V3.35785ZM75.6726 4.55885L116.53 109.32L118.171 108.68L77.3141 3.91869L75.6726 4.55885ZM117.35 109.881H144.289V108.119H117.35V109.881ZM145.112 109.315L185.22 4.55374L183.575 3.9238L143.466 108.685L145.112 109.315ZM184.397 3.35785H151.622V5.11969H184.397V3.35785ZM223.553 84.007H222.672V84.8879H223.553V84.007ZM223.553 68.2928V67.4119H222.672V68.2928H223.553ZM257.975 68.2928V69.1737H258.856V68.2928H257.975ZM257.975 44.6467H258.856V43.7658H257.975V44.6467ZM223.553 44.6467H222.672V45.5276H223.553V44.6467ZM223.553 29.2318V28.3509H222.672V29.2318H223.553ZM261.866 29.2318V30.1127H262.747V29.2318H261.866ZM261.866 4.23877H262.747V3.35785H261.866V4.23877ZM194.819 4.23877V3.35785H193.938V4.23877H194.819ZM194.819 109H193.938V109.881H194.819V109ZM263.213 109V109.881H264.094V109H263.213ZM263.213 84.007H264.094V83.126H263.213V84.007ZM224.434 84.007V68.2928H222.672V84.007H224.434ZM223.553 69.1737H257.975V67.4119H223.553V69.1737ZM258.856 68.2928V44.6467H257.094V68.2928H258.856ZM257.975 43.7658H223.553V45.5276H257.975V43.7658ZM224.434 44.6467V29.2318H222.672V44.6467H224.434ZM223.553 30.1127H261.866V28.3509H223.553V30.1127ZM262.747 29.2318V4.23877H260.985V29.2318H262.747ZM261.866 3.35785H194.819V5.11969H261.866V3.35785ZM193.938 4.23877V109H195.699V4.23877H193.938ZM194.819 109.881H263.213V108.119H194.819V109.881ZM264.094 109V84.007H262.332V109H264.094ZM263.213 83.126H223.553V84.8879H263.213V83.126ZM345.283 4.23877V3.35785H344.402V4.23877H345.283ZM345.283 59.3132L344.572 59.8331L346.164 62.0111V59.3132H345.283ZM305.025 4.23877L305.736 3.71892L305.472 3.35785H305.025V4.23877ZM279.732 4.23877V3.35785H278.852V4.23877H279.732ZM279.732 109H278.852V109.881H279.732V109ZM307.719 109V109.881H308.6V109H307.719ZM307.719 52.2793L308.429 51.7583L306.838 49.5889V52.2793H307.719ZM349.324 109L348.614 109.521L348.878 109.881H349.324V109ZM373.269 109V109.881H374.15V109H373.269ZM373.269 4.23877H374.15V3.35785H373.269V4.23877ZM344.402 4.23877V59.3132H346.164V4.23877H344.402ZM345.994 58.7934L305.736 3.71892L304.314 4.75862L344.572 59.8331L345.994 58.7934ZM305.025 3.35785H279.732V5.11969H305.025V3.35785ZM278.852 4.23877V109H280.613V4.23877H278.852ZM279.732 109.881H307.719V108.119H279.732V109.881ZM308.6 109V52.2793H306.838V109H308.6ZM307.008 52.8003L348.614 109.521L350.034 108.479L308.429 51.7583L307.008 52.8003ZM349.324 109.881H373.269V108.119H349.324V109.881ZM374.15 109V4.23877H372.388V109H374.15ZM373.269 3.35785H345.283V5.11969H373.269V3.35785ZM472.009 4.23877H472.89V3.35785H472.009V4.23877ZM386.105 4.23877V3.35785H385.224V4.23877H386.105ZM386.105 30.2794H385.224V31.1603H386.105V30.2794ZM414.54 30.2794H415.421V29.3985H414.54V30.2794ZM414.54 109H413.659V109.881H414.54V109ZM443.574 109V109.881H444.455V109H443.574ZM443.574 30.2794V29.3985H442.693V30.2794H443.574ZM472.009 30.2794V31.1603H472.89V30.2794H472.009ZM472.009 3.35785H386.105V5.11969H472.009V3.35785ZM385.224 4.23877V30.2794H386.986V4.23877H385.224ZM386.105 31.1603H414.54V29.3985H386.105V31.1603ZM413.659 30.2794V109H415.421V30.2794H413.659ZM414.54 109.881H443.574V108.119H414.54V109.881ZM444.455 109V30.2794H442.693V109H444.455ZM443.574 31.1603H472.009V29.3985H443.574V31.1603ZM472.89 30.2794V4.23877H471.128V30.2794H472.89ZM527.307 43.8984L527.084 44.7507L527.093 44.753L527.307 43.8984ZM530.599 36.1161H529.718V36.997H530.599V36.1161ZM559.633 36.1161V36.997H560.514V36.1161H559.633ZM514.586 66.4969L514.374 67.352L514.381 67.3537L514.586 66.4969ZM508.599 75.1771H509.48V74.2962H508.599V75.1771ZM478.817 75.1771V74.2962H477.936V75.1771H478.817ZM521.021 112.575C533.35 112.575 544.039 109.551 551.667 103.537C559.321 97.5022 563.807 88.5213 563.807 76.8233H562.045C562.045 88.0232 557.775 96.4776 550.576 102.154C543.35 107.851 533.087 110.813 521.021 110.813V112.575ZM563.807 76.8233C563.807 64.6168 558.634 57.0941 551.451 52.17C544.339 47.2952 535.275 44.9825 527.521 43.0438L527.093 44.753C534.903 46.7054 543.648 48.9573 550.455 53.6232C557.19 58.2398 562.045 65.2341 562.045 76.8233H563.807ZM527.53 43.0461C522.628 41.7641 518.316 40.6643 515.214 39.1586C512.124 37.6592 510.528 35.9061 510.528 33.4223H508.766C508.766 36.9248 511.136 39.1376 514.444 40.7436C517.74 42.3434 522.258 43.4884 527.084 44.7506L527.53 43.0461ZM510.528 33.4223C510.528 31.3019 511.565 29.7674 513.222 28.7237C514.912 27.659 517.242 27.1195 519.674 27.1195V25.3577C517.019 25.3577 514.334 25.9407 512.283 27.2331C510.198 28.5466 508.766 30.6039 508.766 33.4223H510.528ZM519.674 27.1195C522.525 27.1195 525.039 27.8688 526.823 29.3328C528.582 30.7766 529.718 32.9855 529.718 36.1161H531.48C531.48 32.5121 530.147 29.7823 527.941 27.9709C525.758 26.1799 522.81 25.3577 519.674 25.3577V27.1195ZM530.599 36.997H559.633V35.2352H530.599V36.997ZM560.514 36.1161C560.514 25.205 556.806 16.3774 549.81 10.2902C542.831 4.2172 532.686 0.963316 519.974 0.963316V2.72515C532.404 2.72515 542.089 5.90659 548.654 11.6193C555.202 17.3177 558.752 25.626 558.752 36.1161H560.514ZM519.974 0.963316C507.499 0.963316 497.327 3.94858 490.256 9.65169C483.159 15.3752 479.283 23.7591 479.283 34.3202H481.045C481.045 24.2284 484.727 16.3743 491.362 11.0231C498.022 5.65141 507.755 2.72515 519.974 2.72515V0.963316ZM479.283 34.3202C479.283 46.5147 484.258 53.8928 491.209 58.6556C498.081 63.3644 506.853 65.4903 514.374 67.352L514.797 65.6418C507.203 63.7619 498.765 61.6974 492.205 57.2022C485.723 52.761 481.045 45.9215 481.045 34.3202H479.283ZM514.381 67.3537C519.43 68.5595 523.885 69.6232 527.09 71.1803C530.264 72.7224 531.963 74.6186 531.963 77.422H533.725C533.725 73.6404 531.309 71.2712 527.86 69.5957C524.443 67.9352 519.768 66.8288 514.79 65.6401L514.381 67.3537ZM531.963 77.422C531.963 79.9231 530.693 81.9183 528.675 83.321C526.639 84.7356 523.867 85.5206 521.021 85.5206V87.2824C524.162 87.2824 527.301 86.4211 529.68 84.7678C532.077 83.1025 533.725 80.6079 533.725 77.422H531.963ZM521.021 85.5206C517.885 85.5206 514.991 84.6288 512.899 82.9141C510.829 81.2174 509.48 78.6654 509.48 75.1771H507.719C507.719 79.1718 509.288 82.2319 511.782 84.2767C514.255 86.3035 517.572 87.2824 521.021 87.2824V85.5206ZM508.599 74.2962H478.817V76.058H508.599V74.2962ZM477.936 75.1771C477.936 86.855 482.181 96.2403 489.751 102.693C497.303 109.13 508.077 112.575 521.021 112.575V110.813C508.374 110.813 498.045 107.448 490.894 101.352C483.759 95.2701 479.698 86.397 479.698 75.1771H477.936Z" fill="url(#paint0_linear)" fill-opacity="0.48"/>
<defs>
<linearGradient id="paint0_linear" x1="279.94" y1="-49.142" x2="279.5" y2="163.159" gradientUnits="userSpaceOnUse">
<stop stop-color="white"/>
<stop offset="1" stop-color="white" stop-opacity="0"/>
</linearGradient>
</defs>
</svg>
