<svg width="307" height="718" viewBox="0 0 307 718" fill="none" xmlns="http://www.w3.org/2000/svg">
<path fill-rule="evenodd" clip-rule="evenodd" d="M91.2382 634.125L25.4105 85.9911C18.8223 87.1355 11.9689 82.9234 6.8674 73.3906C-2.13376 56.571 -2.27285 29.5569 6.55674 13.0527C15.3863 -3.45139 29.841 -3.19565 38.8421 13.6239C44.8963 24.9367 46.9413 40.8614 44.9449 55.098L329.986 268.039C331.072 263.243 332.656 258.761 334.741 254.865C343.57 238.361 358.025 238.617 367.026 255.436C376.027 272.256 376.167 299.27 367.337 315.774C358.828 331.678 345.097 332.019 336.055 316.973L117.358 651.175C123.481 667.885 122.68 690.664 114.88 705.243C106.051 721.747 91.5962 721.491 82.595 704.672C73.5939 687.852 73.4548 660.838 82.2844 644.334C84.8774 639.487 87.9555 636.086 91.2382 634.125ZM39.1528 73.9618C39.7856 72.779 40.3724 71.5421 40.9131 70.259L185.428 246.879C181.278 262.759 182.819 282.66 189.998 296.075C191.562 298.996 193.289 301.418 195.124 303.338L106.476 635.03C102.985 632.507 99.2441 631.623 95.5985 632.386L29.7895 84.4075C33.2255 82.4897 36.4522 79.0097 39.1528 73.9618ZM199.26 306.727L110.505 638.822C111.904 640.476 113.231 642.434 114.459 644.698L332.975 310.771C330.36 304.373 328.819 296.95 328.357 289.375L228.364 275.46C227.521 283.249 225.496 290.643 222.284 296.646C216.1 308.205 207.156 311.543 199.26 306.727ZM228.816 267.146L328.286 280.988C328.36 279.315 328.486 277.65 328.666 276.003L43.3946 62.8901C43.3619 63.0144 43.3289 63.1385 43.2956 63.2624L187.766 239.828C188.351 238.406 188.991 237.039 189.688 235.737C198.517 219.233 212.972 219.489 221.973 236.308C226.549 244.859 228.835 256.045 228.816 267.146Z" fill="url(#paint0_linear)"/>
<defs>
<linearGradient id="paint0_linear" x1="-9.27388" y1="42.6431" x2="397.138" y2="260.07" gradientUnits="userSpaceOnUse">
<stop stop-color="#F52D2E"/>
<stop offset="0.544792" stop-color="#FF048B"/>
<stop offset="1" stop-color="#33D3FF"/>
</linearGradient>
</defs>
</svg>
