<svg width="464" height="217" viewBox="0 0 464 217" fill="none" xmlns="http://www.w3.org/2000/svg">
<g opacity="0.55" filter="url(#filter0_f)">
<path d="M52.7683 64.2009L31.4726 41.7139L30.3398 41H126.397L168.195 81.423L211.127 41H243.976L186.773 98.8237L244.656 155.309H209.994L168.762 114.797L125.944 155.309H30L52.7683 132.376H116.655L149.732 98.8237L114.39 64.2009H52.7683Z" fill="url(#paint0_linear)"/>
<path d="M54.1276 109.889V86.1524H114.39L126.397 98.8237L114.39 109.889H54.1276Z" fill="url(#paint1_linear)"/>
</g>
<g filter="url(#filter1_d)">
<path d="M254.654 92.3106H252.654V94.493L254.828 94.303L254.654 92.3106ZM284.215 33.3587H286.215V31.3587H284.215V33.3587ZM253.295 33.3587V31.3587H251.295V33.3587H253.295ZM253.295 62.5798H251.295V64.5798H253.295V62.5798ZM268.075 62.5798H270.075V60.5798H268.075V62.5798ZM254.654 76.6807L254.469 74.6892L252.654 74.8573V76.6807H254.654ZM254.828 94.303C263.996 93.5019 271.867 89.9251 277.452 83.9985C283.043 78.0646 286.215 69.9105 286.215 60.2014H282.215C282.215 69.0103 279.355 76.1463 274.541 81.2553C269.719 86.3715 262.81 89.5903 254.48 90.3182L254.828 94.303ZM286.215 60.2014V33.3587H282.215V60.2014H286.215ZM284.215 31.3587H253.295V35.3587H284.215V31.3587ZM251.295 33.3587V62.5798H255.295V33.3587H251.295ZM253.295 64.5798H268.075V60.5798H253.295V64.5798ZM266.075 62.5798C266.075 65.8483 265.129 68.6586 263.304 70.7288C261.491 72.7855 258.644 74.3027 254.469 74.6892L254.838 78.6722C259.837 78.2093 263.701 76.3286 266.305 73.3736C268.898 70.4321 270.075 66.6166 270.075 62.5798H266.075ZM252.654 76.6807V92.3106H256.654V76.6807H252.654ZM347.13 128.327L345.614 127.023L342.77 130.327H347.13V128.327ZM296.332 79.2291H294.332V81.2291H296.332V79.2291ZM326.233 79.2291V81.2291H328.233V79.2291H326.233ZM294.464 148.204L292.938 146.911L292.464 147.471V148.204H294.464ZM294.464 155H292.464V157H294.464V155ZM378.559 155V157H380.559V155H378.559ZM378.559 128.327H380.559V126.327H378.559V128.327ZM348.646 129.632C372.773 101.597 378.521 90.2244 378.521 75.1517H374.521C374.521 88.6206 369.735 98.994 345.614 127.023L348.646 129.632ZM378.521 75.1517C378.521 63.9842 374.172 54.4698 366.613 47.7682C359.073 41.0833 348.466 37.3049 336.087 37.3049V41.3049C347.662 41.3049 357.272 44.8317 363.96 50.7612C370.629 56.674 374.521 65.083 374.521 75.1517H378.521ZM336.087 37.3049C323.282 37.3049 312.806 41.1705 305.519 48.2084C298.225 55.2524 294.332 65.2778 294.332 77.1904H298.332C298.332 66.1678 301.915 57.2504 308.298 51.0855C314.687 44.9145 324.087 41.3049 336.087 41.3049V37.3049ZM294.332 77.1904V79.2291H298.332V77.1904H294.332ZM296.332 81.2291H326.233V77.2291H296.332V81.2291ZM328.233 79.2291V77.0205H324.233V79.2291H328.233ZM328.233 77.0205C328.233 73.9987 329.098 71.765 330.443 70.3066C331.771 68.8669 333.753 67.9776 336.427 67.9776V63.9776C332.814 63.9776 329.7 65.212 327.502 67.5948C325.322 69.9589 324.233 73.2467 324.233 77.0205H328.233ZM336.427 67.9776C338.83 67.9776 340.759 68.8165 342.088 70.1779C343.42 71.5417 344.28 73.5663 344.28 76.171H348.28C348.28 72.6597 347.102 69.5877 344.951 67.3838C342.797 65.1775 339.8 63.9776 336.427 63.9776V67.9776ZM344.28 76.171C344.28 80.3658 343.02 84.5227 335.823 94.5186C328.617 104.527 315.723 120.045 292.938 146.911L295.989 149.498C318.735 122.678 331.749 107.022 339.069 96.8558C346.397 86.6772 348.28 81.66 348.28 76.171H344.28ZM292.464 148.204V155H296.464V148.204H292.464ZM294.464 157H378.559V153H294.464V157ZM380.559 155V128.327H376.559V155H380.559ZM378.559 126.327H347.13V130.327H378.559V126.327ZM383.389 42.0231V40.0231H381.389V42.0231H383.389ZM383.389 67.6765H381.389V69.6765H383.389V67.6765ZM400.208 67.6765H402.208V65.6765H400.208V67.6765ZM400.208 155H398.208V157H400.208V155ZM430.619 155V157H432.619V155H430.619ZM430.619 42.0231H432.619V40.0231H430.619V42.0231ZM381.389 42.0231V67.6765H385.389V42.0231H381.389ZM383.389 69.6765H400.208V65.6765H383.389V69.6765ZM398.208 67.6765V155H402.208V67.6765H398.208ZM400.208 157H430.619V153H400.208V157ZM432.619 155V42.0231H428.619V155H432.619ZM430.619 40.0231H383.389V44.0231H430.619V40.0231Z" fill="url(#paint2_linear)"/>
</g>
<path d="M51.7683 63.8569L30.4726 41.3699L29.3398 40.6561H125.397L167.195 81.0791L210.127 40.6561H242.976L185.773 98.4797L243.656 154.965H208.994L167.762 114.453L124.944 154.965H29L51.7683 132.032H115.655L148.732 98.4797L113.39 63.8569H51.7683Z" fill="url(#paint3_linear)"/>
<path d="M53.1276 109.545V85.8085H113.39L125.397 98.4797L113.39 109.545H53.1276Z" fill="url(#paint4_linear)"/>
<defs>
<filter id="filter0_f" x="0" y="11" width="274.656" height="174.309" filterUnits="userSpaceOnUse" color-interpolation-filters="sRGB">
<feFlood flood-opacity="0" result="BackgroundImageFix"/>
<feBlend mode="normal" in="SourceGraphic" in2="BackgroundImageFix" result="shape"/>
<feGaussianBlur stdDeviation="15" result="effect1_foregroundBlur"/>
</filter>
<filter id="filter1_d" x="247.294" y="31.3587" width="189.324" height="133.641" filterUnits="userSpaceOnUse" color-interpolation-filters="sRGB">
<feFlood flood-opacity="0" result="BackgroundImageFix"/>
<feColorMatrix in="SourceAlpha" type="matrix" values="0 0 0 0 0 0 0 0 0 0 0 0 0 0 0 0 0 0 127 0"/>
<feOffset dy="4"/>
<feGaussianBlur stdDeviation="2"/>
<feColorMatrix type="matrix" values="0 0 0 0 0 0 0 0 0 0 0 0 0 0 0 0 0 0 0.25 0"/>
<feBlend mode="normal" in2="BackgroundImageFix" result="effect1_dropShadow"/>
<feBlend mode="normal" in="SourceGraphic" in2="effect1_dropShadow" result="shape"/>
</filter>
<linearGradient id="paint0_linear" x1="66.7048" y1="40.7345" x2="224.267" y2="155.325" gradientUnits="userSpaceOnUse">
<stop stop-color="#F52C2C"/>
<stop offset="0.534375" stop-color="#3F69FF"/>
<stop offset="1" stop-color="#2EFFFF"/>
</linearGradient>
<linearGradient id="paint1_linear" x1="66.7048" y1="40.7345" x2="224.267" y2="155.325" gradientUnits="userSpaceOnUse">
<stop stop-color="#F52C2C"/>
<stop offset="0.534375" stop-color="#3F69FF"/>
<stop offset="1" stop-color="#2EFFFF"/>
</linearGradient>
<linearGradient id="paint2_linear" x1="270.819" y1="27.7524" x2="446.286" y2="165.619" gradientUnits="userSpaceOnUse">
<stop stop-color="#F62D2D"/>
<stop offset="0.534375" stop-color="#3F6DFF"/>
<stop offset="1" stop-color="#2EFEFF"/>
</linearGradient>
<linearGradient id="paint3_linear" x1="65.7048" y1="40.3905" x2="223.267" y2="154.981" gradientUnits="userSpaceOnUse">
<stop stop-color="#F52C2C"/>
<stop offset="0.534375" stop-color="#3F69FF"/>
<stop offset="1" stop-color="#2EFFFF"/>
</linearGradient>
<linearGradient id="paint4_linear" x1="65.7048" y1="40.3905" x2="223.267" y2="154.981" gradientUnits="userSpaceOnUse">
<stop stop-color="#F52C2C"/>
<stop offset="0.534375" stop-color="#3F69FF"/>
<stop offset="1" stop-color="#2EFFFF"/>
</linearGradient>
</defs>
</svg>
