<svg width="464" height="217" viewBox="0 0 464 217" fill="none" xmlns="http://www.w3.org/2000/svg">
<g opacity="0.7" filter="url(#filter0_f)">
<path d="M253.654 92.3106H251.742V94.3965L253.82 94.2149L253.654 92.3106ZM283.215 33.3587H285.126V31.4471H283.215V33.3587ZM252.295 33.3587V31.4471H250.383V33.3587H252.295ZM252.295 62.5798H250.383V64.4914H252.295V62.5798ZM267.075 62.5798H268.987V60.6682H267.075V62.5798ZM253.654 76.6807L253.477 74.7772L251.742 74.9379V76.6807H253.654ZM253.82 94.2149C262.97 93.4154 270.82 89.8465 276.387 83.9378C281.962 78.0222 285.126 69.8906 285.126 60.2013H281.303C281.303 69.0301 278.436 76.1886 273.605 81.3159C268.767 86.45 261.836 89.6767 253.487 90.4062L253.82 94.2149ZM285.126 60.2013V33.3587H281.303V60.2013H285.126ZM283.215 31.4471H252.295V35.2703H283.215V31.4471ZM250.383 33.3587V62.5798H254.206V33.3587H250.383ZM252.295 64.4914H267.075V60.6682H252.295V64.4914ZM265.163 62.5798C265.163 65.8653 264.212 68.6977 262.371 70.7872C260.54 72.8638 257.67 74.389 253.477 74.7772L253.83 78.5841C258.811 78.1229 262.652 76.2503 265.239 73.3151C267.814 70.3928 268.987 66.5996 268.987 62.5798H265.163ZM251.742 76.6807V92.3106H255.565V76.6807H251.742ZM346.13 128.327L344.681 127.08L341.962 130.239H346.13V128.327ZM295.332 79.229H293.421V81.1406H295.332V79.229ZM325.233 79.229V81.1406H327.145V79.229H325.233ZM293.464 148.204L292.006 146.968L291.552 147.503V148.204H293.464ZM293.464 155H291.552V156.912H293.464V155ZM377.559 155V156.912H379.471V155H377.559ZM377.559 128.327H379.471V126.416H377.559V128.327ZM347.579 129.574C371.706 101.539 377.432 90.1889 377.432 75.1517H373.609C373.609 88.656 368.802 99.0515 344.681 127.08L347.579 129.574ZM377.432 75.1517C377.432 64.0084 373.094 54.5185 365.555 47.8343C358.033 41.1662 347.448 37.3933 335.087 37.3933V41.2165C346.68 41.2165 356.311 44.7488 363.018 50.6951C369.707 56.6252 373.609 65.0586 373.609 75.1517H377.432ZM335.087 37.3933C322.3 37.3933 311.847 41.2532 304.58 48.2719C297.307 55.2966 293.421 65.2974 293.421 77.1903H297.244C297.244 66.1481 300.833 57.2062 307.236 51.0219C313.645 44.8317 323.069 41.2165 335.087 41.2165V37.3933ZM293.421 77.1903V79.229H297.244V77.1903H293.421ZM295.332 81.1406H325.233V77.3174H295.332V81.1406ZM327.145 79.229V77.0205H323.322V79.229H327.145ZM327.145 77.0205C327.145 73.982 328.014 71.7251 329.378 70.2466C330.725 68.7861 332.733 67.8892 335.427 67.8892V64.066C331.835 64.066 328.746 65.2928 326.567 67.6547C324.406 69.9988 323.322 73.2633 323.322 77.0205H327.145ZM335.427 67.8892C337.851 67.8892 339.804 68.736 341.152 70.1161C342.501 71.4984 343.369 73.5463 343.369 76.171H347.192C347.192 72.6797 346.021 69.6308 343.887 67.4455C341.752 65.2579 338.778 64.066 335.427 64.066V67.8892ZM343.369 76.171C343.369 80.3944 342.095 84.5702 334.895 94.5702C327.686 104.582 314.79 120.103 292.006 146.968L294.922 149.441C317.668 122.62 330.68 106.967 337.997 96.8041C345.323 86.6296 347.192 81.6314 347.192 76.171H343.369ZM291.552 148.204V155H295.375V148.204H291.552ZM293.464 156.912H377.559V153.088H293.464V156.912ZM379.471 155V128.327H375.648V155H379.471ZM377.559 126.416H346.13V130.239H377.559V126.416ZM382.389 42.0231V40.1115H380.478V42.0231H382.389ZM382.389 67.6765H380.478V69.5881H382.389V67.6765ZM399.208 67.6765H401.12V65.7649H399.208V67.6765ZM399.208 155H397.297V156.912H399.208V155ZM429.619 155V156.912H431.53V155H429.619ZM429.619 42.0231H431.53V40.1115H429.619V42.0231ZM380.478 42.0231V67.6765H384.301V42.0231H380.478ZM382.389 69.5881H399.208V65.7649H382.389V69.5881ZM397.297 67.6765V155H401.12V67.6765H397.297ZM399.208 156.912H429.619V153.088H399.208V156.912ZM431.53 155V42.0231H427.707V155H431.53ZM429.619 40.1115H382.389V43.9347H429.619V40.1115Z" fill="url(#paint0_linear)"/>
</g>
<g opacity="0.7" filter="url(#filter1_f)">
<path d="M52.7683 64.2008L31.4726 41.7139L30.3398 41H126.397L168.195 81.423L211.127 41H243.976L186.773 98.8236L244.656 155.309H209.994L168.762 114.797L125.944 155.309H30L52.7683 132.376H116.655L149.732 98.8236L114.39 64.2008H52.7683Z" fill="url(#paint1_linear)"/>
<path d="M54.1276 109.889V86.1524H114.39L126.397 98.8236L114.39 109.889H54.1276Z" fill="url(#paint2_linear)"/>
</g>
<g filter="url(#filter2_d)">
<path d="M254.654 92.3106H253.654V93.4018L254.741 93.3068L254.654 92.3106ZM284.215 33.3587H285.215V32.3587H284.215V33.3587ZM253.295 33.3587V32.3587H252.295V33.3587H253.295ZM253.295 62.5798H252.295V63.5798H253.295V62.5798ZM268.075 62.5798H269.075V61.5798H268.075V62.5798ZM254.654 76.6807L254.561 75.6849L253.654 75.769V76.6807H254.654ZM254.741 93.3068C263.699 92.524 271.33 89.0367 276.724 83.3126C282.121 77.585 285.215 69.6854 285.215 60.2013H283.215C283.215 69.2353 280.277 76.6258 275.268 81.941C270.256 87.2599 263.107 90.5682 254.567 91.3144L254.741 93.3068ZM285.215 60.2013V33.3587H283.215V60.2013H285.215ZM284.215 32.3587H253.295V34.3587H284.215V32.3587ZM252.295 33.3587V62.5798H254.295V33.3587H252.295ZM253.295 63.5798H268.075V61.5798H253.295V63.5798ZM267.075 62.5798C267.075 66.0404 266.071 69.1019 264.054 71.39C262.044 73.6713 258.942 75.2793 254.561 75.6849L254.746 77.6764C259.539 77.2326 263.148 75.4428 265.555 72.7124C267.955 69.9887 269.075 66.4245 269.075 62.5798H267.075ZM253.654 76.6807V92.3106H255.654V76.6807H253.654ZM347.13 128.327L346.372 127.675L344.95 129.327H347.13V128.327ZM296.332 79.229H295.332V80.229H296.332V79.229ZM326.233 79.229V80.229H327.233V79.229H326.233ZM294.464 148.204L293.701 147.558L293.464 147.837V148.204H294.464ZM294.464 155H293.464V156H294.464V155ZM378.559 155V156H379.559V155H378.559ZM378.559 128.327H379.559V127.327H378.559V128.327ZM347.888 128.98C372.013 100.946 377.521 89.8234 377.521 75.1517H375.521C375.521 89.0215 370.495 99.6447 346.372 127.675L347.888 128.98ZM377.521 75.1517C377.521 64.2588 373.287 55.0208 365.95 48.5164C358.623 42.0204 348.265 38.3049 336.087 38.3049V40.3049C347.863 40.3049 357.722 43.8946 364.623 50.0129C371.515 56.1229 375.521 64.8082 375.521 75.1517H377.521ZM336.087 38.3049C323.484 38.3049 313.276 42.1065 306.213 48.9276C299.148 55.7519 295.332 65.5002 295.332 77.1903H297.332C297.332 65.9453 300.992 56.7509 307.603 50.3662C314.217 43.9784 323.886 40.3049 336.087 40.3049V38.3049ZM295.332 77.1903V79.229H297.332V77.1903H295.332ZM296.332 80.229H326.233V78.229H296.332V80.229ZM327.233 79.229V77.0205H325.233V79.229H327.233ZM327.233 77.0205C327.233 73.8107 328.154 71.3135 329.708 69.6286C331.253 67.9531 333.518 66.9776 336.427 66.9776V64.9776C333.049 64.9776 330.218 66.1257 328.237 68.2727C326.266 70.4104 325.233 73.4347 325.233 77.0205H327.233ZM336.427 66.9776C339.072 66.9776 341.269 67.9067 342.804 69.4793C344.34 71.0531 345.28 73.3396 345.28 76.171H347.28C347.28 72.8863 346.181 70.0761 344.235 68.0823C342.287 66.0872 339.557 64.9776 336.427 64.9776V66.9776ZM345.28 76.171C345.28 80.6893 343.864 85.0613 336.634 95.1028C329.4 105.15 316.476 120.703 293.701 147.558L295.226 148.851C317.982 122.02 330.966 106.398 338.257 96.2714C345.553 86.1386 347.28 81.3364 347.28 76.171H345.28ZM293.464 148.204V155H295.464V148.204H293.464ZM294.464 156H378.559V154H294.464V156ZM379.559 155V128.327H377.559V155H379.559ZM378.559 127.327H347.13V129.327H378.559V127.327ZM383.389 42.0231V41.0231H382.389V42.0231H383.389ZM383.389 67.6765H382.389V68.6765H383.389V67.6765ZM400.208 67.6765H401.208V66.6765H400.208V67.6765ZM400.208 155H399.208V156H400.208V155ZM430.619 155V156H431.619V155H430.619ZM430.619 42.0231H431.619V41.0231H430.619V42.0231ZM382.389 42.0231V67.6765H384.389V42.0231H382.389ZM383.389 68.6765H400.208V66.6765H383.389V68.6765ZM399.208 67.6765V155H401.208V67.6765H399.208ZM400.208 156H430.619V154H400.208V156ZM431.619 155V42.0231H429.619V155H431.619ZM430.619 41.0231H383.389V43.0231H430.619V41.0231Z" fill="url(#paint3_linear)"/>
</g>
<path d="M51.7683 63.8569L30.4726 41.3699L29.3398 40.656H125.397L167.195 81.079L210.127 40.656H242.976L185.773 98.4796L243.656 154.965H208.994L167.762 114.453L124.944 154.965H29L51.7683 132.032H115.655L148.732 98.4796L113.39 63.8569H51.7683Z" fill="url(#paint4_linear)"/>
<path d="M53.1276 109.545V85.8084H113.39L125.397 98.4796L113.39 109.545H53.1276Z" fill="url(#paint5_linear)"/>
<defs>
<filter id="filter0_f" x="220.383" y="1.44711" width="241.147" height="185.464" filterUnits="userSpaceOnUse" color-interpolation-filters="sRGB">
<feFlood flood-opacity="0" result="BackgroundImageFix"/>
<feBlend mode="normal" in="SourceGraphic" in2="BackgroundImageFix" result="shape"/>
<feGaussianBlur stdDeviation="15" result="effect1_foregroundBlur"/>
</filter>
<filter id="filter1_f" x="0" y="11" width="274.656" height="174.309" filterUnits="userSpaceOnUse" color-interpolation-filters="sRGB">
<feFlood flood-opacity="0" result="BackgroundImageFix"/>
<feBlend mode="normal" in="SourceGraphic" in2="BackgroundImageFix" result="shape"/>
<feGaussianBlur stdDeviation="15" result="effect1_foregroundBlur"/>
</filter>
<filter id="filter2_d" x="248.294" y="32.3587" width="187.324" height="131.641" filterUnits="userSpaceOnUse" color-interpolation-filters="sRGB">
<feFlood flood-opacity="0" result="BackgroundImageFix"/>
<feColorMatrix in="SourceAlpha" type="matrix" values="0 0 0 0 0 0 0 0 0 0 0 0 0 0 0 0 0 0 127 0"/>
<feOffset dy="4"/>
<feGaussianBlur stdDeviation="2"/>
<feColorMatrix type="matrix" values="0 0 0 0 0 0 0 0 0 0 0 0 0 0 0 0 0 0 0.25 0"/>
<feBlend mode="normal" in2="BackgroundImageFix" result="effect1_dropShadow"/>
<feBlend mode="normal" in="SourceGraphic" in2="effect1_dropShadow" result="shape"/>
</filter>
<linearGradient id="paint0_linear" x1="269.819" y1="27.7524" x2="445.286" y2="165.619" gradientUnits="userSpaceOnUse">
<stop stop-color="#F62D2D"/>
<stop offset="0.534375" stop-color="#3F6DFF"/>
<stop offset="1" stop-color="#2EFEFF"/>
</linearGradient>
<linearGradient id="paint1_linear" x1="66.7048" y1="40.7344" x2="224.267" y2="155.325" gradientUnits="userSpaceOnUse">
<stop stop-color="#F52C2C"/>
<stop offset="0.534375" stop-color="#3F69FF"/>
<stop offset="1" stop-color="#2EFFFF"/>
</linearGradient>
<linearGradient id="paint2_linear" x1="66.7048" y1="40.7344" x2="224.267" y2="155.325" gradientUnits="userSpaceOnUse">
<stop stop-color="#F52C2C"/>
<stop offset="0.534375" stop-color="#3F69FF"/>
<stop offset="1" stop-color="#2EFFFF"/>
</linearGradient>
<linearGradient id="paint3_linear" x1="270.819" y1="27.7524" x2="446.286" y2="165.619" gradientUnits="userSpaceOnUse">
<stop stop-color="#F62D2D"/>
<stop offset="0.534375" stop-color="#3F6DFF"/>
<stop offset="1" stop-color="#2EFEFF"/>
</linearGradient>
<linearGradient id="paint4_linear" x1="65.7048" y1="40.3905" x2="223.267" y2="154.981" gradientUnits="userSpaceOnUse">
<stop stop-color="#F52C2C"/>
<stop offset="0.534375" stop-color="#3F69FF"/>
<stop offset="1" stop-color="#2EFFFF"/>
</linearGradient>
<linearGradient id="paint5_linear" x1="65.7048" y1="40.3905" x2="223.267" y2="154.981" gradientUnits="userSpaceOnUse">
<stop stop-color="#F52C2C"/>
<stop offset="0.534375" stop-color="#3F69FF"/>
<stop offset="1" stop-color="#2EFFFF"/>
</linearGradient>
</defs>
</svg>
