<svg width="213" height="39" viewBox="0 0 213 39" fill="none" xmlns="http://www.w3.org/2000/svg">
<path d="M3.93364 12.4995L0.254415 8.64678L0.0587111 8.52448H16.6544L23.8758 15.4502L31.293 8.52448H36.9684L27.0854 18.4315L37.0858 28.1091H31.0973L23.9737 21.1681L16.5761 28.1091H0L3.93364 24.18H14.9713L20.6859 18.4315L14.5799 12.4995H3.93364Z" fill="white"/>
<path d="M4.16849 20.3273V16.2605H14.5799L16.6544 18.4315L14.5799 20.3273H4.16849Z" fill="white"/>
<path d="M49.6298 28.5141C55.0347 28.5141 59.1901 24.8817 59.9746 19.535H54.2501C53.6689 21.8015 51.8964 23.2835 49.6298 23.2835C46.753 23.2835 44.6317 20.9879 44.6317 17.8496C44.6317 14.7112 46.753 12.3865 49.6298 12.3865C51.7801 12.3865 53.5236 13.7523 54.221 15.8155H59.9165C59.0738 10.6721 54.9475 7.156 49.6298 7.156C43.4403 7.156 38.82 11.7473 38.82 17.8496C38.82 23.9228 43.4403 28.5141 49.6298 28.5141ZM68.2325 23.1382V20.0871H74.916V15.4958H68.2325V12.5028H75.6715V7.65H62.6533V27.991H75.933V23.1382H68.2325ZM84.8361 22.8767V7.65H79.1406V27.991H92.0717V22.8767H84.8361ZM101.529 28.5141C106.266 28.5141 109.665 26.1894 109.665 21.7434C109.665 17.1231 105.772 16.106 102.75 15.3505C100.861 14.8565 99.3206 14.4788 99.3206 13.3164C99.3206 12.3575 100.28 11.9216 101.268 11.9216C102.43 11.9216 103.389 12.5318 103.389 13.8395H109.026C109.026 9.6841 106.208 7.18506 101.326 7.18506C96.531 7.18506 93.5961 9.48069 93.5961 13.4908C93.5961 18.1111 97.3446 19.0119 100.28 19.7384C102.226 20.2033 103.825 20.5811 103.825 21.8596C103.825 22.9639 102.691 23.6032 101.529 23.6032C100.251 23.6032 99.1172 22.8767 99.1172 21.4238H93.3346C93.3346 25.8697 96.5601 28.5141 101.529 28.5141ZM112.598 27.991H118.293V7.65H112.598V27.991ZM132.359 28.5141C138.897 28.5141 143.547 24.0681 143.547 17.8496C143.547 11.602 138.897 7.156 132.359 7.156C125.821 7.156 121.172 11.631 121.172 17.8496C121.172 24.039 125.821 28.5141 132.359 28.5141ZM132.359 23.3126C129.279 23.3126 126.983 20.9879 126.983 17.8496C126.983 14.6822 129.279 12.3575 132.359 12.3575C135.468 12.3575 137.706 14.6531 137.706 17.8496C137.706 21.0169 135.468 23.3126 132.359 23.3126ZM157.35 27.991H163.598L159.559 20.6101C161.564 19.4187 162.784 17.3556 162.784 14.8565C162.784 10.614 159.588 7.65 155.229 7.65H146.395V27.991H152.004V21.7725H154.038L157.35 27.991ZM152.004 12.6481H154.561C156.13 12.6481 157.031 13.5779 157.031 14.8565C157.031 16.106 156.13 17.065 154.561 17.065H152.004V12.6481Z" fill="white"/>
<path d="M172.41 15.6424H171.598V16.5296L172.481 16.4523L172.41 15.6424ZM177.467 5.55912H178.28V4.74614H177.467V5.55912ZM172.178 5.55912V4.74614H171.365V5.55912H172.178ZM172.178 10.5572H171.365V11.3702H172.178V10.5572ZM174.706 10.5572H175.519V9.74421H174.706V10.5572ZM172.41 12.9691L172.336 12.1595L171.598 12.2279V12.9691H172.41ZM172.481 16.4523C174.148 16.3067 175.608 15.6527 176.653 14.5436C177.701 13.4316 178.28 11.917 178.28 10.1504H176.654C176.654 11.5511 176.201 12.6518 175.469 13.4286C174.735 14.2083 173.666 14.7167 172.34 14.8325L172.481 16.4523ZM178.28 10.1504V5.55912H176.654V10.1504H178.28ZM177.467 4.74614H172.178V6.37209H177.467V4.74614ZM171.365 5.55912V10.5572H172.991V5.55912H171.365ZM172.178 11.3702H174.706V9.74421H172.178V11.3702ZM173.893 10.5572C173.893 11.0258 173.759 11.3881 173.537 11.6397C173.32 11.8857 172.953 12.1024 172.336 12.1595L172.485 13.7786C173.438 13.6904 174.218 13.3259 174.757 12.7147C175.29 12.109 175.519 11.3381 175.519 10.5572H173.893ZM171.598 12.9691V15.6424H173.223V12.9691H171.598ZM194.621 21.8029L194.005 21.2725L192.849 22.6158H194.621V21.8029ZM185.932 13.4049H185.119V14.2179H185.932V13.4049ZM191.047 13.4049V14.2179H191.86V13.4049H191.047ZM185.613 25.2027L184.993 24.6769L184.8 24.9044V25.2027H185.613ZM185.613 26.3651H184.8V27.178H185.613V26.3651ZM199.997 26.3651V27.178H200.81V26.3651H199.997ZM199.997 21.8029H200.81V20.9899H199.997V21.8029ZM195.237 22.3332C199.364 17.5372 200.461 15.4744 200.461 12.7075H198.835C198.835 14.8225 198.13 16.4792 194.005 21.2725L195.237 22.3332ZM200.461 12.7075C200.461 10.668 199.663 8.91053 198.266 7.6714C196.876 6.43909 194.944 5.76319 192.732 5.76319V7.38914C194.617 7.38914 196.143 7.96276 197.187 8.88805C198.223 9.80651 198.835 11.1147 198.835 12.7075H200.461ZM192.732 5.76319C190.447 5.76319 188.528 6.45451 187.176 7.76034C185.822 9.06868 185.119 10.9139 185.119 13.0562H186.745C186.745 11.2757 187.321 9.88083 188.306 8.92987C189.293 7.97639 190.774 7.38914 192.732 7.38914V5.76319ZM185.119 13.0562V13.4049H186.745V13.0562H185.119ZM185.932 14.2179H191.047V12.592H185.932V14.2179ZM191.86 13.4049V13.0272H190.234V13.4049H191.86ZM191.86 13.0272C191.86 12.5988 191.981 12.3409 192.113 12.198C192.237 12.0628 192.443 11.9513 192.79 11.9513V10.3254C192.062 10.3254 191.396 10.5771 190.918 11.0957C190.446 11.6067 190.234 12.2932 190.234 13.0272H191.86ZM192.79 11.9513C193.087 11.9513 193.291 12.0523 193.422 12.1857C193.553 12.3201 193.663 12.5431 193.663 12.8819H195.288C195.288 12.1746 195.05 11.5258 194.585 11.0499C194.12 10.5731 193.481 10.3254 192.79 10.3254V11.9513ZM193.663 12.8819C193.663 13.447 193.52 14.0567 192.305 15.745C191.086 17.4381 188.894 20.0763 184.993 24.6769L186.233 25.7285C190.119 21.1466 192.359 18.4525 193.624 16.695C194.893 14.9325 195.288 13.9731 195.288 12.8819H193.663ZM184.8 25.2027V26.3651H186.426V25.2027H184.8ZM185.613 27.178H199.997V25.5521H185.613V27.178ZM200.81 26.3651V21.8029H199.184V26.3651H200.81ZM199.997 20.9899H194.621V22.6158H199.997V20.9899ZM202.13 7.0411V6.22813H201.317V7.0411H202.13ZM202.13 11.4289H201.317V12.2419H202.13V11.4289ZM205.007 11.4289H205.82V10.616H205.007V11.4289ZM205.007 26.3651H204.194V27.178H205.007V26.3651ZM210.209 26.3651V27.178H211.022V26.3651H210.209ZM210.209 7.0411H211.022V6.22813H210.209V7.0411ZM201.317 7.0411V11.4289H202.943V7.0411H201.317ZM202.13 12.2419H205.007V10.616H202.13V12.2419ZM204.194 11.4289V26.3651H205.82V11.4289H204.194ZM205.007 27.178H210.209V25.5521H205.007V27.178ZM211.022 26.3651V7.0411H209.396V26.3651H211.022ZM210.209 6.22813H202.13V7.85408H210.209V6.22813Z" fill="white"/>
</svg>
