<svg width="320" height="57" viewBox="0 0 320 57" fill="none" xmlns="http://www.w3.org/2000/svg">
<path d="M5.90837 18.2261L0.382133 12.4392L0.0881846 12.2555H25.015L35.8617 22.658L47.0024 12.2555H55.5269L40.6825 27.1359L55.7033 41.6719H46.7084L36.0087 31.2464L24.8975 41.6719H0L5.90837 35.7702H22.4871L31.0704 27.1359L21.8992 18.2261H5.90837Z" fill="white"/>
<path d="M6.26111 29.9834V23.8751H21.8992L25.015 27.1359L21.8992 29.9834H6.26111Z" fill="white"/>
<path d="M74.5445 43.2278C82.6627 43.2278 88.9041 37.772 90.0826 29.7411H81.4843C80.6113 33.1455 77.9489 35.3715 74.5445 35.3715C70.2235 35.3715 67.0374 31.9234 67.0374 27.2096C67.0374 22.4958 70.2235 19.0041 74.5445 19.0041C77.7743 19.0041 80.3931 21.0555 81.4406 24.1544H89.9953C88.7295 16.429 82.5318 11.1478 74.5445 11.1478C65.2479 11.1478 58.3081 18.0439 58.3081 27.2096C58.3081 36.3317 65.2479 43.2278 74.5445 43.2278ZM102.486 35.1532V30.5704H112.525V23.6743H102.486V19.1787H113.659V11.8898H94.1059V42.4422H114.052V35.1532H102.486ZM127.425 34.7604V11.8898H118.87V42.4422H138.293V34.7604H127.425ZM152.498 43.2278C159.612 43.2278 164.719 39.7361 164.719 33.0582C164.719 26.1185 158.87 24.5909 154.331 23.4561C151.494 22.7141 149.181 22.1467 149.181 20.4008C149.181 18.9605 150.621 18.3058 152.105 18.3058C153.851 18.3058 155.291 19.2224 155.291 21.1865H163.758C163.758 14.945 159.525 11.1915 152.192 11.1915C144.991 11.1915 140.582 14.6395 140.582 20.6627C140.582 27.6024 146.213 28.9555 150.621 30.0466C153.545 30.745 155.946 31.3124 155.946 33.2328C155.946 34.8914 154.244 35.8516 152.498 35.8516C150.577 35.8516 148.875 34.7604 148.875 32.5781H140.189C140.189 39.256 145.034 43.2278 152.498 43.2278ZM169.123 42.4422H177.678V11.8898H169.123V42.4422ZM198.805 43.2278C208.625 43.2278 215.608 36.5499 215.608 27.2096C215.608 17.8257 208.625 11.1478 198.805 11.1478C188.984 11.1478 182.001 17.8693 182.001 27.2096C182.001 36.5063 188.984 43.2278 198.805 43.2278ZM198.805 35.4151C194.178 35.4151 190.73 31.9234 190.73 27.2096C190.73 22.4522 194.178 18.9605 198.805 18.9605C203.475 18.9605 206.836 22.4085 206.836 27.2096C206.836 31.9671 203.475 35.4151 198.805 35.4151ZM236.342 42.4422H245.726L239.659 31.356C242.67 29.5665 244.504 26.4676 244.504 22.7141C244.504 16.3417 239.703 11.8898 233.156 11.8898H219.887V42.4422H228.311V33.1019H231.366L236.342 42.4422ZM228.311 19.397H232.152C234.509 19.397 235.862 20.7936 235.862 22.7141C235.862 24.5909 234.509 26.0312 232.152 26.0312H228.311V19.397Z" fill="white"/>
<path d="M258.962 23.8945H257.741V25.227L259.068 25.111L258.962 23.8945ZM266.557 8.74929H267.778V7.52819H266.557V8.74929ZM258.613 8.74929V7.52819H257.392V8.74929H258.613ZM258.613 16.2564H257.392V17.4775H258.613V16.2564ZM262.41 16.2564H263.631V15.0353H262.41V16.2564ZM258.962 19.8791L258.85 18.6632L257.741 18.7658V19.8791H258.962ZM259.068 25.111C261.572 24.8923 263.764 23.91 265.334 22.2441C266.908 20.5738 267.778 18.2989 267.778 15.6454H265.335C265.335 17.7493 264.656 19.4026 263.557 20.5693C262.453 21.7404 260.848 22.504 258.856 22.6781L259.068 25.111ZM267.778 15.6454V8.74929H265.335V15.6454H267.778ZM266.557 7.52819H258.613V9.97039H266.557V7.52819ZM257.392 8.74929V16.2564H259.834V8.74929H257.392ZM258.613 17.4775H262.41V15.0353H258.613V17.4775ZM261.189 16.2564C261.189 16.9603 260.987 17.5045 260.654 17.8823C260.328 18.2519 259.776 18.5774 258.85 18.6632L259.075 21.095C260.505 20.9626 261.677 20.4151 262.486 19.4971C263.288 18.5873 263.631 17.4294 263.631 16.2564H261.189ZM257.741 19.8791V23.8945H260.183V19.8791H257.741ZM292.322 33.1475L291.397 32.351L289.66 34.3686H292.322V33.1475ZM279.272 20.5338H278.051V21.7549H279.272V20.5338ZM286.954 20.5338V21.7549H288.175V20.5338H286.954ZM278.792 38.2542L277.861 37.4643L277.571 37.8061V38.2542H278.792ZM278.792 40H277.571V41.2211H278.792V40ZM300.397 40V41.2211H301.618V40H300.397ZM300.397 33.1475H301.618V31.9264H300.397V33.1475ZM293.248 33.9441C299.447 26.7405 301.094 23.6422 301.094 19.4863H298.652C298.652 22.663 297.593 25.1513 291.397 32.351L293.248 33.9441ZM301.094 19.4863C301.094 16.423 299.896 13.7832 297.797 11.922C295.709 10.071 292.808 9.05581 289.485 9.05581V11.498C292.317 11.498 294.609 12.3596 296.177 13.7494C297.733 15.1289 298.652 17.0938 298.652 19.4863H301.094ZM289.485 9.05581C286.053 9.05581 283.171 10.0942 281.141 12.0556C279.106 14.0207 278.051 16.7922 278.051 20.01H280.493C280.493 17.3356 281.358 15.2405 282.837 13.8122C284.32 12.3801 286.545 11.498 289.485 11.498V9.05581ZM278.051 20.01V20.5338H280.493V20.01H278.051ZM279.272 21.7549H286.954V19.3127H279.272V21.7549ZM288.175 20.5338V19.9664H285.733V20.5338H288.175ZM288.175 19.9664C288.175 19.323 288.357 18.9355 288.555 18.721C288.742 18.5179 289.052 18.3505 289.572 18.3505V15.9083C288.478 15.9083 287.478 16.2864 286.76 17.0653C286.052 17.8329 285.733 18.8639 285.733 19.9664H288.175ZM289.572 18.3505C290.018 18.3505 290.325 18.5022 290.521 18.7025C290.718 18.9043 290.883 19.2393 290.883 19.7481H293.325C293.325 18.6857 292.966 17.7113 292.268 16.9966C291.569 16.2803 290.611 15.9083 289.572 15.9083V18.3505ZM290.883 19.7481C290.883 20.597 290.669 21.5128 288.843 24.0485C287.012 26.5917 283.721 30.5542 277.861 37.4643L279.723 39.044C285.56 32.1619 288.925 28.1153 290.825 25.4755C292.731 22.8282 293.325 21.3871 293.325 19.7481H290.883ZM277.571 38.2542V40H280.013V38.2542H277.571ZM278.792 41.2211H300.397V38.7789H278.792V41.2211ZM301.618 40V33.1475H299.176V40H301.618ZM300.397 31.9264H292.322V34.3686H300.397V31.9264ZM303.602 10.9753V9.75415H302.381V10.9753H303.602ZM303.602 17.5658H302.381V18.7869H303.602V17.5658ZM307.923 17.5658H309.144V16.3447H307.923V17.5658ZM307.923 40H306.702V41.2211H307.923V40ZM315.735 40V41.2211H316.956V40H315.735ZM315.735 10.9753H316.956V9.75415H315.735V10.9753ZM302.381 10.9753V17.5658H304.823V10.9753H302.381ZM303.602 18.7869H307.923V16.3447H303.602V18.7869ZM306.702 17.5658V40H309.144V17.5658H306.702ZM307.923 41.2211H315.735V38.7789H307.923V41.2211ZM316.956 40V10.9753H314.514V40H316.956ZM315.735 9.75415H303.602V12.1964H315.735V9.75415Z" fill="white"/>
</svg>
