<svg width="299" height="125" viewBox="0 0 299 125" fill="none" xmlns="http://www.w3.org/2000/svg">
<path d="M68.0266 30.4291V31.31H68.9075V30.4291H68.0266ZM68.0266 4.23877H68.9075V3.35785H68.0266V4.23877ZM1.2787 4.23877V3.35785H0.397786V4.23877H1.2787ZM1.2787 109H0.397786V109.881H1.2787V109ZM30.4622 109V109.881H31.3431V109H30.4622ZM30.4622 72.3336V71.4527H29.5813V72.3336H30.4622ZM64.1354 72.3336V73.2145H65.0164V72.3336H64.1354ZM64.1354 47.0412H65.0164V46.1603H64.1354V47.0412ZM30.4622 47.0412H29.5813V47.9221H30.4622V47.0412ZM30.4622 30.4291V29.5482H29.5813V30.4291H30.4622ZM68.9075 30.4291V4.23877H67.1457V30.4291H68.9075ZM68.0266 3.35785H1.2787V5.11969H68.0266V3.35785ZM0.397786 4.23877V109H2.15962V4.23877H0.397786ZM1.2787 109.881H30.4622V108.119H1.2787V109.881ZM31.3431 109V72.3336H29.5813V109H31.3431ZM30.4622 73.2145H64.1354V71.4527H30.4622V73.2145ZM65.0164 72.3336V47.0412H63.2545V72.3336H65.0164ZM64.1354 46.1603H30.4622V47.9221H64.1354V46.1603ZM31.3431 47.0412V30.4291H29.5813V47.0412H31.3431ZM30.4622 31.31H68.0266V29.5482H30.4622V31.31ZM145.404 109L144.569 109.281L144.771 109.881H145.404V109ZM177.281 109V109.881H178.584L178.099 108.672L177.281 109ZM135.227 4.23877L136.044 3.9106L135.823 3.35785H135.227V4.23877ZM106.941 4.23877V3.35785H106.341L106.121 3.91666L106.941 4.23877ZM65.7852 109L64.9653 108.678L64.4927 109.881H65.7852V109ZM96.7646 109V109.881H97.3925L97.5973 109.287L96.7646 109ZM102.601 92.0885V91.2076H101.973L101.769 91.8011L102.601 92.0885ZM139.717 92.0885L140.552 91.8078L140.35 91.2076H139.717V92.0885ZM132.683 69.4901V70.371H133.935L133.512 69.1921L132.683 69.4901ZM109.635 69.4901L108.804 69.1989L108.393 70.371H109.635V69.4901ZM121.009 37.0141L121.838 36.7161L120.999 34.3798L120.178 36.7229L121.009 37.0141ZM145.404 109.881H177.281V108.119H145.404V109.881ZM178.099 108.672L136.044 3.9106L134.409 4.56694L176.464 109.328L178.099 108.672ZM135.227 3.35785H106.941V5.11969H135.227V3.35785ZM106.121 3.91666L64.9653 108.678L66.6051 109.322L107.761 4.56088L106.121 3.91666ZM65.7852 109.881H96.7646V108.119H65.7852V109.881ZM97.5973 109.287L103.434 92.3759L101.769 91.8011L95.9319 108.713L97.5973 109.287ZM102.601 92.9695H139.717V91.2076H102.601V92.9695ZM138.882 92.3693L144.569 109.281L146.239 108.719L140.552 91.8078L138.882 92.3693ZM132.683 68.6091H109.635V70.371H132.683V68.6091ZM110.467 69.7812L121.841 37.3053L120.178 36.7229L108.804 69.1989L110.467 69.7812ZM120.18 37.312L131.854 69.788L133.512 69.1921L121.838 36.7161L120.18 37.312ZM296.849 123.367V124.248H298.716L297.529 122.807L296.849 123.367ZM275.149 97.0273L274.553 96.3779L273.937 96.9425L274.469 97.5874L275.149 97.0273ZM254.496 108.85L255.182 108.298L254.813 107.84L254.248 108.005L254.496 108.85ZM266.169 123.367L265.483 123.919L265.747 124.248H266.169V123.367ZM297.529 122.807L275.829 96.4671L274.469 97.5874L296.169 123.927L297.529 122.807ZM275.744 97.6767C286.709 87.625 293.091 73.4674 293.091 56.6194H291.329C291.329 72.9957 285.139 86.6746 274.553 96.3779L275.744 97.6767ZM293.091 56.6194C293.091 24.0673 268.711 0.81366 234.591 0.81366V2.57549C267.817 2.57549 291.329 25.1174 291.329 56.6194H293.091ZM234.591 0.81366C200.469 0.81366 176.091 24.2186 176.091 56.6194H177.853C177.853 25.2655 201.367 2.57549 234.591 2.57549V0.81366ZM176.091 56.6194C176.091 89.1683 200.467 112.575 234.591 112.575V110.813C201.368 110.813 177.853 88.1245 177.853 56.6194H176.091ZM234.591 112.575C241.712 112.575 248.53 111.514 254.743 109.696L254.248 108.005C248.19 109.778 241.538 110.813 234.591 110.813V112.575ZM253.809 109.402L265.483 123.919L266.856 122.815L255.182 108.298L253.809 109.402ZM266.169 124.248H296.849V122.486H266.169V124.248ZM207.785 56.6194C207.785 40.9302 219.226 29.3644 234.591 29.3644V27.6026C218.228 27.6026 206.023 39.9822 206.023 56.6194H207.785ZM234.591 29.3644C250.099 29.3644 261.247 40.7741 261.247 56.6194H263.009C263.009 39.839 251.11 27.6026 234.591 27.6026V29.3644ZM261.247 56.6194C261.247 72.6175 250.096 84.024 234.591 84.024V85.7858C251.113 85.7858 263.009 73.5463 263.009 56.6194H261.247ZM234.591 84.024C219.229 84.024 207.785 72.4613 207.785 56.6194H206.023C206.023 73.4031 218.225 85.7858 234.591 85.7858V84.024Z" fill="url(#paint0_linear)" fill-opacity="0.48"/>
<defs>
<linearGradient id="paint0_linear" x1="144.234" y1="-49.1244" x2="143.404" y2="162.998" gradientUnits="userSpaceOnUse">
<stop stop-color="white"/>
<stop offset="1" stop-color="white" stop-opacity="0"/>
</linearGradient>
</defs>
</svg>
