<svg width="552" height="108" viewBox="0 0 552 108" fill="none" xmlns="http://www.w3.org/2000/svg">
<path opacity="0.4" d="M52.3214 50.2777V48.5302H50.5738V50.2777H52.3214ZM52.3214 67.4759H50.5738V69.2235H52.3214V67.4759ZM76.8499 67.4759L78.4684 68.1353L79.449 65.7283H76.8499V67.4759ZM76.8499 40.9738L75.2409 41.6556L75.6925 42.7214H76.8499V40.9738ZM105.467 40.9738V42.7214H107.567L107.185 40.6556L105.467 40.9738ZM106.453 50.2777H108.201V48.5302H106.453V50.2777ZM50.5738 50.2777V67.4759H54.069V50.2777H50.5738ZM52.3214 69.2235H76.8499V65.7283H52.3214V69.2235ZM75.2315 66.8166C72.4739 73.5852 64.3815 78.4155 54.4359 78.4155V81.9107C65.3537 81.9107 75.0233 76.5912 78.4684 68.1353L75.2315 66.8166ZM54.4359 78.4155C47.4028 78.4155 41.7163 75.9059 37.7788 71.6618C33.8294 67.4048 31.514 61.2648 31.514 53.802H28.0189C28.0189 61.9866 30.5669 69.0272 35.2165 74.0389C39.8781 79.0635 46.5264 81.9107 54.4359 81.9107V78.4155ZM31.514 53.802C31.514 46.2714 33.863 40.0953 37.8315 35.819C41.7891 31.5545 47.4771 29.0474 54.4359 29.0474V25.5523C46.5931 25.5523 39.9463 28.4021 35.2696 33.4415C30.6038 38.4691 28.0189 45.544 28.0189 53.802H31.514ZM54.4359 29.0474C63.8541 29.0474 72.0313 34.0811 75.2409 41.6556L78.459 40.292C74.6202 31.2323 65.0353 25.5523 54.4359 25.5523V29.0474ZM76.8499 42.7214H105.467V39.2262H76.8499V42.7214ZM107.185 40.6556C102.78 16.8675 80.8032 0.177942 54.154 0.177942V3.67309C79.3812 3.67309 99.6953 19.4063 103.748 41.292L107.185 40.6556ZM54.154 0.177942C22.8932 0.177942 0.107073 22.798 0.107073 53.802H3.60222C3.60222 24.7533 24.7983 3.67309 54.154 3.67309V0.177942ZM0.107073 53.802C0.107073 84.8277 23.3381 107.285 54.4359 107.285V103.79C25.1992 103.79 3.60222 82.8289 3.60222 53.802H0.107073ZM54.4359 107.285C70.3263 107.285 83.8027 101.361 93.2981 91.2069C102.785 81.0624 108.201 66.8022 108.201 50.2777H104.706C104.706 66.0351 99.5494 79.4048 90.7453 88.8196C81.95 98.225 69.4177 103.79 54.4359 103.79V107.285ZM106.453 48.5302H52.3214V52.0253H106.453V48.5302ZM205.235 4.32198H206.982V2.5744H205.235V4.32198ZM177.464 4.32198V2.5744H175.717V4.32198H177.464ZM146.874 4.32198H148.621V2.5744H146.874V4.32198ZM119.103 4.32198V2.5744H117.355V4.32198H119.103ZM162.098 107.285C175.094 107.285 186.324 103.07 194.321 95.6082C202.329 88.1367 206.982 77.5129 206.982 64.9385H203.487C203.487 76.6107 199.189 86.2864 191.937 93.0527C184.675 99.8288 174.336 103.79 162.098 103.79V107.285ZM206.982 64.9385V4.32198H203.487V64.9385H206.982ZM205.235 2.5744H177.464V6.06955H205.235V2.5744ZM175.717 4.32198V64.3746H179.212V4.32198H175.717ZM175.717 64.3746C175.717 68.8615 174.293 72.3796 171.966 74.7672C169.642 77.1516 166.275 78.5565 162.098 78.5565V82.0516C167.085 82.0516 171.401 80.3552 174.469 77.2066C177.534 74.0611 179.212 69.6146 179.212 64.3746H175.717ZM162.098 78.5565C158 78.5565 154.668 77.1565 152.359 74.7713C150.046 72.3824 148.621 68.8617 148.621 64.3746H145.126C145.126 69.6144 146.803 74.0584 149.847 77.2025C152.895 80.3503 157.175 82.0516 162.098 82.0516V78.5565ZM148.621 64.3746V4.32198H145.126V64.3746H148.621ZM146.874 2.5744H119.103V6.06955H146.874V2.5744ZM117.355 4.32198V64.9385H120.851V4.32198H117.355ZM117.355 64.9385C117.355 77.5127 122.008 88.1357 129.997 95.6068C137.976 103.068 149.171 107.285 162.098 107.285V103.79C149.933 103.79 139.631 99.8303 132.385 93.054C125.149 86.2874 120.851 76.6108 120.851 64.9385H117.355ZM250.404 79.4582H248.657V81.2058H250.404V79.4582ZM250.404 64.6565V62.909H248.657V64.6565H250.404ZM282.827 64.6565V66.4041H284.575V64.6565H282.827ZM282.827 42.3835H284.575V40.6359H282.827V42.3835ZM250.404 42.3835H248.657V44.1311H250.404V42.3835ZM250.404 27.8637V26.1162H248.657V27.8637H250.404ZM286.492 27.8637V29.6113H288.24V27.8637H286.492ZM286.492 4.32198H288.24V2.5744H286.492V4.32198ZM223.338 4.32198V2.5744H221.591V4.32198H223.338ZM223.338 103H221.591V104.748H223.338V103ZM287.761 103V104.748H289.509V103H287.761ZM287.761 79.4582H289.509V77.7107H287.761V79.4582ZM252.152 79.4582V64.6565H248.657V79.4582H252.152ZM250.404 66.4041H282.827V62.909H250.404V66.4041ZM284.575 64.6565V42.3835H281.079V64.6565H284.575ZM282.827 40.6359H250.404V44.1311H282.827V40.6359ZM252.152 42.3835V27.8637H248.657V42.3835H252.152ZM250.404 29.6113H286.492V26.1162H250.404V29.6113ZM288.24 27.8637V4.32198H284.745V27.8637H288.24ZM286.492 2.5744H223.338V6.06955H286.492V2.5744ZM221.591 4.32198V103H225.086V4.32198H221.591ZM223.338 104.748H287.761V101.252H223.338V104.748ZM289.509 103V79.4582H286.013V103H289.509ZM287.761 77.7107H250.404V81.2058H287.761V77.7107ZM344.202 41.6787L343.76 43.3694L343.769 43.3718L343.779 43.3741L344.202 41.6787ZM347.304 34.3483H345.556V36.0959H347.304V34.3483ZM374.652 34.3483V36.0959H376.399V34.3483H374.652ZM332.22 62.9649L331.8 64.6613L331.807 64.663L331.814 64.6647L332.22 62.9649ZM326.581 71.1411H328.329V69.3935H326.581V71.1411ZM298.529 71.1411V69.3935H296.781V71.1411H298.529ZM338.282 107.285C350.031 107.285 360.323 104.404 367.716 98.575C375.163 92.7035 379.5 83.9699 379.5 72.6917H376.005C376.005 82.9818 372.096 90.671 365.552 95.8303C358.954 101.032 349.51 103.79 338.282 103.79V107.285ZM379.5 72.6917C379.5 60.8725 374.463 53.5113 367.464 48.713C360.606 44.0123 351.902 41.8023 344.626 39.9833L343.779 43.3741C351.163 45.2202 359.235 47.3097 365.487 51.5958C371.597 55.7842 376.005 62.097 376.005 72.6917H379.5ZM344.645 39.988C339.988 38.7701 336.033 37.7576 333.212 36.3884C330.417 35.0316 329.316 33.6197 329.316 31.8109H325.82C325.82 35.6407 328.455 37.9646 331.686 39.5328C334.892 41.0887 339.254 42.1908 343.76 43.3694L344.645 39.988ZM329.316 31.8109C329.316 30.1772 330.087 29.0042 331.425 28.1617C332.828 27.2773 334.838 26.7919 337.013 26.7919V23.2968C334.395 23.2968 331.682 23.8686 329.562 25.2045C327.375 26.5823 325.82 28.7926 325.82 31.8109H329.316ZM337.013 26.7919C339.55 26.7919 341.692 27.4597 343.164 28.6683C344.588 29.8368 345.556 31.646 345.556 34.3483H349.051C349.051 30.707 347.694 27.8643 345.382 25.9666C343.118 24.1092 340.115 23.2968 337.013 23.2968V26.7919ZM347.304 36.0959H374.652V32.6007H347.304V36.0959ZM376.399 34.3483C376.399 23.8514 372.823 15.2658 366.001 9.32961C359.212 3.42159 349.416 0.318909 337.295 0.318909V3.81405C348.856 3.81405 357.739 6.77302 363.707 11.9663C369.643 17.1313 372.904 24.6867 372.904 34.3483H376.399ZM337.295 0.318909C325.411 0.318909 315.601 3.16157 308.727 8.70617C301.802 14.2913 298.05 22.4643 298.05 32.6567H301.545C301.545 23.3954 304.912 16.2732 310.921 11.4267C316.98 6.53965 325.919 3.81405 337.295 3.81405V0.318909ZM298.05 32.6567C298.05 44.4521 302.89 51.6823 309.682 56.3361C316.317 60.8828 324.754 62.9172 331.8 64.6613L332.64 61.2685C325.448 59.4884 317.674 57.5757 311.657 53.4529C305.797 49.4371 301.545 43.2752 301.545 32.6567H298.05ZM331.814 64.6647C336.607 65.8093 340.689 66.7891 343.597 68.202C346.444 69.585 347.671 71.1246 347.671 73.2556H351.166C351.166 69.184 348.516 66.7061 345.125 65.0582C341.795 63.4403 337.278 62.376 332.626 61.2651L331.814 64.6647ZM347.671 73.2556C347.671 75.2548 346.672 76.8739 344.967 78.0584C343.229 79.2666 340.808 79.9662 338.282 79.9662V83.4613C341.394 83.4613 344.542 82.6103 346.962 80.9286C349.416 79.2232 351.166 76.6133 351.166 73.2556H347.671ZM338.282 79.9662C335.491 79.9662 332.985 79.1716 331.213 77.719C329.485 76.3021 328.329 74.163 328.329 71.1411H324.834C324.834 75.1676 326.427 78.3148 328.998 80.4221C331.525 82.4938 334.87 83.4613 338.282 83.4613V79.9662ZM326.581 69.3935H298.529V72.8887H326.581V69.3935ZM296.781 71.1411C296.781 82.3794 300.875 91.4866 308.232 97.7573C315.555 103.999 325.935 107.285 338.282 107.285V103.79C326.523 103.79 317.027 100.661 310.499 95.0974C304.005 89.562 300.276 81.471 300.276 71.1411H296.781ZM464.059 4.32198H465.806V2.5744H464.059V4.32198ZM383.143 4.32198V2.5744H381.395V4.32198H383.143ZM383.143 28.8505H381.395V30.5981H383.143V28.8505ZM409.927 28.8505H411.674V27.1029H409.927V28.8505ZM409.927 103H408.179V104.748H409.927V103ZM437.275 103V104.748H439.022V103H437.275ZM437.275 28.8505V27.1029H435.527V28.8505H437.275ZM464.059 28.8505V30.5981H465.806V28.8505H464.059ZM464.059 2.5744H383.143V6.06955H464.059V2.5744ZM381.395 4.32198V28.8505H384.89V4.32198H381.395ZM383.143 30.5981H409.927V27.1029H383.143V30.5981ZM408.179 28.8505V103H411.674V28.8505H408.179ZM409.927 104.748H437.275V101.252H409.927V104.748ZM439.022 103V28.8505H435.527V103H439.022ZM437.275 30.5981H464.059V27.1029H437.275V30.5981ZM465.806 28.8505V4.32198H462.311V28.8505H465.806ZM516.146 41.6787L515.703 43.3694L515.713 43.3718L515.722 43.3741L516.146 41.6787ZM519.247 34.3483H517.499V36.0959H519.247V34.3483ZM546.595 34.3483V36.0959H548.342V34.3483H546.595ZM504.163 62.9649L503.743 64.6613L503.75 64.663L503.757 64.6647L504.163 62.9649ZM498.524 71.1411H500.272V69.3935H498.524V71.1411ZM470.472 71.1411V69.3935H468.724V71.1411H470.472ZM510.225 107.285C521.975 107.285 532.266 104.404 539.659 98.575C547.106 92.7035 551.444 83.9699 551.444 72.6917H547.948C547.948 82.9818 544.039 90.671 537.495 95.8303C530.898 101.032 521.453 103.79 510.225 103.79V107.285ZM551.444 72.6917C551.444 60.8725 546.407 53.5113 539.407 48.713C532.549 44.0123 523.846 41.8023 516.569 39.9833L515.722 43.3741C523.106 45.2202 531.178 47.3097 537.431 51.5958C543.541 55.7842 547.948 62.097 547.948 72.6917H551.444ZM516.588 39.988C511.931 38.7701 507.976 37.7576 505.155 36.3884C502.36 35.0316 501.259 33.6197 501.259 31.8109H497.764C497.764 35.6407 500.398 37.9646 503.629 39.5328C506.835 41.0887 511.197 42.1908 515.703 43.3694L516.588 39.988ZM501.259 31.8109C501.259 30.1772 502.031 29.0042 503.368 28.1617C504.772 27.2773 506.781 26.7919 508.956 26.7919V23.2968C506.339 23.2968 503.625 23.8686 501.505 25.2045C499.318 26.5823 497.764 28.7926 497.764 31.8109H501.259ZM508.956 26.7919C511.493 26.7919 513.635 27.4597 515.107 28.6683C516.531 29.8368 517.499 31.646 517.499 34.3483H520.994C520.994 30.707 519.637 27.8643 517.325 25.9666C515.062 24.1092 512.058 23.2968 508.956 23.2968V26.7919ZM519.247 36.0959H546.595V32.6007H519.247V36.0959ZM548.342 34.3483C548.342 23.8514 544.767 15.2658 537.945 9.32961C531.155 3.42159 521.36 0.318909 509.238 0.318909V3.81405C520.799 3.81405 529.682 6.77302 535.65 11.9663C541.586 17.1313 544.847 24.6867 544.847 34.3483H548.342ZM509.238 0.318909C497.354 0.318909 487.544 3.16157 480.67 8.70617C473.745 14.2913 469.993 22.4643 469.993 32.6567H473.488C473.488 23.3954 476.855 16.2732 482.864 11.4267C488.923 6.53965 497.862 3.81405 509.238 3.81405V0.318909ZM469.993 32.6567C469.993 44.4521 474.833 51.6823 481.625 56.3361C488.26 60.8828 496.697 62.9172 503.743 64.6613L504.583 61.2685C497.391 59.4884 489.617 57.5757 483.6 53.4529C477.74 49.4371 473.488 43.2752 473.488 32.6567H469.993ZM503.757 64.6647C508.551 65.8093 512.633 66.7891 515.54 68.202C518.387 69.585 519.614 71.1246 519.614 73.2556H523.109C523.109 69.184 520.459 66.7061 517.068 65.0582C513.738 63.4403 509.221 62.376 504.569 61.2651L503.757 64.6647ZM519.614 73.2556C519.614 75.2548 518.615 76.8739 516.91 78.0584C515.172 79.2666 512.751 79.9662 510.225 79.9662V83.4613C513.338 83.4613 516.485 82.6103 518.905 80.9286C521.359 79.2232 523.109 76.6133 523.109 73.2556H519.614ZM510.225 79.9662C507.434 79.9662 504.929 79.1716 503.157 77.719C501.428 76.3021 500.272 74.163 500.272 71.1411H496.777C496.777 75.1676 498.37 78.3148 500.941 80.4221C503.468 82.4938 506.813 83.4613 510.225 83.4613V79.9662ZM498.524 69.3935H470.472V72.8887H498.524V69.3935ZM468.724 71.1411C468.724 82.3794 472.819 91.4866 480.175 97.7573C487.498 103.999 497.878 107.285 510.225 107.285V103.79C498.466 103.79 488.97 100.661 482.442 95.0974C475.949 89.562 472.219 81.471 472.219 71.1411H468.724Z" fill="url(#paint0_linear)"/>
<defs>
<linearGradient id="paint0_linear" x1="68.7543" y1="7.11736" x2="489.818" y2="102.527" gradientUnits="userSpaceOnUse">
<stop stop-color="#F62D2E"/>
<stop offset="0.523958" stop-color="#4173FC"/>
<stop offset="1" stop-color="#30F7FF"/>
</linearGradient>
</defs>
</svg>
