<svg width="558" height="180" viewBox="0 0 558 180" fill="none" xmlns="http://www.w3.org/2000/svg">
<path opacity="0.4" d="M55.3214 76.2777V74.5302H53.5738V76.2777H55.3214ZM55.3214 93.4759H53.5738V95.2235H55.3214V93.4759ZM79.8499 93.4759L81.4684 94.1353L82.449 91.7283H79.8499V93.4759ZM79.8499 66.9738L78.2409 67.6556L78.6925 68.7214H79.8499V66.9738ZM108.467 66.9738V68.7214H110.567L110.185 66.6556L108.467 66.9738ZM109.453 76.2777H111.201V74.5302H109.453V76.2777ZM53.5738 76.2777V93.4759H57.069V76.2777H53.5738ZM55.3214 95.2235H79.8499V91.7283H55.3214V95.2235ZM78.2315 92.8166C75.4739 99.5852 67.3815 104.416 57.4359 104.416V107.911C68.3537 107.911 78.0233 102.591 81.4684 94.1353L78.2315 92.8166ZM57.4359 104.416C50.4028 104.416 44.7163 101.906 40.7788 97.6618C36.8294 93.4048 34.514 87.2648 34.514 79.802H31.0189C31.0189 87.9866 33.5669 95.0272 38.2165 100.039C42.8781 105.063 49.5264 107.911 57.4359 107.911V104.416ZM34.514 79.802C34.514 72.2714 36.863 66.0953 40.8315 61.819C44.7891 57.5545 50.4771 55.0474 57.4359 55.0474V51.5523C49.5931 51.5523 42.9463 54.4021 38.2696 59.4415C33.6038 64.4691 31.0189 71.544 31.0189 79.802H34.514ZM57.4359 55.0474C66.8541 55.0474 75.0313 60.0811 78.2409 67.6556L81.459 66.292C77.6202 57.2323 68.0353 51.5523 57.4359 51.5523V55.0474ZM79.8499 68.7214H108.467V65.2262H79.8499V68.7214ZM110.185 66.6556C105.78 42.8675 83.8032 26.1779 57.154 26.1779V29.6731C82.3812 29.6731 102.695 45.4063 106.748 67.292L110.185 66.6556ZM57.154 26.1779C25.8932 26.1779 3.10707 48.798 3.10707 79.802H6.60222C6.60222 50.7533 27.7983 29.6731 57.154 29.6731V26.1779ZM3.10707 79.802C3.10707 110.828 26.3381 133.285 57.4359 133.285V129.79C28.1992 129.79 6.60222 108.829 6.60222 79.802H3.10707ZM57.4359 133.285C73.3263 133.285 86.8027 127.361 96.2981 117.207C105.785 107.062 111.201 92.8022 111.201 76.2777H107.706C107.706 92.0351 102.549 105.405 93.7453 114.82C84.95 124.225 72.4177 129.79 57.4359 129.79V133.285ZM109.453 74.5302H55.3214V78.0253H109.453V74.5302ZM208.235 30.322H209.982V28.5744H208.235V30.322ZM180.464 30.322V28.5744H178.717V30.322H180.464ZM149.874 30.322H151.621V28.5744H149.874V30.322ZM122.103 30.322V28.5744H120.355V30.322H122.103ZM165.098 133.285C178.094 133.285 189.324 129.07 197.321 121.608C205.329 114.137 209.982 103.513 209.982 90.9385H206.487C206.487 102.611 202.189 112.286 194.937 119.053C187.675 125.829 177.336 129.79 165.098 129.79V133.285ZM209.982 90.9385V30.322H206.487V90.9385H209.982ZM208.235 28.5744H180.464V32.0695H208.235V28.5744ZM178.717 30.322V90.3746H182.212V30.322H178.717ZM178.717 90.3746C178.717 94.8615 177.293 98.3796 174.966 100.767C172.642 103.152 169.275 104.556 165.098 104.556V108.052C170.085 108.052 174.401 106.355 177.469 103.207C180.534 100.061 182.212 95.6146 182.212 90.3746H178.717ZM165.098 104.556C161 104.556 157.668 103.156 155.359 100.771C153.046 98.3824 151.621 94.8617 151.621 90.3746H148.126C148.126 95.6144 149.803 100.058 152.847 103.202C155.895 106.35 160.175 108.052 165.098 108.052V104.556ZM151.621 90.3746V30.322H148.126V90.3746H151.621ZM149.874 28.5744H122.103V32.0695H149.874V28.5744ZM120.355 30.322V90.9385H123.851V30.322H120.355ZM120.355 90.9385C120.355 103.513 125.008 114.136 132.997 121.607C140.976 129.068 152.171 133.285 165.098 133.285V129.79C152.933 129.79 142.631 125.83 135.385 119.054C128.149 112.287 123.851 102.611 123.851 90.9385H120.355ZM253.404 105.458H251.657V107.206H253.404V105.458ZM253.404 90.6565V88.909H251.657V90.6565H253.404ZM285.827 90.6565V92.4041H287.575V90.6565H285.827ZM285.827 68.3835H287.575V66.6359H285.827V68.3835ZM253.404 68.3835H251.657V70.1311H253.404V68.3835ZM253.404 53.8637V52.1162H251.657V53.8637H253.404ZM289.492 53.8637V55.6113H291.24V53.8637H289.492ZM289.492 30.322H291.24V28.5744H289.492V30.322ZM226.338 30.322V28.5744H224.591V30.322H226.338ZM226.338 129H224.591V130.748H226.338V129ZM290.761 129V130.748H292.509V129H290.761ZM290.761 105.458H292.509V103.711H290.761V105.458ZM255.152 105.458V90.6565H251.657V105.458H255.152ZM253.404 92.4041H285.827V88.909H253.404V92.4041ZM287.575 90.6565V68.3835H284.079V90.6565H287.575ZM285.827 66.6359H253.404V70.1311H285.827V66.6359ZM255.152 68.3835V53.8637H251.657V68.3835H255.152ZM253.404 55.6113H289.492V52.1162H253.404V55.6113ZM291.24 53.8637V30.322H287.745V53.8637H291.24ZM289.492 28.5744H226.338V32.0695H289.492V28.5744ZM224.591 30.322V129H228.086V30.322H224.591ZM226.338 130.748H290.761V127.252H226.338V130.748ZM292.509 129V105.458H289.013V129H292.509ZM290.761 103.711H253.404V107.206H290.761V103.711ZM347.202 67.6787L346.76 69.3694L346.769 69.3718L346.779 69.3741L347.202 67.6787ZM350.304 60.3483H348.556V62.0959H350.304V60.3483ZM377.652 60.3483V62.0959H379.399V60.3483H377.652ZM335.22 88.9649L334.8 90.6613L334.807 90.663L334.814 90.6647L335.22 88.9649ZM329.581 97.1411H331.329V95.3935H329.581V97.1411ZM301.529 97.1411V95.3935H299.781V97.1411H301.529ZM341.282 133.285C353.031 133.285 363.323 130.404 370.716 124.575C378.163 118.704 382.5 109.97 382.5 98.6917H379.005C379.005 108.982 375.096 116.671 368.552 121.83C361.954 127.032 352.51 129.79 341.282 129.79V133.285ZM382.5 98.6917C382.5 86.8725 377.463 79.5113 370.464 74.713C363.606 70.0123 354.902 67.8023 347.626 65.9833L346.779 69.3741C354.163 71.2202 362.235 73.3097 368.487 77.5958C374.597 81.7842 379.005 88.097 379.005 98.6917H382.5ZM347.645 65.988C342.988 64.7701 339.033 63.7576 336.212 62.3884C333.417 61.0316 332.316 59.6197 332.316 57.8109H328.82C328.82 61.6407 331.455 63.9646 334.686 65.5328C337.892 67.0887 342.254 68.1908 346.76 69.3694L347.645 65.988ZM332.316 57.8109C332.316 56.1772 333.087 55.0042 334.425 54.1617C335.828 53.2773 337.838 52.7919 340.013 52.7919V49.2968C337.395 49.2968 334.682 49.8686 332.562 51.2045C330.375 52.5823 328.82 54.7926 328.82 57.8109H332.316ZM340.013 52.7919C342.55 52.7919 344.692 53.4597 346.164 54.6683C347.588 55.8368 348.556 57.646 348.556 60.3483H352.051C352.051 56.707 350.694 53.8643 348.382 51.9666C346.118 50.1092 343.115 49.2968 340.013 49.2968V52.7919ZM350.304 62.0959H377.652V58.6007H350.304V62.0959ZM379.399 60.3483C379.399 49.8514 375.823 41.2658 369.001 35.3296C362.212 29.4216 352.416 26.3189 340.295 26.3189V29.8141C351.856 29.8141 360.739 32.773 366.707 37.9663C372.643 43.1313 375.904 50.6867 375.904 60.3483H379.399ZM340.295 26.3189C328.411 26.3189 318.601 29.1616 311.727 34.7062C304.802 40.2913 301.05 48.4643 301.05 58.6567H304.545C304.545 49.3954 307.912 42.2732 313.921 37.4267C319.98 32.5396 328.919 29.8141 340.295 29.8141V26.3189ZM301.05 58.6567C301.05 70.4521 305.89 77.6823 312.682 82.3361C319.317 86.8828 327.754 88.9172 334.8 90.6613L335.64 87.2685C328.448 85.4884 320.674 83.5757 314.657 79.4529C308.797 75.4371 304.545 69.2752 304.545 58.6567H301.05ZM334.814 90.6647C339.607 91.8093 343.689 92.7891 346.597 94.202C349.444 95.585 350.671 97.1246 350.671 99.2556H354.166C354.166 95.184 351.516 92.7061 348.125 91.0582C344.795 89.4403 340.278 88.376 335.626 87.2651L334.814 90.6647ZM350.671 99.2556C350.671 101.255 349.672 102.874 347.967 104.058C346.229 105.267 343.808 105.966 341.282 105.966V109.461C344.394 109.461 347.542 108.61 349.962 106.929C352.416 105.223 354.166 102.613 354.166 99.2556H350.671ZM341.282 105.966C338.491 105.966 335.985 105.172 334.213 103.719C332.485 102.302 331.329 100.163 331.329 97.1411H327.834C327.834 101.168 329.427 104.315 331.998 106.422C334.525 108.494 337.87 109.461 341.282 109.461V105.966ZM329.581 95.3935H301.529V98.8887H329.581V95.3935ZM299.781 97.1411C299.781 108.379 303.875 117.487 311.232 123.757C318.555 129.999 328.935 133.285 341.282 133.285V129.79C329.523 129.79 320.027 126.661 313.499 121.097C307.005 115.562 303.276 107.471 303.276 97.1411H299.781ZM467.059 30.322H468.806V28.5744H467.059V30.322ZM386.143 30.322V28.5744H384.395V30.322H386.143ZM386.143 54.8505H384.395V56.5981H386.143V54.8505ZM412.927 54.8505H414.674V53.1029H412.927V54.8505ZM412.927 129H411.179V130.748H412.927V129ZM440.275 129V130.748H442.022V129H440.275ZM440.275 54.8505V53.1029H438.527V54.8505H440.275ZM467.059 54.8505V56.5981H468.806V54.8505H467.059ZM467.059 28.5744H386.143V32.0695H467.059V28.5744ZM384.395 30.322V54.8505H387.89V30.322H384.395ZM386.143 56.5981H412.927V53.1029H386.143V56.5981ZM411.179 54.8505V129H414.674V54.8505H411.179ZM412.927 130.748H440.275V127.252H412.927V130.748ZM442.022 129V54.8505H438.527V129H442.022ZM440.275 56.5981H467.059V53.1029H440.275V56.5981ZM468.806 54.8505V30.322H465.311V54.8505H468.806ZM519.146 67.6787L518.703 69.3694L518.713 69.3718L518.722 69.3741L519.146 67.6787ZM522.247 60.3483H520.499V62.0959H522.247V60.3483ZM549.595 60.3483V62.0959H551.342V60.3483H549.595ZM507.163 88.9649L506.743 90.6613L506.75 90.663L506.757 90.6647L507.163 88.9649ZM501.524 97.1411H503.272V95.3935H501.524V97.1411ZM473.472 97.1411V95.3935H471.724V97.1411H473.472ZM513.225 133.285C524.975 133.285 535.266 130.404 542.659 124.575C550.106 118.704 554.444 109.97 554.444 98.6917H550.948C550.948 108.982 547.039 116.671 540.495 121.83C533.898 127.032 524.453 129.79 513.225 129.79V133.285ZM554.444 98.6917C554.444 86.8725 549.407 79.5113 542.407 74.713C535.549 70.0123 526.846 67.8023 519.569 65.9833L518.722 69.3741C526.106 71.2202 534.178 73.3097 540.431 77.5958C546.541 81.7842 550.948 88.097 550.948 98.6917H554.444ZM519.588 65.988C514.931 64.7701 510.976 63.7576 508.155 62.3884C505.36 61.0316 504.259 59.6197 504.259 57.8109H500.764C500.764 61.6407 503.398 63.9646 506.629 65.5328C509.835 67.0887 514.197 68.1908 518.703 69.3694L519.588 65.988ZM504.259 57.8109C504.259 56.1772 505.031 55.0042 506.368 54.1617C507.772 53.2773 509.781 52.7919 511.956 52.7919V49.2968C509.339 49.2968 506.625 49.8686 504.505 51.2045C502.318 52.5823 500.764 54.7926 500.764 57.8109H504.259ZM511.956 52.7919C514.493 52.7919 516.635 53.4597 518.107 54.6683C519.531 55.8368 520.499 57.646 520.499 60.3483H523.994C523.994 56.707 522.637 53.8643 520.325 51.9666C518.062 50.1092 515.058 49.2968 511.956 49.2968V52.7919ZM522.247 62.0959H549.595V58.6007H522.247V62.0959ZM551.342 60.3483C551.342 49.8514 547.767 41.2658 540.945 35.3296C534.155 29.4216 524.36 26.3189 512.238 26.3189V29.8141C523.799 29.8141 532.682 32.773 538.65 37.9663C544.586 43.1313 547.847 50.6867 547.847 60.3483H551.342ZM512.238 26.3189C500.354 26.3189 490.544 29.1616 483.67 34.7062C476.745 40.2913 472.993 48.4643 472.993 58.6567H476.488C476.488 49.3954 479.855 42.2732 485.864 37.4267C491.923 32.5396 500.862 29.8141 512.238 29.8141V26.3189ZM472.993 58.6567C472.993 70.4521 477.833 77.6823 484.625 82.3361C491.26 86.8828 499.697 88.9172 506.743 90.6613L507.583 87.2685C500.391 85.4884 492.617 83.5757 486.6 79.4529C480.74 75.4371 476.488 69.2752 476.488 58.6567H472.993ZM506.757 90.6647C511.551 91.8093 515.633 92.7891 518.54 94.202C521.387 95.585 522.614 97.1246 522.614 99.2556H526.109C526.109 95.184 523.459 92.7061 520.068 91.0582C516.738 89.4403 512.221 88.376 507.569 87.2651L506.757 90.6647ZM522.614 99.2556C522.614 101.255 521.615 102.874 519.91 104.058C518.172 105.267 515.751 105.966 513.225 105.966V109.461C516.338 109.461 519.485 108.61 521.905 106.929C524.359 105.223 526.109 102.613 526.109 99.2556H522.614ZM513.225 105.966C510.434 105.966 507.929 105.172 506.157 103.719C504.428 102.302 503.272 100.163 503.272 97.1411H499.777C499.777 101.168 501.37 104.315 503.941 106.422C506.468 108.494 509.813 109.461 513.225 109.461V105.966ZM501.524 95.3935H473.472V98.8887H501.524V95.3935ZM471.724 97.1411C471.724 108.379 475.819 117.487 483.175 123.757C490.498 129.999 500.878 133.285 513.225 133.285V129.79C501.466 129.79 491.97 126.661 485.442 121.097C478.949 115.562 475.219 107.471 475.219 97.1411H471.724Z" fill="url(#paint0_linear)"/>
<path d="M181.961 66.2116V73.9715H193.028C191.629 77.4061 187.622 79.6959 182.915 79.6959C176.173 79.6959 171.784 74.8619 171.784 67.8017C171.784 60.6779 176.237 55.8439 182.915 55.8439C187.431 55.8439 191.438 58.2609 193.028 62.0136H205.94C204.032 51.7096 194.491 44.395 182.788 44.395C169.113 44.395 159.19 54.2538 159.19 67.8017C159.19 81.3497 169.304 91.1449 182.915 91.1449C196.845 91.1449 206.386 80.7772 206.386 66.2116H181.961ZM231.493 91.1449C242.878 91.1449 250.956 83.7667 250.956 72.8266V45.4763H238.426V72.5721C238.426 76.9609 235.627 79.7595 231.493 79.7595C227.422 79.7595 224.623 76.9609 224.623 72.5721V45.4763H212.093V72.8266C212.093 83.7667 220.171 91.1449 231.493 91.1449ZM271.337 79.3779V72.6993H285.966V62.6497H271.337V56.0983H287.62V45.4763H259.124V90H288.192V79.3779H271.337ZM310.987 91.1449C321.355 91.1449 328.797 86.0565 328.797 76.3249C328.797 66.2116 320.273 63.9854 313.658 62.3317C309.524 61.2504 306.153 60.4235 306.153 57.8793C306.153 55.7803 308.252 54.8262 310.415 54.8262C312.959 54.8262 315.058 56.162 315.058 59.0242H327.397C327.397 49.9286 321.228 44.4586 310.542 44.4586C300.047 44.4586 293.623 49.4834 293.623 58.2609C293.623 68.3742 301.828 70.3459 308.252 71.9361C312.514 72.9538 316.012 73.7806 316.012 76.5793C316.012 78.9963 313.531 80.3956 310.987 80.3956C308.188 80.3956 305.708 78.8055 305.708 75.6252H293.05C293.05 85.3568 300.111 91.1449 310.987 91.1449ZM367.738 45.4763H331.228V56.5436H343.314V90H355.653V56.5436H367.738V45.4763ZM388.568 91.1449C398.936 91.1449 406.378 86.0565 406.378 76.3249C406.378 66.2116 397.855 63.9854 391.24 62.3317C387.105 61.2504 383.734 60.4235 383.734 57.8793C383.734 55.7803 385.833 54.8262 387.996 54.8262C390.54 54.8262 392.639 56.162 392.639 59.0242H404.978C404.978 49.9286 398.809 44.4586 388.123 44.4586C377.628 44.4586 371.204 49.4834 371.204 58.2609C371.204 68.3742 379.409 70.3459 385.833 71.9361C390.095 72.9538 393.593 73.7806 393.593 76.5793C393.593 78.9963 391.112 80.3956 388.568 80.3956C385.77 80.3956 383.289 78.8055 383.289 75.6252H370.631C370.631 85.3568 377.692 91.1449 388.568 91.1449Z" fill="white"/>
<defs>
<linearGradient id="paint0_linear" x1="278.738" y1="0" x2="278.738" y2="180" gradientUnits="userSpaceOnUse">
<stop stop-color="#ADADAD"/>
<stop offset="0.827778" stop-color="#ADADAD" stop-opacity="0"/>
</linearGradient>
</defs>
</svg>
