<svg width="234" height="234" viewBox="0 0 234 234" fill="none" xmlns="http://www.w3.org/2000/svg">
<g clip-path="url(#clip0)">
<path fill-rule="evenodd" clip-rule="evenodd" d="M50.2378 101.818L156.582 84.3152C156.456 81.9323 157.363 79.5143 159.269 77.7866C162.631 74.7381 167.828 74.9925 170.876 78.3549C173.925 81.7172 173.67 86.9142 170.308 89.9627C168.047 92.013 164.955 92.5692 162.246 91.6906L117.248 191.83C118.155 192.275 118.994 192.895 119.714 193.689C122.763 197.051 122.508 202.248 119.146 205.297C115.784 208.345 110.587 208.091 107.538 204.729C104.6 201.489 104.73 196.545 107.752 193.462L46.588 111.022C43.2877 113.036 38.9184 112.491 36.2256 109.521C33.1771 106.159 33.4315 100.962 36.7939 97.9135C40.1562 94.865 45.3532 95.1195 48.4017 98.4818C49.2969 99.4692 49.9073 100.615 50.2378 101.818ZM158.7 89.3944C158.919 89.6353 159.148 89.8603 159.387 90.0693L123.37 140.066C120.375 138.394 116.526 138.724 113.845 141.156C113.261 141.685 112.77 142.279 112.375 142.917L49.8472 107.289C50.3822 106.062 50.6051 104.726 50.5102 103.406L156.825 85.9083C157.145 87.166 157.768 88.366 158.7 89.3944ZM111.665 144.367L49.0609 108.696C48.723 109.18 48.3275 109.636 47.8747 110.052L108.988 192.424C110.256 191.555 111.705 191.084 113.168 191.004L117.264 155.189C115.778 154.798 114.385 153.986 113.276 152.763C111.141 150.408 110.626 147.154 111.665 144.367ZM118.857 155.446L114.782 191.073C115.103 191.118 115.421 191.182 115.736 191.265L160.769 91.0451C160.746 91.0319 160.722 91.0186 160.699 91.0053L124.693 140.986C124.958 141.213 125.212 141.459 125.452 141.724C128.501 145.086 128.246 150.283 124.884 153.332C123.175 154.881 120.991 155.578 118.857 155.446Z" fill="url(#paint0_linear)"/>
</g>
<defs>
<linearGradient id="paint0_linear" x1="165.411" y1="72.3265" x2="67.7635" y2="160.859" gradientUnits="userSpaceOnUse">
<stop stop-color="#F52D2E"/>
<stop offset="0.544792" stop-color="#FF048B"/>
<stop offset="1" stop-color="#33D3FF"/>
</linearGradient>
<clipPath id="clip0">
<rect width="165" height="165" fill="white" transform="translate(122.238) rotate(47.8029)"/>
</clipPath>
</defs>
</svg>
