<svg width="94" height="90" viewBox="0 0 94 90" fill="none" xmlns="http://www.w3.org/2000/svg">
<path d="M23.6219 89.464C16.1339 89.464 10.2779 86.392 6.05388 80.248C2.40588 75.256 0.581875 68.44 0.581875 59.8C0.581875 47.896 3.55788 36.664 9.50988 26.104C15.4619 15.352 22.6619 6.904 31.1099 0.759995L35.1419 5.36799C28.0379 10.744 22.1819 17.272 17.5739 24.952C13.1579 32.632 10.9499 40.312 10.9499 47.992C10.9499 50.104 11.3339 51.832 12.1019 53.176C12.8699 54.328 14.2139 55.48 16.1339 56.632C17.4779 57.4 20.7419 57.784 25.9259 57.784C30.1499 57.784 33.6059 59.32 36.2939 62.392C38.9819 65.272 40.3259 68.728 40.3259 72.76C40.3259 77.944 38.5979 82.072 35.1419 85.144C31.6859 88.024 27.8459 89.464 23.6219 89.464ZM77.1899 89.464C69.7019 89.464 63.8459 86.392 59.6219 80.248C55.9739 75.256 54.1499 68.44 54.1499 59.8C54.1499 47.896 57.1259 36.664 63.0779 26.104C69.0299 15.352 76.2299 6.904 84.6779 0.759995L88.7099 5.36799C81.6059 10.744 75.7499 17.272 71.1419 24.952C66.7259 32.632 64.5179 40.312 64.5179 47.992C64.5179 50.104 64.9019 51.832 65.6699 53.176C66.4379 54.328 67.7819 55.48 69.7019 56.632C71.0459 57.4 74.3099 57.784 79.4939 57.784C83.7179 57.784 87.1739 59.32 89.8619 62.392C92.5499 65.272 93.8939 68.728 93.8939 72.76C93.8939 77.944 92.1659 82.072 88.7099 85.144C85.2539 88.024 81.4139 89.464 77.1899 89.464Z" fill="white" fill-opacity="0.22"/>
</svg>
