<svg width="94" height="90" viewBox="0 0 94 90" fill="none" xmlns="http://www.w3.org/2000/svg">
<path d="M70.3781 0.536006C77.8661 0.536006 83.7221 3.60801 87.9461 9.75201C91.5941 14.744 93.4181 21.56 93.4181 30.2C93.4181 42.104 90.4421 53.336 84.4901 63.896C78.5381 74.648 71.3381 83.096 62.8901 89.24L58.8581 84.632C65.9621 79.256 71.8181 72.728 76.4261 65.048C80.8421 57.368 83.0501 49.688 83.0501 42.008C83.0501 39.896 82.6661 38.168 81.8981 36.824C81.1301 35.672 79.7861 34.52 77.8661 33.368C76.5221 32.6 73.2581 32.216 68.0741 32.216C63.8501 32.216 60.3941 30.68 57.7061 27.608C55.0181 24.728 53.6741 21.272 53.6741 17.24C53.6741 12.056 55.4021 7.928 58.8581 4.856C62.3141 1.976 66.1541 0.536006 70.3781 0.536006ZM16.8101 0.536006C24.2981 0.536006 30.1541 3.60801 34.3781 9.75201C38.0261 14.744 39.8501 21.56 39.8501 30.2C39.8501 42.104 36.8741 53.336 30.9221 63.896C24.9701 74.648 17.7701 83.096 9.32212 89.24L5.29012 84.632C12.3941 79.256 18.2501 72.728 22.8581 65.048C27.2741 57.368 29.4821 49.688 29.4821 42.008C29.4821 39.896 29.0981 38.168 28.3301 36.824C27.5621 35.672 26.2181 34.52 24.2981 33.368C22.9541 32.6 19.6901 32.216 14.5061 32.216C10.2821 32.216 6.82612 30.68 4.13812 27.608C1.45012 24.728 0.106118 21.272 0.106118 17.24C0.106118 12.056 1.83412 7.928 5.29012 4.856C8.74612 1.976 12.5861 0.536006 16.8101 0.536006Z" fill="white" fill-opacity="0.22"/>
</svg>
