<svg width="507" height="346" viewBox="0 0 507 346" fill="none" xmlns="http://www.w3.org/2000/svg">
<path d="M247.391 118L246.822 118.303L247.004 118.645H247.391V118ZM280.296 118V118.645H281.384L280.862 117.691L280.296 118ZM259.023 79.1257L258.693 78.5717L258.159 78.8894L258.457 79.4351L259.023 79.1257ZM189.692 10.8661V10.2216H189.047V10.8661H189.692ZM189.692 118H189.047V118.645H189.692V118ZM219.23 118V118.645H219.875V118H219.23ZM219.23 85.2477V84.6032H218.586V85.2477H219.23ZM229.943 85.2477L230.512 84.9447L230.33 84.6032H229.943V85.2477ZM219.23 37.1904V36.5459H218.586V37.1904H219.23ZM219.23 60.4538H218.586V61.0983H219.23V60.4538ZM247.391 118.645H280.296V117.356H247.391V118.645ZM280.862 117.691L259.588 78.8163L258.457 79.4351L279.731 118.309L280.862 117.691ZM259.352 79.6798C270.108 73.2886 276.656 62.2115 276.656 48.8221H275.367C275.367 61.7571 269.058 72.4129 258.693 78.5717L259.352 79.6798ZM276.656 48.8221C276.656 26.0878 259.497 10.2216 236.218 10.2216V11.5106C258.854 11.5106 275.367 26.8662 275.367 48.8221H276.656ZM236.218 10.2216H189.692V11.5106H236.218V10.2216ZM189.047 10.8661V118H190.336V10.8661H189.047ZM189.692 118.645H219.23V117.356H189.692V118.645ZM219.875 118V85.2477H218.586V118H219.875ZM219.23 85.8922H229.943V84.6032H219.23V85.8922ZM229.375 85.5507L246.822 118.303L247.96 117.697L230.512 84.9447L229.375 85.5507ZM219.23 37.8349H232.698V36.5459H219.23V37.8349ZM232.698 37.8349C236.704 37.8349 239.787 39.0198 241.863 40.9527C243.936 42.8826 245.063 45.6118 245.063 48.8221H246.352C246.352 45.2983 245.107 42.2117 242.741 40.0093C240.379 37.8098 236.958 36.5459 232.698 36.5459V37.8349ZM245.063 48.8221C245.063 51.9529 243.938 54.6846 241.861 56.6362C239.782 58.5893 236.698 59.8093 232.698 59.8093V61.0983C236.963 61.0983 240.384 59.793 242.743 57.5756C245.105 55.3566 246.352 52.2724 246.352 48.8221H245.063ZM232.698 59.8093H219.23V61.0983H232.698V59.8093ZM219.875 60.4538V37.1904H218.586V60.4538H219.875ZM291.895 25.0996H291.25V25.7441H291.895V25.0996ZM320.056 25.0996V25.7441H320.7V25.0996H320.056ZM320.056 0.917922H320.7V0.273426H320.056V0.917922ZM291.895 0.917922V0.273426H291.25V0.917922H291.895ZM291.742 118H291.097V118.645H291.742V118ZM320.209 118V118.645H320.853V118H320.209ZM320.209 35.3538H320.853V34.7094H320.209V35.3538ZM291.742 35.3538V34.7094H291.097V35.3538H291.742ZM291.895 25.7441H320.056V24.4551H291.895V25.7441ZM320.7 25.0996V0.917922H319.411V25.0996H320.7ZM320.056 0.273426H291.895V1.56242H320.056V0.273426ZM291.25 0.917922V25.0996H292.539V0.917922H291.25ZM291.742 118.645H320.209V117.356H291.742V118.645ZM320.853 118V35.3538H319.564V118H320.853ZM320.209 34.7094H291.742V35.9983H320.209V34.7094ZM291.097 35.3538V118H292.386V35.3538H291.097ZM376.031 66.2697L375.919 66.9043L375.92 66.9046L376.031 66.2697ZM378.173 60.6069H377.529V61.2514H378.173V60.6069ZM404.957 60.6069V61.2514H405.613L405.601 60.595L404.957 60.6069ZM364.399 86.0129L364.293 86.6487L364.301 86.6499L364.399 86.0129ZM360.879 90.9105H361.523V90.266H360.879V90.9105ZM333.483 90.9105V90.266H332.828L332.839 90.9215L333.483 90.9105ZM369.909 121.399C381.032 121.399 390.328 118.542 396.86 113.438C403.405 108.323 407.132 100.981 407.132 92.1349H405.843C405.843 100.583 402.3 107.551 396.066 112.422C389.817 117.305 380.824 120.11 369.909 120.11V121.399ZM407.132 92.1349C407.132 86.8399 406.031 82.6514 404.14 79.3171C402.249 75.9823 399.588 73.5399 396.526 71.7049C390.434 68.0537 382.69 66.7769 376.141 65.6347L375.92 66.9046C382.534 68.0581 390.018 69.3066 395.864 72.8105C398.771 74.5529 401.256 76.8455 403.019 79.9531C404.782 83.0611 405.843 87.0225 405.843 92.1349H407.132ZM376.143 65.635C372.219 64.9425 368.776 64.3024 366.31 63.2827C365.083 62.7752 364.151 62.1941 363.53 61.5103C362.924 60.8431 362.595 60.0589 362.595 59.0764H361.306C361.306 60.3896 361.761 61.4802 362.576 62.377C363.375 63.2572 364.5 63.9291 365.817 64.4739C368.44 65.5585 372.037 66.2194 375.919 66.9043L376.143 65.635ZM362.595 59.0764C362.595 57.3533 363.275 56.0127 364.453 55.0873C365.648 54.1486 367.406 53.5989 369.603 53.5989V52.3099C367.207 52.3099 365.14 52.9081 363.656 54.0738C362.156 55.2529 361.306 56.9732 361.306 59.0764H362.595ZM369.603 53.5989C372.034 53.5989 374.011 54.1891 375.369 55.3239C376.709 56.4435 377.529 58.1614 377.529 60.6069H378.818C378.818 57.8487 377.878 55.7404 376.195 54.3347C374.531 52.9441 372.222 52.3099 369.603 52.3099V53.5989ZM378.173 61.2514H404.957V59.9624H378.173V61.2514ZM405.601 60.595C405.445 52.064 401.837 44.9195 395.583 39.9202C389.341 34.9299 380.502 32.1075 369.909 32.1075V33.3965C380.283 33.3965 388.816 36.1605 394.778 40.927C400.73 45.6846 404.163 52.4674 404.312 60.6187L405.601 60.595ZM369.909 32.1075C359.247 32.1075 350.259 34.8111 343.92 39.6631C337.566 44.5267 333.91 51.5247 333.91 59.9947H335.199C335.199 51.9354 338.66 45.3121 344.703 40.6867C350.761 36.0496 359.45 33.3965 369.909 33.3965V32.1075ZM333.91 59.9947C333.91 70.2469 338.276 76.4174 344.309 80.2623C350.287 84.0718 357.871 85.5784 364.293 86.6486L364.505 85.3772C358.071 84.3048 350.732 82.8269 345.002 79.1753C339.327 75.559 335.199 69.7917 335.199 59.9947H333.91ZM364.301 86.6499C368.292 87.2639 371.771 87.9053 374.248 88.9591C375.481 89.4836 376.418 90.091 377.042 90.8061C377.654 91.5061 377.988 92.3318 377.988 93.3592H379.277C379.277 92.0145 378.827 90.8888 378.013 89.9579C377.213 89.042 376.083 88.339 374.753 87.773C372.103 86.6459 368.464 85.9863 364.497 85.3759L364.301 86.6499ZM377.988 93.3592C377.988 95.2725 377.112 96.6916 375.754 97.6545C374.375 98.6315 372.487 99.1428 370.521 99.1428V100.432C372.688 100.432 374.855 99.8717 376.499 98.7061C378.163 97.5262 379.277 95.7314 379.277 93.3592H377.988ZM370.521 99.1428C367.944 99.1428 365.696 98.4795 364.104 97.1499C362.53 95.8351 361.523 93.808 361.523 90.9105H360.234C360.234 94.1349 361.371 96.5462 363.278 98.1393C365.168 99.7176 367.741 100.432 370.521 100.432V99.1428ZM360.879 90.266H333.483V91.555H360.879V90.266ZM332.839 90.9215C332.995 100.047 336.55 107.691 342.961 113.042C349.361 118.386 358.55 121.399 369.909 121.399V120.11C358.769 120.11 349.899 117.155 343.787 112.053C337.686 106.959 334.278 99.6803 334.128 90.8995L332.839 90.9215ZM503.242 90.1452L503.857 90.3355L504.115 89.5007H503.242V90.1452ZM474.775 90.1452V89.5007H474.387L474.205 89.8429L474.775 90.1452ZM443.093 83.5641V82.9196H442.312L442.461 83.6866L443.093 83.5641ZM504.466 83.5641V84.2086H505.039L505.106 83.6394L504.466 83.5641ZM476.917 67.8001V68.4446H477.78L477.535 67.617L476.917 67.8001ZM443.553 67.8001L442.932 67.6276L442.705 68.4446H443.553V67.8001ZM505.57 75.9117C505.57 51.3623 486.903 32.1075 459.929 32.1075V33.3965C486.215 33.3965 504.281 52.0978 504.281 75.9117H505.57ZM459.929 32.1075C433.565 32.1075 414.441 51.0577 414.441 76.677H415.73C415.73 51.7902 434.256 33.3965 459.929 33.3965V32.1075ZM414.441 76.677C414.441 102.295 433.716 121.399 459.929 121.399V120.11C434.411 120.11 415.73 101.565 415.73 76.677H414.441ZM459.929 121.399C480.85 121.399 497.951 109.452 503.857 90.3355L502.626 89.955C496.9 108.488 480.331 120.11 459.929 120.11V121.399ZM503.242 89.5007H474.775V90.7897H503.242V89.5007ZM474.205 89.8429C471.742 94.4796 466.334 97.3062 459.929 97.3062V98.5952C466.685 98.5952 472.603 95.606 475.344 90.4476L474.205 89.8429ZM459.929 97.3062C455.533 97.3062 451.941 96.1161 449.23 93.8237C446.517 91.5298 444.624 88.0787 443.726 83.4417L442.461 83.6866C443.4 88.5386 445.409 92.2808 448.397 94.8079C451.388 97.3365 455.295 98.5952 459.929 98.5952V97.3062ZM443.093 84.2086H504.466V82.9196H443.093V84.2086ZM505.106 83.6394C505.415 81.0143 505.57 78.5404 505.57 75.9117H504.281C504.281 78.4867 504.129 80.9103 503.826 83.4888L505.106 83.6394ZM459.929 55.7416C464.101 55.7416 467.594 56.8203 470.333 58.8658C473.073 60.9113 475.107 63.9597 476.299 67.9832L477.535 67.617C476.279 63.3759 474.104 60.0729 471.104 57.833C468.104 55.5931 464.328 54.4526 459.929 54.4526V55.7416ZM476.917 67.1556H443.553V68.4446H476.917V67.1556ZM444.174 67.9726C445.291 63.9484 447.252 60.9019 449.896 58.8594C452.54 56.8177 455.915 55.7416 459.929 55.7416V54.4526C455.678 54.4526 452.013 55.5958 449.108 57.8393C446.205 60.0822 444.11 63.3872 442.932 67.6276L444.174 67.9726ZM86.7331 226L86.1222 226.205L86.2699 226.645H86.7331V226ZM119.332 226V226.645H120.286L119.931 225.76L119.332 226ZM76.3258 118.866L76.9239 118.626L76.7616 118.222H76.3258V118.866ZM47.3996 118.866V118.222H46.9604L46.7998 118.63L47.3996 118.866ZM5.31128 226L4.71141 225.764L4.36563 226.645H5.31128V226ZM36.9923 226V226.645H37.4517L37.6016 226.21L36.9923 226ZM42.9612 208.706V208.061H42.5019L42.352 208.495L42.9612 208.706ZM80.9173 208.706L81.5281 208.5L81.3805 208.061H80.9173V208.706ZM73.724 185.595V186.24H74.6405L74.3305 185.377L73.724 185.595ZM50.1545 185.595L49.5462 185.382L49.2459 186.24H50.1545V185.595ZM61.7862 152.384L62.3927 152.166L61.7783 150.456L61.1779 152.171L61.7862 152.384ZM86.7331 226.645H119.332V225.356H86.7331V226.645ZM119.931 225.76L76.9239 118.626L75.7277 119.106L118.734 226.24L119.931 225.76ZM76.3258 118.222H47.3996V119.511H76.3258V118.222ZM46.7998 118.63L4.71141 225.764L5.91114 226.236L47.9995 119.102L46.7998 118.63ZM5.31128 226.645H36.9923V225.356H5.31128V226.645ZM37.6016 226.21L43.5704 208.916L42.352 208.495L36.3831 225.79L37.6016 226.21ZM42.9612 209.35H80.9173V208.061H42.9612V209.35ZM80.3064 208.911L86.1222 226.205L87.344 225.795L81.5281 208.5L80.3064 208.911ZM73.724 184.951H50.1545V186.24H73.724V184.951ZM50.7628 185.808L62.3945 152.597L61.1779 152.171L49.5462 185.382L50.7628 185.808ZM61.1797 152.602L73.1175 185.813L74.3305 185.377L62.3927 152.166L61.1797 152.602ZM156.392 146.568H155.747V147.721L156.729 147.117L156.392 146.568ZM156.392 113.509H157.036V112.865H156.392V113.509ZM128.231 113.509V112.865H127.586V113.509H128.231ZM128.231 226H127.586V226.645H128.231V226ZM149.351 226V226.645H149.778L149.945 226.252L149.351 226ZM151.953 219.878L152.368 219.385L151.701 218.824L151.36 219.626L151.953 219.878ZM176.9 140.261C169.132 140.261 162.127 142.282 156.054 146.019L156.729 147.117C162.594 143.508 169.364 141.55 176.9 141.55V140.261ZM157.036 146.568V113.509H155.747V146.568H157.036ZM156.392 112.865H128.231V114.154H156.392V112.865ZM127.586 113.509V226H128.875V113.509H127.586ZM128.231 226.645H149.351V225.356H128.231V226.645ZM149.945 226.252L152.546 220.13L151.36 219.626L148.758 225.748L149.945 226.252ZM151.538 220.371C158.391 226.134 167.11 229.399 176.9 229.399V228.11C167.407 228.11 158.984 224.948 152.368 219.385L151.538 220.371ZM176.9 229.399C189.762 229.399 200.797 224.787 208.618 216.888C216.439 208.99 221.01 197.841 221.01 184.83H219.721C219.721 197.531 215.263 208.345 207.702 215.981C200.142 223.617 189.445 228.11 176.9 228.11V229.399ZM221.01 184.83C221.01 171.819 216.439 160.67 208.618 152.772C200.797 144.873 189.762 140.261 176.9 140.261V141.55C189.445 141.55 200.142 146.043 207.702 153.679C215.263 161.315 219.721 172.129 219.721 184.83H221.01ZM173.074 202.857C162.873 202.857 155.2 195.191 155.2 184.83H153.911C153.911 195.896 162.154 204.146 173.074 204.146V202.857ZM155.2 184.83C155.2 174.312 162.877 166.65 173.074 166.65V165.361C162.151 165.361 153.911 173.615 153.911 184.83H155.2ZM173.074 166.65C183.421 166.65 190.948 174.309 190.948 184.83H192.237C192.237 173.618 184.154 165.361 173.074 165.361V166.65ZM190.948 184.83C190.948 195.191 183.275 202.857 173.074 202.857V204.146C183.994 204.146 192.237 195.896 192.237 184.83H190.948ZM274.778 229.399C302.04 229.399 321.797 210.622 321.797 184.677H320.508C320.508 209.85 301.39 228.11 274.778 228.11V229.399ZM321.797 184.677C321.797 158.729 302.037 140.108 274.778 140.108V141.397C301.393 141.397 320.508 159.507 320.508 184.677H321.797ZM274.778 140.108C247.517 140.108 227.913 158.732 227.913 184.677H229.202C229.202 159.504 248.167 141.397 274.778 141.397V140.108ZM227.913 184.677C227.913 210.619 247.514 229.399 274.778 229.399V228.11C248.17 228.11 229.202 209.853 229.202 184.677H227.913ZM274.778 202.551C264.895 202.551 257.669 195.355 257.669 184.83H256.38C256.38 196.038 264.154 203.84 274.778 203.84V202.551ZM257.669 184.83C257.669 179.47 259.491 175.007 262.519 171.887C265.546 168.768 269.813 166.956 274.778 166.956V165.667C269.489 165.667 264.88 167.604 261.594 170.989C258.308 174.374 256.38 179.171 256.38 184.83H257.669ZM274.778 166.956C284.812 166.956 292.041 174.301 292.041 184.83H293.33C293.33 173.626 285.559 165.667 274.778 165.667V166.956ZM292.041 184.83C292.041 190.111 290.22 194.535 287.175 197.636C284.129 200.737 279.823 202.551 274.778 202.551V203.84C280.141 203.84 284.788 201.905 288.094 198.539C291.4 195.174 293.33 190.415 293.33 184.83H292.041ZM384.016 143.354V142.709H383.543L383.401 143.16L384.016 143.354ZM368.558 192.329L367.944 192.525L368.561 194.461L369.172 192.523L368.558 192.329ZM352.947 143.354L353.561 143.158L353.418 142.709H352.947V143.354ZM321.725 143.354V142.709H320.766L321.128 143.597L321.725 143.354ZM355.395 226L354.799 226.243L354.962 226.645H355.395V226ZM381.108 226V226.645H381.543L381.706 226.24L381.108 226ZM414.319 143.354L414.917 143.594L415.273 142.709H414.319V143.354ZM383.401 143.16L367.943 192.135L369.172 192.523L384.63 143.548L383.401 143.16ZM369.172 192.134L353.561 143.158L352.333 143.55L367.944 192.525L369.172 192.134ZM352.947 142.709H321.725V143.998H352.947V142.709ZM321.128 143.597L354.799 226.243L355.992 225.757L322.322 143.111L321.128 143.597ZM355.395 226.645H381.108V225.356H355.395V226.645ZM381.706 226.24L414.917 143.594L413.721 143.114L380.51 225.76L381.706 226.24ZM414.319 142.709H384.016V143.998H414.319V142.709ZM503.242 198.145L503.857 198.335L504.115 197.501H503.242V198.145ZM474.775 198.145V197.501H474.387L474.205 197.843L474.775 198.145ZM443.093 191.564V190.92H442.312L442.461 191.687L443.093 191.564ZM504.466 191.564V192.209H505.039L505.106 191.639L504.466 191.564ZM476.917 175.8V176.445H477.78L477.535 175.617L476.917 175.8ZM443.553 175.8L442.932 175.628L442.705 176.445H443.553V175.8ZM505.57 183.912C505.57 159.362 486.903 140.108 459.929 140.108V141.397C486.215 141.397 504.281 160.098 504.281 183.912H505.57ZM459.929 140.108C433.565 140.108 414.441 159.058 414.441 184.677H415.73C415.73 159.79 434.256 141.397 459.929 141.397V140.108ZM414.441 184.677C414.441 210.295 433.716 229.399 459.929 229.399V228.11C434.411 228.11 415.73 209.565 415.73 184.677H414.441ZM459.929 229.399C480.85 229.399 497.951 217.452 503.857 198.335L502.626 197.955C496.9 216.488 480.331 228.11 459.929 228.11V229.399ZM503.242 197.501H474.775V198.79H503.242V197.501ZM474.205 197.843C471.742 202.48 466.334 205.306 459.929 205.306V206.595C466.685 206.595 472.603 203.606 475.344 198.448L474.205 197.843ZM459.929 205.306C455.533 205.306 451.941 204.116 449.23 201.824C446.517 199.53 444.624 196.079 443.726 191.442L442.461 191.687C443.4 196.539 445.409 200.281 448.397 202.808C451.388 205.337 455.295 206.595 459.929 206.595V205.306ZM443.093 192.209H504.466V190.92H443.093V192.209ZM505.106 191.639C505.415 189.014 505.57 186.54 505.57 183.912H504.281C504.281 186.487 504.129 188.91 503.826 191.489L505.106 191.639ZM459.929 163.742C464.101 163.742 467.594 164.82 470.333 166.866C473.073 168.911 475.107 171.96 476.299 175.983L477.535 175.617C476.279 171.376 474.104 168.073 471.104 165.833C468.104 163.593 464.328 162.453 459.929 162.453V163.742ZM476.917 175.156H443.553V176.445H476.917V175.156ZM444.174 175.973C445.291 171.948 447.252 168.902 449.896 166.859C452.54 164.818 455.915 163.742 459.929 163.742V162.453C455.678 162.453 452.013 163.596 449.108 165.839C446.205 168.082 444.11 171.387 442.932 175.628L444.174 175.973ZM34.9663 295.48V294.836H34.3218V295.48H34.9663ZM50.6863 295.48V296.125H51.3307V295.48H50.6863ZM50.6863 278.2H51.3307V277.556H50.6863V278.2ZM34.4863 278.2H33.8418V278.845H34.4863V278.2ZM34.4863 259.36H35.1307V258.716H34.4863V259.36ZM29.8063 259.36V258.716H29.5279L29.337 258.918L29.8063 259.36ZM0.76625 290.2L0.297035 289.758L0.121753 289.944V290.2H0.76625ZM0.76625 295.48H0.121753V296.125H0.76625V295.48ZM12.6463 295.48H13.2907V294.836H12.6463V295.48ZM51.0463 343V343.645H51.6908V343H51.0463ZM51.0463 323.56H51.6908V322.916H51.0463V323.56ZM42.5263 322.916C40.3195 322.916 38.6051 322.239 37.4443 321.092C36.2843 319.945 35.6107 318.262 35.6107 316.12H34.3218C34.3218 318.538 35.0882 320.575 36.5382 322.008C37.9874 323.441 40.053 324.205 42.5263 324.205V322.916ZM35.6107 316.12V295.48H34.3218V316.12H35.6107ZM34.9663 296.125H50.6863V294.836H34.9663V296.125ZM51.3307 295.48V278.2H50.0418V295.48H51.3307ZM50.6863 277.556H34.4863V278.845H50.6863V277.556ZM35.1307 278.2V259.36H33.8418V278.2H35.1307ZM34.4863 258.716H29.8063V260.005H34.4863V258.716ZM29.337 258.918L0.297035 289.758L1.23547 290.642L30.2755 259.802L29.337 258.918ZM0.121753 290.2V295.48H1.41075V290.2H0.121753ZM0.76625 296.125H12.6463V294.836H0.76625V296.125ZM12.0018 295.48V319.84H13.2907V295.48H12.0018ZM12.0018 319.84C12.0018 327.172 14.2343 333.139 18.3547 337.275C22.4753 341.411 28.4133 343.645 35.6862 343.645V342.356C28.6792 342.356 23.0972 340.209 19.2678 336.365C15.4382 332.521 13.2907 326.909 13.2907 319.84H12.0018ZM35.6862 343.645H51.0463V342.356H35.6862V343.645ZM51.6908 343V323.56H50.4018V343H51.6908ZM51.0463 322.916H42.5263V324.205H51.0463V322.916ZM83.8269 282.52H83.1824V283.861L84.2295 283.023L83.8269 282.52ZM83.8269 254.8H84.4714V254.156H83.8269V254.8ZM61.5069 254.8V254.156H60.8624V254.8H61.5069ZM61.5069 343H60.8624V343.645H61.5069V343ZM83.8269 343V343.645H84.4714V343H83.8269ZM103.267 343H102.622V343.645H103.267V343ZM125.587 343V343.645H126.231V343H125.587ZM101.107 275.756C94.4725 275.756 88.3321 278.091 83.4243 282.017L84.2295 283.023C88.9216 279.27 94.7812 277.045 101.107 277.045V275.756ZM84.4714 282.52V254.8H83.1824V282.52H84.4714ZM83.8269 254.156H61.5069V255.445H83.8269V254.156ZM60.8624 254.8V343H62.1514V254.8H60.8624ZM61.5069 343.645H83.8269V342.356H61.5069V343.645ZM84.4714 343V308.44H83.1824V343H84.4714ZM84.4714 308.44C84.4714 304.402 85.4956 301.297 87.259 299.211C89.0111 297.139 91.5512 296.005 94.7469 296.005V294.716C91.2225 294.716 88.3027 295.981 86.2747 298.379C84.2582 300.764 83.1824 304.198 83.1824 308.44H84.4714ZM94.7469 296.005C97.533 296.005 99.4471 296.904 100.693 298.593C101.968 300.32 102.622 302.975 102.622 306.64H103.911C103.911 302.865 103.245 299.88 101.73 297.827C100.187 295.736 97.8407 294.716 94.7469 294.716V296.005ZM102.622 306.64V343H103.911V306.64H102.622ZM103.267 343.645H125.587V342.356H103.267V343.645ZM126.231 343V304H124.942V343H126.231ZM126.231 304C126.231 295.48 123.796 288.416 119.409 283.472C115.015 278.521 108.712 275.756 101.107 275.756V277.045C108.382 277.045 114.319 279.679 118.445 284.328C122.578 288.984 124.942 295.72 124.942 304H126.231ZM204.251 321.16L204.866 321.35L205.124 320.516H204.251V321.16ZM181.931 321.16V320.516H181.543L181.361 320.858L181.931 321.16ZM157.091 316V315.356H156.309L156.458 316.123L157.091 316ZM205.211 316V316.645H205.784L205.851 316.075L205.211 316ZM183.611 303.64V304.285H184.474L184.229 303.457L183.611 303.64ZM157.451 303.64L156.83 303.468L156.603 304.285H157.451V303.64ZM206.215 310C206.215 290.672 191.515 275.516 170.291 275.516V276.805C190.827 276.805 204.926 291.408 204.926 310H206.215ZM170.291 275.516C149.545 275.516 134.486 290.434 134.486 310.6H135.775C135.775 291.166 150.236 276.805 170.291 276.805V275.516ZM134.486 310.6C134.486 330.765 149.664 345.805 170.291 345.805V344.516C150.358 344.516 135.775 330.035 135.775 310.6H134.486ZM170.291 345.805C186.75 345.805 200.216 336.402 204.866 321.35L203.635 320.97C199.165 335.438 186.231 344.516 170.291 344.516V345.805ZM204.251 320.516H181.931V321.805H204.251V320.516ZM181.361 320.858C179.46 324.437 175.275 326.636 170.291 326.636V327.925C175.626 327.925 180.321 325.563 182.5 321.462L181.361 320.858ZM170.291 326.636C166.869 326.636 164.087 325.71 161.992 323.938C159.895 322.165 158.423 319.49 157.723 315.878L156.458 316.123C157.199 319.95 158.787 322.916 161.159 324.922C163.534 326.93 166.632 327.925 170.291 327.925V326.636ZM157.091 316.645H205.211V315.356H157.091V316.645ZM205.851 316.075C206.093 314.012 206.215 312.067 206.215 310H204.926C204.926 312.013 204.808 313.908 204.571 315.925L205.851 316.075ZM170.291 294.325C173.537 294.325 176.245 295.164 178.365 296.746C180.485 298.329 182.065 300.692 182.993 303.823L184.229 303.457C183.236 300.108 181.516 297.491 179.136 295.714C176.756 293.936 173.764 293.036 170.291 293.036V294.325ZM183.611 302.996H157.451V304.285H183.611V302.996ZM158.072 303.813C158.942 300.681 160.464 298.32 162.51 296.74C164.554 295.161 167.169 294.325 170.291 294.325V293.036C166.932 293.036 164.027 293.939 161.722 295.72C159.417 297.5 157.76 300.119 156.83 303.468L158.072 303.813ZM288.061 343L287.492 343.303L287.674 343.645H288.061V343ZM313.861 343V343.645H314.949L314.427 342.691L313.861 343ZM297.181 312.52L296.852 311.966L296.317 312.284L296.616 312.829L297.181 312.52ZM242.821 259V258.356H242.177V259H242.821ZM242.821 343H242.177V343.645H242.821V343ZM265.981 343V343.645H266.626V343H265.981ZM265.981 317.32V316.676H265.337V317.32H265.981ZM274.381 317.32L274.95 317.017L274.768 316.676H274.381V317.32ZM265.981 279.64V278.996H265.337V279.64H265.981ZM265.981 297.88H265.337V298.525H265.981V297.88ZM288.061 343.645H313.861V342.356H288.061V343.645ZM314.427 342.691L297.747 312.211L296.616 312.829L313.296 343.309L314.427 342.691ZM297.51 313.074C305.986 308.038 311.146 299.307 311.146 288.76H309.857C309.857 298.853 304.936 307.162 296.852 311.966L297.51 313.074ZM311.146 288.76C311.146 270.851 297.623 258.356 279.301 258.356V259.645C296.98 259.645 309.857 271.629 309.857 288.76H311.146ZM279.301 258.356H242.821V259.645H279.301V258.356ZM242.177 259V343H243.466V259H242.177ZM242.821 343.645H265.981V342.356H242.821V343.645ZM266.626 343V317.32H265.337V343H266.626ZM265.981 317.965H274.381V316.676H265.981V317.965ZM273.812 317.623L287.492 343.303L288.63 342.697L274.95 317.017L273.812 317.623ZM265.981 280.285H276.541V278.996H265.981V280.285ZM276.541 280.285C279.654 280.285 282.035 281.205 283.632 282.692C285.226 284.176 286.097 286.277 286.097 288.76H287.386C287.386 285.963 286.397 283.505 284.51 281.748C282.627 279.995 279.908 278.996 276.541 278.996V280.285ZM286.097 288.76C286.097 291.18 285.228 293.284 283.63 294.785C282.031 296.288 279.649 297.236 276.541 297.236V298.525C279.914 298.525 282.632 297.492 284.513 295.725C286.395 293.956 287.386 291.5 287.386 288.76H286.097ZM276.541 297.236H265.981V298.525H276.541V297.236ZM266.626 297.88V279.64H265.337V297.88H266.626ZM386.829 321.16L387.445 321.35L387.702 320.516H386.829V321.16ZM364.509 321.16V320.516H364.121L363.94 320.858L364.509 321.16ZM339.669 316V315.356H338.888L339.036 316.123L339.669 316ZM387.789 316V316.645H388.362L388.429 316.075L387.789 316ZM366.189 303.64V304.285H367.052L366.807 303.457L366.189 303.64ZM340.029 303.64L339.408 303.468L339.181 304.285H340.029V303.64ZM388.793 310C388.793 290.672 374.093 275.516 352.869 275.516V276.805C373.405 276.805 387.504 291.408 387.504 310H388.793ZM352.869 275.516C332.123 275.516 317.064 290.434 317.064 310.6H318.353C318.353 291.166 332.814 276.805 352.869 276.805V275.516ZM317.064 310.6C317.064 330.765 332.242 345.805 352.869 345.805V344.516C332.936 344.516 318.353 330.035 318.353 310.6H317.064ZM352.869 345.805C369.328 345.805 382.794 336.402 387.445 321.35L386.213 320.97C381.743 335.438 368.81 344.516 352.869 344.516V345.805ZM386.829 320.516H364.509V321.805H386.829V320.516ZM363.94 320.858C362.038 324.437 357.853 326.636 352.869 326.636V327.925C358.204 327.925 362.899 325.563 365.078 321.462L363.94 320.858ZM352.869 326.636C349.448 326.636 346.665 325.71 344.57 323.938C342.473 322.165 341.001 319.49 340.302 315.878L339.036 316.123C339.777 319.95 341.365 322.916 343.738 324.922C346.112 326.93 349.21 327.925 352.869 327.925V326.636ZM339.669 316.645H387.789V315.356H339.669V316.645ZM388.429 316.075C388.672 314.012 388.793 312.067 388.793 310H387.504C387.504 312.013 387.386 313.908 387.149 315.925L388.429 316.075ZM352.869 294.325C356.115 294.325 358.823 295.164 360.943 296.746C363.063 298.329 364.643 300.692 365.571 303.823L366.807 303.457C365.814 300.108 364.095 297.491 361.714 295.714C359.334 293.936 356.342 293.036 352.869 293.036V294.325ZM366.189 302.996H340.029V304.285H366.189V302.996ZM340.65 303.813C341.52 300.681 343.042 298.32 345.088 296.74C347.132 295.161 349.747 294.325 352.869 294.325V293.036C349.51 293.036 346.605 293.939 344.3 295.72C341.995 297.5 340.338 300.119 339.408 303.468L340.65 303.813ZM428.064 302.44L427.952 303.075L427.953 303.075L428.064 302.44ZM429.744 298H429.099V298.645H429.744V298ZM450.744 298V298.645H451.4L451.388 297.988L450.744 298ZM418.944 317.92L418.838 318.556L418.846 318.557L418.944 317.92ZM416.184 321.76H416.828V321.116H416.184V321.76ZM394.704 321.76V321.116H394.048L394.059 321.771L394.704 321.76ZM423.264 345.805C432.008 345.805 439.329 343.558 444.481 339.533C449.646 335.496 452.588 329.699 452.588 322.72H451.299C451.299 329.301 448.541 334.724 443.687 338.517C438.818 342.322 431.8 344.516 423.264 344.516V345.805ZM452.588 322.72C452.588 318.549 451.721 315.24 450.224 312.601C448.727 309.962 446.622 308.031 444.205 306.582C439.402 303.704 433.302 302.699 428.174 301.805L427.953 303.075C433.146 303.981 438.985 304.957 443.542 307.688C445.805 309.044 447.735 310.825 449.103 313.237C450.471 315.65 451.299 318.731 451.299 322.72H452.588ZM428.176 301.805C425.095 301.262 422.412 300.762 420.495 299.969C419.543 299.576 418.833 299.13 418.365 298.615C417.913 298.116 417.668 297.535 417.668 296.8H416.379C416.379 297.865 416.75 298.754 417.411 299.482C418.057 300.193 418.96 300.729 420.002 301.161C422.076 302.018 424.913 302.538 427.952 303.075L428.176 301.805ZM417.668 296.8C417.668 295.49 418.183 294.48 419.072 293.782C419.978 293.07 421.323 292.645 423.024 292.645V291.356C421.124 291.356 419.47 291.83 418.276 292.768C417.064 293.72 416.379 295.11 416.379 296.8H417.668ZM423.024 292.645C424.909 292.645 426.424 293.103 427.456 293.965C428.469 294.812 429.099 296.116 429.099 298H430.388C430.388 295.804 429.638 294.109 428.282 292.975C426.944 291.858 425.098 291.356 423.024 291.356V292.645ZM429.744 298.645H450.744V297.356H429.744V298.645ZM451.388 297.988C451.265 291.258 448.417 285.618 443.481 281.672C438.556 277.735 431.593 275.516 423.264 275.516V276.805C431.374 276.805 438.031 278.965 442.676 282.678C447.31 286.383 449.983 291.662 450.099 298.012L451.388 297.988ZM423.264 275.516C414.882 275.516 407.802 277.641 402.802 281.468C397.786 285.307 394.899 290.835 394.899 297.52H396.188C396.188 291.245 398.881 286.093 403.585 282.492C408.305 278.879 415.086 276.805 423.264 276.805V275.516ZM394.899 297.52C394.899 305.608 398.348 310.489 403.117 313.529C407.831 316.533 413.804 317.717 418.838 318.556L419.05 317.284C414.003 316.443 408.276 315.288 403.81 312.442C399.4 309.631 396.188 305.152 396.188 297.52H394.899ZM418.846 318.557C421.978 319.039 424.688 319.54 426.611 320.358C427.568 320.765 428.281 321.231 428.752 321.77C429.21 322.294 429.459 322.909 429.459 323.68H430.748C430.748 322.591 430.382 321.676 429.723 320.922C429.076 320.182 428.17 319.62 427.116 319.172C425.02 318.28 422.15 317.761 419.042 317.283L418.846 318.557ZM429.459 323.68C429.459 325.131 428.798 326.203 427.766 326.934C426.714 327.68 425.263 328.076 423.744 328.076V329.365C425.464 329.365 427.193 328.92 428.511 327.986C429.849 327.037 430.748 325.59 430.748 323.68H429.459ZM423.744 328.076C421.745 328.076 420.018 327.561 418.802 326.545C417.603 325.544 416.828 323.997 416.828 321.76H415.539C415.539 324.324 416.444 326.256 417.976 327.535C419.49 328.799 421.542 329.365 423.744 329.365V328.076ZM416.184 321.116H394.704V322.405H416.184V321.116ZM394.059 321.771C394.182 328.964 396.986 334.996 402.046 339.22C407.095 343.435 414.334 345.805 423.264 345.805V344.516C414.553 344.516 407.633 342.205 402.872 338.23C398.121 334.264 395.465 328.597 395.348 321.749L394.059 321.771ZM489.419 295.48V294.836H488.775V295.48H489.419ZM505.139 295.48V296.125H505.784V295.48H505.139ZM505.139 278.2H505.784V277.556H505.139V278.2ZM488.939 278.2H488.295V278.845H488.939V278.2ZM488.939 259.36H489.584V258.716H488.939V259.36ZM484.259 259.36V258.716H483.981L483.79 258.918L484.259 259.36ZM455.219 290.2L454.75 289.758L454.575 289.944V290.2H455.219ZM455.219 295.48H454.575V296.125H455.219V295.48ZM467.099 295.48H467.744V294.836H467.099V295.48ZM505.499 343V343.645H506.144V343H505.499ZM505.499 323.56H506.144V322.916H505.499V323.56ZM496.979 322.916C494.773 322.916 493.058 322.239 491.897 321.092C490.737 319.945 490.064 318.262 490.064 316.12H488.775C488.775 318.538 489.541 320.575 490.991 322.008C492.441 323.441 494.506 324.205 496.979 324.205V322.916ZM490.064 316.12V295.48H488.775V316.12H490.064ZM489.419 296.125H505.139V294.836H489.419V296.125ZM505.784 295.48V278.2H504.495V295.48H505.784ZM505.139 277.556H488.939V278.845H505.139V277.556ZM489.584 278.2V259.36H488.295V278.2H489.584ZM488.939 258.716H484.259V260.005H488.939V258.716ZM483.79 258.918L454.75 289.758L455.689 290.642L484.729 259.802L483.79 258.918ZM454.575 290.2V295.48H455.864V290.2H454.575ZM455.219 296.125H467.099V294.836H455.219V296.125ZM466.455 295.48V319.84H467.744V295.48H466.455ZM466.455 319.84C466.455 327.172 468.687 333.139 472.808 337.275C476.928 341.411 482.866 343.645 490.139 343.645V342.356C483.132 342.356 477.55 340.209 473.721 336.365C469.891 332.521 467.744 326.909 467.744 319.84H466.455ZM490.139 343.645H505.499V342.356H490.139V343.645ZM506.144 343V323.56H504.855V343H506.144ZM505.499 322.916H496.979V324.205H505.499V322.916Z" fill="url(#paint0_linear)"/>
<defs>
<linearGradient id="paint0_linear" x1="254.5" y1="1.00006" x2="255" y2="369" gradientUnits="userSpaceOnUse">
<stop stop-color="white"/>
<stop offset="1" stop-color="white" stop-opacity="0"/>
</linearGradient>
</defs>
</svg>
