<svg width="708" height="89" viewBox="0 0 708 89" fill="none" xmlns="http://www.w3.org/2000/svg">
<path opacity="0.29" d="M70.1748 64.9719H71.1748V63.9719H70.1748V64.9719ZM70.1748 86.0001V87.0001H71.1748V86.0001H70.1748ZM1.41977 86.0001H0.419775V87.0001H1.41977V86.0001ZM1.41977 3.30501V2.30501H0.419775V3.30501H1.41977ZM68.639 3.30501H69.639V2.30501H68.639V3.30501ZM68.639 24.3332V25.3332H69.639V24.3332H68.639ZM28.8273 24.3332V23.3332H27.8273V24.3332H28.8273ZM28.8273 34.0203H27.8273V35.0203H28.8273V34.0203ZM63.7955 34.0203H64.7955V33.0203H63.7955V34.0203ZM63.7955 54.1034V55.1034H64.7955V54.1034H63.7955ZM28.8273 54.1034V53.1034H27.8273V54.1034H28.8273ZM28.8273 64.9719H27.8273V65.9719H28.8273V64.9719ZM69.1748 64.9719V86.0001H71.1748V64.9719H69.1748ZM70.1748 85.0001H1.41977V87.0001H70.1748V85.0001ZM2.41977 86.0001V3.30501H0.419775V86.0001H2.41977ZM1.41977 4.30501H68.639V2.30501H1.41977V4.30501ZM67.639 3.30501V24.3332H69.639V3.30501H67.639ZM68.639 23.3332H28.8273V25.3332H68.639V23.3332ZM27.8273 24.3332V34.0203H29.8273V24.3332H27.8273ZM28.8273 35.0203H63.7955V33.0203H28.8273V35.0203ZM62.7955 34.0203V54.1034H64.7955V34.0203H62.7955ZM63.7955 53.1034H28.8273V55.1034H63.7955V53.1034ZM27.8273 54.1034V64.9719H29.8273V54.1034H27.8273ZM28.8273 65.9719H70.1748V63.9719H28.8273V65.9719ZM132.665 86.0001L131.825 86.5433L132.121 87.0001H132.665V86.0001ZM118.37 63.9087L119.21 63.3654L118.36 62.0516L117.525 63.375L118.37 63.9087ZM104.43 86.0001V87.0001H104.982L105.276 86.5337L104.43 86.0001ZM72.652 86.0001L71.8392 85.4175L70.7049 87.0001H72.652V86.0001ZM102.54 44.2981L103.353 44.8807L103.767 44.3037L103.358 43.7229L102.54 44.2981ZM73.7152 3.30501V2.30501H71.7895L72.8972 3.88022L73.7152 3.30501ZM105.021 3.30501L105.85 2.7449L105.552 2.30501H105.021V3.30501ZM119.079 24.0969L118.251 24.657L119.09 25.8979L119.914 24.6472L119.079 24.0969ZM132.783 3.30501V2.30501H132.244L131.948 2.7547L132.783 3.30501ZM162.79 3.30501L163.601 3.88875L164.74 2.30501H162.79V3.30501ZM134.083 43.2349L133.271 42.6512L132.853 43.2324L133.268 43.8153L134.083 43.2349ZM164.562 86.0001V87.0001H166.502L165.376 85.4197L164.562 86.0001ZM133.504 85.4568L119.21 63.3654L117.531 64.4519L131.825 86.5433L133.504 85.4568ZM117.525 63.375L103.585 85.4664L105.276 86.5337L119.216 64.4423L117.525 63.375ZM104.43 85.0001H72.652V87.0001H104.43V85.0001ZM73.4648 86.5826L103.353 44.8807L101.728 43.7156L71.8392 85.4175L73.4648 86.5826ZM103.358 43.7229L74.5332 2.72981L72.8972 3.88022L101.722 44.8733L103.358 43.7229ZM73.7152 4.30501H105.021V2.30501H73.7152V4.30501ZM104.193 3.86513L118.251 24.657L119.908 23.5368L105.85 2.7449L104.193 3.86513ZM119.914 24.6472L133.618 3.85533L131.948 2.7547L118.244 23.5466L119.914 24.6472ZM132.783 4.30501H162.79V2.30501H132.783V4.30501ZM161.978 2.72128L133.271 42.6512L134.895 43.8186L163.601 3.88875L161.978 2.72128ZM133.268 43.8153L163.747 86.5804L165.376 85.4197L134.897 42.6545L133.268 43.8153ZM164.562 85.0001H132.665V87.0001H164.562V85.0001ZM186.455 82.456L185.988 83.3403L185.996 83.3443L186.455 82.456ZM169.916 67.0983L169.057 67.6099L169.064 67.6219L169.916 67.0983ZM169.916 22.3249L169.062 21.8059L169.06 21.8089L169.916 22.3249ZM186.455 6.96723L186.915 7.85562L186.922 7.8515L186.455 6.96723ZM231.583 5.66773L231.173 6.57966L231.173 6.57966L231.583 5.66773ZM247.177 17.9539L247.843 18.6999L248.535 18.0827L247.972 17.3464L247.177 17.9539ZM229.575 33.6659L228.791 34.2871L229.45 35.118L230.241 34.4119L229.575 33.6659ZM197.442 29.6493L198.164 30.3409L198.172 30.3332L197.442 29.6493ZM197.442 59.7739L196.713 60.4579L196.72 60.4655L197.442 59.7739ZM229.575 55.6392L230.241 54.8931L229.45 54.1871L228.791 55.018L229.575 55.6392ZM247.177 71.3512L247.972 71.9587L248.535 71.2224L247.843 70.6052L247.177 71.3512ZM231.583 83.6373L231.173 82.7254L231.173 82.7254L231.583 83.6373ZM210.083 86.8902C201.483 86.8902 193.767 85.1095 186.915 81.5676L185.996 83.3443C193.162 87.0482 201.198 88.8902 210.083 88.8902V86.8902ZM186.922 81.5717C180.066 77.9508 174.688 72.9539 170.768 66.5748L169.064 67.6219C173.178 74.3165 178.826 79.558 185.989 83.3403L186.922 81.5717ZM170.776 66.5869C166.938 60.1389 165.01 52.8365 165.01 44.6525H163.01C163.01 53.1651 165.02 60.8265 169.057 67.6098L170.776 66.5869ZM165.01 44.6525C165.01 36.4685 166.938 29.2075 170.773 22.8409L169.06 21.8089C165.019 28.5159 163.01 36.1401 163.01 44.6525H165.01ZM170.771 22.8439C174.691 16.3886 180.065 11.3957 186.915 7.85558L185.996 6.07887C178.827 9.78438 173.176 15.0299 169.062 21.8059L170.771 22.8439ZM186.922 7.8515C193.774 4.2335 201.486 2.41485 210.083 2.41485V0.414845C201.195 0.414845 193.156 2.29778 185.989 6.08295L186.922 7.8515ZM210.083 2.41485C217.997 2.41485 225.021 3.81115 231.173 6.57966L231.994 4.75581C225.545 1.8538 218.234 0.414845 210.083 0.414845V2.41485ZM231.173 6.57966C237.326 9.3486 242.391 13.3409 246.383 18.5613L247.972 17.3464C243.773 11.8558 238.442 7.65738 231.994 4.75581L231.173 6.57966ZM246.511 17.2078L228.909 32.9199L230.241 34.4119L247.843 18.6999L246.511 17.2078ZM230.359 33.0447C225.09 26.3978 218.795 22.9788 211.5 22.9788V24.9788C218.066 24.9788 223.822 28.0178 228.791 34.2871L230.359 33.0447ZM211.5 22.9788C205.434 22.9788 200.47 24.9572 196.713 28.9654L198.172 30.3332C201.502 26.7807 205.911 24.9788 211.5 24.9788V22.9788ZM196.72 28.9577C192.959 32.8861 191.126 38.1567 191.126 44.6525H193.126C193.126 38.5473 194.837 33.8157 198.164 30.3409L196.72 28.9577ZM191.126 44.6525C191.126 51.1493 192.959 56.4539 196.713 60.4579L198.172 59.09C194.837 55.5333 193.126 50.7569 193.126 44.6525H191.126ZM196.72 60.4655C200.479 64.3919 205.44 66.3263 211.5 66.3263V64.3263C205.904 64.3263 201.493 62.5591 198.164 59.0823L196.72 60.4655ZM211.5 66.3263C218.795 66.3263 225.09 62.9072 230.359 56.2604L228.791 55.018C223.822 61.2873 218.066 64.3263 211.5 64.3263V66.3263ZM228.909 56.3852L246.511 72.0973L247.843 70.6052L230.241 54.8931L228.909 56.3852ZM246.383 70.7438C242.391 75.9641 237.326 79.9565 231.173 82.7254L231.994 84.5493C238.442 81.6477 243.773 77.4493 247.972 71.9587L246.383 70.7438ZM231.173 82.7254C225.021 85.4939 217.997 86.8902 210.083 86.8902V88.8902C218.234 88.8902 225.545 87.4513 231.994 84.5493L231.173 82.7254ZM323.982 64.9719H324.982V63.9719H323.982V64.9719ZM323.982 86.0001V87.0001H324.982V86.0001H323.982ZM255.227 86.0001H254.227V87.0001H255.227V86.0001ZM255.227 3.30501V2.30501H254.227V3.30501H255.227ZM322.446 3.30501H323.446V2.30501H322.446V3.30501ZM322.446 24.3332V25.3332H323.446V24.3332H322.446ZM282.635 24.3332V23.3332H281.635V24.3332H282.635ZM282.635 34.0203H281.635V35.0203H282.635V34.0203ZM317.603 34.0203H318.603V33.0203H317.603V34.0203ZM317.603 54.1034V55.1034H318.603V54.1034H317.603ZM282.635 54.1034V53.1034H281.635V54.1034H282.635ZM282.635 64.9719H281.635V65.9719H282.635V64.9719ZM322.982 64.9719V86.0001H324.982V64.9719H322.982ZM323.982 85.0001H255.227V87.0001H323.982V85.0001ZM256.227 86.0001V3.30501H254.227V86.0001H256.227ZM255.227 4.30501H322.446V2.30501H255.227V4.30501ZM321.446 3.30501V24.3332H323.446V3.30501H321.446ZM322.446 23.3332H282.635V25.3332H322.446V23.3332ZM281.635 24.3332V34.0203H283.635V24.3332H281.635ZM282.635 35.0203H317.603V33.0203H282.635V35.0203ZM316.603 34.0203V54.1034H318.603V34.0203H316.603ZM317.603 53.1034H282.635V55.1034H317.603V53.1034ZM281.635 54.1034V64.9719H283.635V54.1034H281.635ZM282.635 65.9719H323.982V63.9719H282.635V65.9719ZM334.715 3.30501V2.30501H333.715V3.30501H334.715ZM362.595 3.30501H363.595V2.30501H362.595V3.30501ZM362.595 64.3812H361.595V65.3812H362.595V64.3812ZM399.926 64.3812H400.926V63.3812H399.926V64.3812ZM399.926 86.0001V87.0001H400.926V86.0001H399.926ZM334.715 86.0001H333.715V87.0001H334.715V86.0001ZM334.715 4.30501H362.595V2.30501H334.715V4.30501ZM361.595 3.30501V64.3812H363.595V3.30501H361.595ZM362.595 65.3812H399.926V63.3812H362.595V65.3812ZM398.926 64.3812V86.0001H400.926V64.3812H398.926ZM399.926 85.0001H334.715V87.0001H399.926V85.0001ZM335.715 86.0001V3.30501H333.715V86.0001H335.715ZM418.377 85.6457L418.14 86.6172L418.147 86.6189L418.154 86.6204L418.377 85.6457ZM402.429 79.3845L401.514 78.9803L401.163 79.7744L401.9 80.2334L402.429 79.3845ZM411.407 59.0651L411.909 58.2001L410.944 57.6402L410.493 58.6609L411.407 59.0651ZM424.638 64.6175L424.36 65.5778L424.367 65.5799L424.374 65.5819L424.638 64.6175ZM446.966 65.5626L447.36 66.4817L447.378 66.4739L447.396 66.4654L446.966 65.5626ZM446.139 58.2382L445.762 59.1643L445.773 59.1689L446.139 58.2382ZM435.507 55.4029L435.302 56.3816L435.305 56.3823L435.507 55.4029ZM419.559 51.15L419.211 52.0878L419.219 52.0906L419.227 52.0933L419.559 51.15ZM408.454 43.5893L407.706 44.2537L407.714 44.262L408.454 43.5893ZM408.099 15.1186L408.924 15.6838L408.924 15.6838L408.099 15.1186ZM421.094 5.07705L420.708 4.1547L420.703 4.15661L421.094 5.07705ZM458.898 3.30501L458.672 4.27917L458.68 4.28106L458.688 4.28282L458.898 3.30501ZM473.428 8.62113L474.352 9.00459L474.692 8.18697L473.921 7.75087L473.428 8.62113ZM465.041 28.8223L464.59 29.715L465.551 30.2003L465.964 29.2058L465.041 28.8223ZM434.444 31.6576L434.066 32.5837L434.081 32.5898L434.096 32.5954L434.444 31.6576ZM444.958 34.2566L444.768 35.2384L444.773 35.2395L444.958 34.2566ZM460.906 38.3913L460.564 39.3311L460.572 39.3339L460.58 39.3365L460.906 38.3913ZM472.129 45.8339L471.389 46.5066L471.397 46.5156L472.129 45.8339ZM472.602 74.1865L473.422 74.7589L473.426 74.7517L472.602 74.1865ZM459.488 84.228L459.879 85.1485L459.885 85.1459L459.488 84.228ZM438.46 86.8902C431.682 86.8902 425.062 86.1501 418.6 84.6709L418.154 86.6204C424.766 88.1339 431.535 88.8902 438.46 88.8902V86.8902ZM418.614 84.6741C412.225 83.1159 407.016 81.0626 402.957 78.5356L401.9 80.2334C406.19 82.9043 411.613 85.0251 418.14 86.6172L418.614 84.6741ZM403.344 79.7886L412.322 59.4693L410.493 58.6609L401.514 78.9803L403.344 79.7886ZM410.905 59.9301C414.921 62.2592 419.408 64.1402 424.36 65.5778L424.917 63.6571C420.103 62.2595 415.769 60.4389 411.909 58.2001L410.905 59.9301ZM424.374 65.5819C429.332 66.9414 434.108 67.6258 438.697 67.6258V65.6258C434.307 65.6258 429.71 64.9713 424.903 63.6531L424.374 65.5819ZM438.697 67.6258C442.571 67.6258 445.505 67.2766 447.36 66.4817L446.572 64.6434C445.119 65.2662 442.54 65.6258 438.697 65.6258V67.6258ZM447.396 66.4654C448.33 66.0206 449.1 65.4431 449.637 64.7019C450.181 63.9495 450.447 63.0818 450.447 62.1366H448.447C448.447 62.6879 448.299 63.1393 448.017 63.5289C447.727 63.9297 447.256 64.317 446.536 64.6597L447.396 66.4654ZM450.447 62.1366C450.447 61.0376 450.09 60.0493 449.382 59.2155C448.691 58.4004 447.704 57.7786 446.505 57.3074L445.773 59.1689C446.779 59.564 447.447 60.0252 447.857 60.5095C448.253 60.9753 448.447 61.503 448.447 62.1366H450.447ZM446.516 57.3121C444.299 56.4085 440.677 55.4486 435.709 54.4235L435.305 56.3823C440.26 57.4049 443.727 58.3352 445.762 59.1642L446.516 57.3121ZM435.712 54.4242C429.359 53.0908 424.088 51.6837 419.89 50.2067L419.227 52.0933C423.535 53.6091 428.896 55.0373 435.302 56.3816L435.712 54.4242ZM419.906 50.2123C415.808 48.6946 412.24 46.2674 409.194 42.9166L407.714 44.262C410.968 47.8418 414.803 50.4551 419.211 52.0878L419.906 50.2123ZM409.201 42.925C406.253 39.6082 404.728 35.102 404.728 29.2949H402.728C402.728 35.4589 404.354 40.4823 407.706 44.2537L409.201 42.925ZM404.728 29.2949C404.728 24.2969 406.125 19.7688 408.924 15.6838L407.274 14.5534C404.245 18.9742 402.728 23.8969 402.728 29.2949H404.728ZM408.924 15.6838C411.71 11.6188 415.874 8.38029 421.485 5.99749L420.703 4.15661C414.816 6.65676 410.317 10.1126 407.274 14.5534L408.924 15.6838ZM421.481 5.99939C427.155 3.62235 434.065 2.41485 442.241 2.41485V0.414845C433.877 0.414845 426.69 1.64881 420.708 4.15471L421.481 5.99939ZM442.241 2.41485C447.836 2.41485 453.313 3.03651 458.672 4.27917L459.124 2.33086C453.614 1.05329 447.986 0.414845 442.241 0.414845V2.41485ZM458.688 4.28282C464.119 5.44653 468.864 7.18655 472.936 9.49138L473.921 7.75087C469.645 5.33026 464.703 3.52621 459.107 2.32721L458.688 4.28282ZM472.505 8.23766L464.117 28.4389L465.964 29.2058L474.352 9.00459L472.505 8.23766ZM465.492 27.9297C457.274 23.7812 449.441 21.6793 442.004 21.6793V23.6793C449.059 23.6793 456.583 25.6727 464.59 29.715L465.492 27.9297ZM442.004 21.6793C438.372 21.6793 435.503 22.1132 433.506 23.0785C432.495 23.5677 431.671 24.2106 431.103 25.0356C430.528 25.8685 430.254 26.8289 430.254 27.8773H432.254C432.254 27.1929 432.428 26.6373 432.749 26.1707C433.076 25.6962 433.597 25.2562 434.377 24.8791C435.964 24.1117 438.47 23.6793 442.004 23.6793V21.6793ZM430.254 27.8773C430.254 28.9394 430.603 29.8966 431.287 30.7076C431.956 31.5003 432.909 32.1121 434.066 32.5837L434.821 30.7315C433.852 30.3368 433.21 29.8854 432.816 29.4179C432.437 28.9689 432.254 28.469 432.254 27.8773H430.254ZM434.096 32.5954C436.305 33.4134 439.879 34.2922 444.768 35.2384L445.148 33.2748C440.271 32.3309 436.835 31.4769 434.791 30.7199L434.096 32.5954ZM444.773 35.2395C451.04 36.4143 456.299 37.7802 460.564 39.3311L461.248 37.4515C456.85 35.8522 451.477 34.4616 445.142 33.2737L444.773 35.2395ZM460.58 39.3365C464.749 40.7769 468.349 43.1625 471.389 46.5066L472.869 45.1612C469.608 41.5747 465.726 38.9985 461.233 37.4462L460.58 39.3365ZM471.397 46.5156C474.412 49.7506 475.973 54.2082 475.973 60.0102H477.973C477.973 53.8411 476.304 48.8478 472.861 45.1522L471.397 46.5156ZM475.973 60.0102C475.973 65.0082 474.576 69.5363 471.777 73.6213L473.426 74.7517C476.456 70.3309 477.973 65.4081 477.973 60.0102H475.973ZM471.782 73.6141C468.997 77.6025 464.791 80.8455 459.092 83.3102L459.885 85.1459C465.842 82.5701 470.378 79.1187 473.422 74.7589L471.782 73.6141ZM459.098 83.3076C453.505 85.6825 446.637 86.8902 438.46 86.8902V88.8902C446.823 88.8902 453.973 87.6565 459.879 85.1485L459.098 83.3076ZM485.269 3.30501V2.30501H484.269V3.30501H485.269ZM513.149 3.30501H514.149V2.30501H513.149V3.30501ZM513.149 86.0001V87.0001H514.149V86.0001H513.149ZM485.269 86.0001H484.269V87.0001H485.269V86.0001ZM485.269 4.30501H513.149V2.30501H485.269V4.30501ZM512.149 3.30501V86.0001H514.149V3.30501H512.149ZM513.149 85.0001H485.269V87.0001H513.149V85.0001ZM486.269 86.0001V3.30501H484.269V86.0001H486.269ZM545.944 82.3379L546.407 81.4514L546.407 81.4514L545.944 82.3379ZM529.287 66.9802L528.433 67.4992L528.435 67.5037L529.287 66.9802ZM529.287 22.443L530.139 22.9665L530.142 22.962L529.287 22.443ZM593.908 6.96723L594.371 6.08082L594.371 6.08082L593.908 6.96723ZM610.565 22.443L609.71 22.962L609.713 22.9665L610.565 22.443ZM610.565 66.9802L611.417 67.5037L611.42 67.4992L610.565 66.9802ZM593.908 82.3379L594.371 83.2243L594.371 83.2243L593.908 82.3379ZM579.259 62.8454L579.773 63.703L579.78 63.6987L579.259 62.8454ZM585.993 55.6392L586.873 56.1133L586.878 56.104L585.993 55.6392ZM585.993 33.784L585.107 34.2489L585.112 34.2581L585.993 33.784ZM579.259 26.5778L578.727 27.4244L578.741 27.4332L578.755 27.4415L579.259 26.5778ZM560.475 26.5778L560.99 27.4353L560.997 27.431L560.475 26.5778ZM553.86 33.784L554.74 34.2582L554.745 34.2489L553.86 33.784ZM553.86 55.6392L552.974 56.104L552.979 56.1133L553.86 55.6392ZM560.475 62.8454L559.943 63.6921L559.957 63.7009L559.971 63.7092L560.475 62.8454ZM569.926 86.8902C561.169 86.8902 553.337 85.0703 546.407 81.4514L545.482 83.2243C552.728 87.0086 560.884 88.8902 569.926 88.8902V86.8902ZM546.407 81.4514C539.472 77.8298 534.057 72.833 530.139 66.4567L528.435 67.5037C532.551 74.2011 538.24 79.4428 545.482 83.2243L546.407 81.4514ZM530.142 66.4612C526.227 60.0128 524.262 52.7521 524.262 44.6525H522.262C522.262 53.092 524.314 60.7163 528.433 67.4992L530.142 66.4612ZM524.262 44.6525C524.262 36.5529 526.227 29.3336 530.139 22.9665L528.435 21.9195C524.314 28.6261 522.262 36.2132 522.262 44.6525H524.262ZM530.142 22.962C534.061 16.5077 539.475 11.4737 546.407 7.85363L545.482 6.08082C538.237 9.8639 532.547 15.1472 528.433 21.924L530.142 22.962ZM546.407 7.85363C553.337 4.23478 561.169 2.41485 569.926 2.41485V0.414845C560.884 0.414845 552.728 2.2965 545.482 6.08082L546.407 7.85363ZM569.926 2.41485C578.683 2.41485 586.515 4.23478 593.445 7.85363L594.371 6.08082C587.124 2.2965 578.968 0.414845 569.926 0.414845V2.41485ZM593.445 7.85363C600.377 11.4737 605.791 16.5077 609.71 22.962L611.42 21.924C607.305 15.1472 601.615 9.8639 594.371 6.08082L593.445 7.85363ZM609.713 22.9665C613.625 29.3336 615.59 36.5529 615.59 44.6525H617.59C617.59 36.2132 615.538 28.6261 611.417 21.9195L609.713 22.9665ZM615.59 44.6525C615.59 52.7521 613.625 60.0128 609.71 66.4612L611.42 67.4992C615.538 60.7163 617.59 53.092 617.59 44.6525H615.59ZM609.713 66.4567C605.795 72.833 600.38 77.8298 593.445 81.4514L594.371 83.2243C601.612 79.4428 607.302 74.2011 611.417 67.5037L609.713 66.4567ZM593.445 81.4514C586.515 85.0703 578.683 86.8902 569.926 86.8902V88.8902C578.968 88.8902 587.124 87.0086 594.371 83.2243L593.445 81.4514ZM569.926 66.3263C573.558 66.3263 576.849 65.4574 579.773 63.7029L578.744 61.988C576.155 63.5413 573.225 64.3263 569.926 64.3263V66.3263ZM579.78 63.6987C582.774 61.869 585.139 59.3327 586.873 56.1133L585.112 55.1651C583.538 58.0887 581.414 60.3566 578.737 61.9922L579.78 63.6987ZM586.878 56.104C588.619 52.7874 589.473 48.9606 589.473 44.6525H587.473C587.473 48.6928 586.674 52.1904 585.107 55.1743L586.878 56.104ZM589.473 44.6525C589.473 40.3453 588.619 36.5533 586.873 33.3099L585.112 34.2581C586.673 37.1579 587.473 40.6115 587.473 44.6525H589.473ZM586.878 33.3192C585.144 30.0173 582.774 27.4704 579.763 25.714L578.755 27.4415C581.414 28.993 583.533 31.2502 585.107 34.2489L586.878 33.3192ZM579.791 25.7311C576.865 23.8917 573.567 22.9788 569.926 22.9788V24.9788C573.216 24.9788 576.14 25.7985 578.727 27.4244L579.791 25.7311ZM569.926 22.9788C566.285 22.9788 562.953 23.8917 559.954 25.7245L560.997 27.431C563.668 25.7986 566.636 24.9788 569.926 24.9788V22.9788ZM559.961 25.7203C557.03 27.4784 554.704 30.0244 552.974 33.3192L554.745 34.2489C556.323 31.2431 558.407 28.9849 560.99 27.4353L559.961 25.7203ZM552.979 33.3099C551.233 36.5533 550.379 40.3453 550.379 44.6525H552.379C552.379 40.6115 553.179 37.1579 554.74 34.2581L552.979 33.3099ZM550.379 44.6525C550.379 48.9606 551.233 52.7874 552.974 56.104L554.745 55.1743C553.178 52.1904 552.379 48.6928 552.379 44.6525H550.379ZM552.979 56.1133C554.709 59.3258 557.03 61.8609 559.943 63.6921L561.007 61.9988C558.408 60.3647 556.318 58.0956 554.74 55.1651L552.979 56.1133ZM559.971 63.7092C562.968 65.4574 566.294 66.3263 569.926 66.3263V64.3263C566.628 64.3263 563.653 63.5413 560.979 61.9817L559.971 63.7092ZM662.149 65.2082L662.978 64.648L662.68 64.2082H662.149V65.2082ZM654.589 65.2082V64.2082H653.589V65.2082H654.589ZM654.589 86.0001V87.0001H655.589V86.0001H654.589ZM626.709 86.0001H625.709V87.0001H626.709V86.0001ZM626.709 3.30501V2.30501H625.709V3.30501H626.709ZM686.485 7.08536L686.079 7.99917L686.079 7.99917L686.485 7.08536ZM699.598 17.9539L698.76 18.4988L698.76 18.4988L699.598 17.9539ZM700.189 49.9686L699.334 49.4497L699.334 49.4497L700.189 49.9686ZM688.612 60.4827L688.154 59.5939L687.15 60.1116L687.785 61.0454L688.612 60.4827ZM705.978 86.0001V87.0001H707.868L706.805 85.4374L705.978 86.0001ZM676.208 86.0001L675.379 86.5602L675.677 87.0001H676.208V86.0001ZM673.254 27.4047L672.578 28.1419L672.587 28.1497L672.596 28.1573L673.254 27.4047ZM654.589 24.8057V23.8057H653.589V24.8057H654.589ZM654.589 44.18H653.589V45.18H654.589V44.18ZM673.254 41.6991L673.913 42.4517L673.921 42.4441L673.93 42.4363L673.254 41.6991ZM662.149 64.2082H654.589V66.2082H662.149V64.2082ZM653.589 65.2082V86.0001H655.589V65.2082H653.589ZM654.589 85.0001H626.709V87.0001H654.589V85.0001ZM627.709 86.0001V3.30501H625.709V86.0001H627.709ZM626.709 4.30501H666.52V2.30501H626.709V4.30501ZM666.52 4.30501C674.052 4.30501 680.563 5.5473 686.079 7.99917L686.892 6.17155C681.067 3.58296 674.268 2.30501 666.52 2.30501V4.30501ZM686.079 7.99917C691.592 10.4491 695.804 13.9518 698.76 18.4988L700.437 17.4089C697.249 12.5051 692.72 8.76209 686.892 6.17155L686.079 7.99917ZM698.76 18.4988C701.714 23.0434 703.206 28.3622 703.206 34.4929H705.206C705.206 28.0224 703.626 22.3152 700.437 17.4089L698.76 18.4988ZM703.206 34.4929C703.206 40.2437 701.904 45.2173 699.334 49.4497L701.044 50.4876C703.83 45.8992 705.206 40.5556 705.206 34.4929H703.206ZM699.334 49.4497C696.762 53.6873 693.047 57.0707 688.154 59.5939L689.07 61.3715C694.258 58.6968 698.261 55.0708 701.044 50.4876L699.334 49.4497ZM687.785 61.0454L705.151 86.5627L706.805 85.4374L689.439 59.9201L687.785 61.0454ZM705.978 85.0001H676.208V87.0001H705.978V85.0001ZM677.036 85.4399L662.978 64.648L661.321 65.7683L675.379 86.5602L677.036 85.4399ZM677.089 34.4929C677.089 31.2029 676.067 28.5376 673.913 26.6521L672.596 28.1573C674.221 29.5797 675.089 31.6398 675.089 34.4929H677.089ZM673.93 26.6676C671.784 24.7008 668.662 23.8057 664.748 23.8057V25.8057C668.395 25.8057 670.944 26.6433 672.578 28.1419L673.93 26.6676ZM664.748 23.8057H654.589V25.8057H664.748V23.8057ZM653.589 24.8057V44.18H655.589V24.8057H653.589ZM654.589 45.18H664.748V43.18H654.589V45.18ZM664.748 45.18C668.653 45.18 671.767 44.3289 673.913 42.4517L672.596 40.9466C670.961 42.3772 668.405 43.18 664.748 43.18V45.18ZM673.93 42.4363C676.067 40.477 677.089 37.7845 677.089 34.4929H675.089C675.089 37.3443 674.221 39.4559 672.578 40.962L673.93 42.4363Z" fill="url(#paint0_linear)"/>
<defs>
<linearGradient id="paint0_linear" x1="94.4695" y1="-27.9999" x2="220.243" y2="196.891" gradientUnits="userSpaceOnUse">
<stop stop-color="#F52D2D"/>
<stop offset="0.523958" stop-color="#4271FC"/>
<stop offset="1" stop-color="#2FFCFF"/>
</linearGradient>
</defs>
</svg>
