<svg width="478" height="85" viewBox="0 0 478 85" fill="none" xmlns="http://www.w3.org/2000/svg">
<g filter="url(#filter0_d)">
<path d="M13.4962 27.651L5.32252 19.092L4.88775 18.8203H41.7561L57.799 34.2062L74.2767 18.8203H86.885L64.9292 40.8293L87.1459 62.3288H73.8419L58.0164 46.9089L41.5822 62.3288H4.75732L13.4962 53.5999H38.0171L50.7123 40.8293L37.1475 27.651H13.4962Z" fill="white"/>
<path d="M14.0179 45.0409V36.0063H37.1475L41.7561 40.8293L37.1475 45.0409H14.0179Z" fill="white"/>
<path d="M115.013 64.4678C127.02 64.4678 136.252 56.3984 137.995 44.5202H125.277C123.986 49.5555 120.048 52.8478 115.013 52.8478C108.622 52.8478 103.91 47.7479 103.91 40.7759C103.91 33.804 108.622 28.6395 115.013 28.6395C119.79 28.6395 123.664 31.6736 125.213 36.2571H137.866C135.994 24.8308 126.827 17.0195 115.013 17.0195C101.263 17.0195 90.9985 27.2193 90.9985 40.7759C90.9985 54.268 101.263 64.4678 115.013 64.4678ZM156.34 52.525V45.7467H171.188V35.547H156.34V28.8977H172.866V18.117H143.946V63.3058H173.447V52.525H156.34ZM193.226 51.944V18.117H180.573V63.3058H209.3V51.944H193.226ZM230.311 64.4678C240.833 64.4678 248.386 59.3033 248.386 49.4264C248.386 39.1621 239.736 36.9026 233.022 35.2242C228.826 34.1267 225.404 33.2875 225.404 30.7053C225.404 28.575 227.535 27.6066 229.73 27.6066C232.312 27.6066 234.442 28.9623 234.442 31.8673H246.966C246.966 22.6359 240.704 17.0841 229.859 17.0841C219.207 17.0841 212.687 22.184 212.687 31.0926C212.687 41.3569 221.015 43.3582 227.535 44.972C231.86 46.0049 235.411 46.8442 235.411 49.6846C235.411 52.1377 232.893 53.5579 230.311 53.5579C227.47 53.5579 224.953 51.944 224.953 48.7163H212.106C212.106 58.5932 219.272 64.4678 230.311 64.4678ZM254.9 63.3058H267.553V18.117H254.9V63.3058ZM298.801 64.4678C313.326 64.4678 323.655 54.5908 323.655 40.7759C323.655 26.8965 313.326 17.0195 298.801 17.0195C284.276 17.0195 273.948 26.9611 273.948 40.7759C273.948 54.5262 284.276 64.4678 298.801 64.4678ZM298.801 52.9124C291.959 52.9124 286.859 47.7479 286.859 40.7759C286.859 33.7394 291.959 28.575 298.801 28.575C305.709 28.575 310.68 33.6748 310.68 40.7759C310.68 47.8125 305.709 52.9124 298.801 52.9124ZM354.321 63.3058H368.201L359.227 46.9087C363.682 44.2619 366.393 39.6785 366.393 34.1267C366.393 24.7016 359.292 18.117 349.609 18.117H329.984V63.3058H342.443V49.4909H346.962L354.321 63.3058ZM342.443 29.2205H348.124C351.61 29.2205 353.611 31.2863 353.611 34.1267C353.611 36.9026 351.61 39.0329 348.124 39.0329H342.443V29.2205Z" fill="white"/>
<path d="M387.778 35.8727H385.972V37.8434L387.935 37.6719L387.778 35.8727ZM399.011 13.4719H400.817V11.6658H399.011V13.4719ZM387.262 13.4719V11.6658H385.456V13.4719H387.262ZM387.262 24.5754H385.456V26.3815H387.262V24.5754ZM392.878 24.5754H394.684V22.7694H392.878V24.5754ZM387.778 29.9335L387.612 28.1352L385.972 28.287V29.9335H387.778ZM387.935 37.6719C391.638 37.3483 394.881 35.8955 397.202 33.4316C399.53 30.9611 400.817 27.5964 400.817 23.6717H397.205C397.205 26.7835 396.2 29.2288 394.573 30.9544C392.941 32.6865 390.567 33.816 387.621 34.0734L387.935 37.6719ZM400.817 23.6717V13.4719H397.205V23.6717H400.817ZM399.011 11.6658H387.262V15.278H399.011V11.6658ZM385.456 13.4719V24.5754H389.068V13.4719H385.456ZM387.262 26.3815H392.878V22.7694H387.262V26.3815ZM391.072 24.5754C391.072 25.6165 390.773 26.4215 390.28 26.9802C389.799 27.5268 388.982 28.0082 387.612 28.1352L387.945 31.7319C390.06 31.5361 391.794 30.7264 392.99 29.3686C394.176 28.023 394.684 26.3103 394.684 24.5754H391.072ZM385.972 29.9335V35.8727H389.584V29.9335H385.972ZM437.12 49.5584L435.751 48.3803L433.183 51.3645H437.12V49.5584ZM417.818 30.9019H416.012V32.708H417.818V30.9019ZM429.179 30.9019V32.708H430.985V30.9019H429.179ZM417.107 57.1114L415.73 55.9432L415.301 56.4486V57.1114H417.107ZM417.107 59.6936H415.301V61.4997H417.107V59.6936ZM449.062 59.6936V61.4997H450.869V59.6936H449.062ZM449.062 49.5584H450.869V47.7523H449.062V49.5584ZM438.489 50.7365C447.658 40.082 450.094 35.4994 450.094 29.3526H446.482C446.482 34.0511 444.915 37.7315 435.751 48.3803L438.489 50.7365ZM450.094 29.3526C450.094 24.8217 448.322 20.9173 445.217 18.1645C442.129 15.4268 437.838 13.9253 432.924 13.9253V17.5374C437.112 17.5374 440.502 18.8118 442.821 20.8674C445.122 22.9078 446.482 25.814 446.482 29.3526H450.094ZM432.924 13.9253C427.848 13.9253 423.585 15.4611 420.581 18.3621C417.572 21.2686 416.012 25.3678 416.012 30.1272H419.624C419.624 26.1716 420.904 23.0729 423.091 20.9603C425.284 18.842 428.574 17.5374 432.924 17.5374V13.9253ZM416.012 30.1272V30.9019H419.624V30.1272H416.012ZM417.818 32.708H429.179V29.0958H417.818V32.708ZM430.985 30.9019V30.0627H427.373V30.9019H430.985ZM430.985 30.0627C430.985 29.1111 431.255 28.538 431.548 28.2207C431.825 27.9203 432.283 27.6726 433.053 27.6726V24.0605C431.434 24.0605 429.955 24.6198 428.893 25.7719C427.846 26.9071 427.373 28.432 427.373 30.0627H430.985ZM433.053 27.6726C433.712 27.6726 434.166 27.897 434.455 28.1933C434.747 28.4918 434.991 28.9872 434.991 29.7399H438.603C438.603 28.1685 438.072 26.7273 437.04 25.6701C436.006 24.6108 434.588 24.0605 433.053 24.0605V27.6726ZM434.991 29.7399C434.991 30.9954 434.675 32.3499 431.974 36.1004C429.266 39.8619 424.398 45.7227 415.73 55.9432L418.485 58.2796C427.118 48.1005 432.095 42.1154 434.906 38.211C437.725 34.2955 438.603 32.1641 438.603 29.7399H434.991ZM415.301 57.1114V59.6936H418.914V57.1114H415.301ZM417.107 61.4997H449.062V57.8875H417.107V61.4997ZM450.869 59.6936V49.5584H447.256V59.6936H450.869ZM449.062 47.7523H437.12V51.3645H449.062V47.7523ZM453.803 16.7642V14.9582H451.997V16.7642H453.803ZM453.803 26.5121H451.997V28.3182H453.803V26.5121ZM460.194 26.5121H462V24.706H460.194V26.5121ZM460.194 59.6936H458.388V61.4997H460.194V59.6936ZM471.749 59.6936V61.4997H473.555V59.6936H471.749ZM471.749 16.7642H473.555V14.9582H471.749V16.7642ZM451.997 16.7642V26.5121H455.609V16.7642H451.997ZM453.803 28.3182H460.194V24.706H453.803V28.3182ZM458.388 26.5121V59.6936H462V26.5121H458.388ZM460.194 61.4997H471.749V57.8875H460.194V61.4997ZM473.555 59.6936V16.7642H469.943V59.6936H473.555ZM471.749 14.9582H453.803V18.5703H471.749V14.9582Z" fill="white"/>
</g>
<defs>
<filter id="filter0_d" x="0.757324" y="11.6658" width="476.798" height="60.8019" filterUnits="userSpaceOnUse" color-interpolation-filters="sRGB">
<feFlood flood-opacity="0" result="BackgroundImageFix"/>
<feColorMatrix in="SourceAlpha" type="matrix" values="0 0 0 0 0 0 0 0 0 0 0 0 0 0 0 0 0 0 127 0"/>
<feOffset dy="4"/>
<feGaussianBlur stdDeviation="2"/>
<feColorMatrix type="matrix" values="0 0 0 0 0 0 0 0 0 0 0 0 0 0 0 0 0 0 0.25 0"/>
<feBlend mode="normal" in2="BackgroundImageFix" result="effect1_dropShadow"/>
<feBlend mode="normal" in="SourceGraphic" in2="effect1_dropShadow" result="shape"/>
</filter>
</defs>
</svg>
