<svg width="942" height="114" viewBox="0 0 942 114" fill="none" xmlns="http://www.w3.org/2000/svg">
<path opacity="0.7" d="M77.9294 109L76.0677 109.626L76.5176 110.964H77.9294V109ZM107.659 109V110.964H110.564L109.482 108.268L107.659 109ZM68.4383 11.2971L70.2611 10.5653L69.7663 9.33285H68.4383V11.2971ZM42.0585 11.2971V9.33285H40.7198L40.2303 10.5788L42.0585 11.2971ZM3.67518 109L1.84699 108.282L0.79318 110.964H3.67518V109ZM32.5673 109V110.964H33.9673L34.4241 109.641L32.5673 109ZM38.0108 93.228V91.2637H36.6108L36.154 92.5871L38.0108 93.228ZM72.6255 93.228L74.4873 92.6019L74.0373 91.2637H72.6255V93.228ZM66.0655 72.152V74.1162H68.8588L67.9139 71.4876L66.0655 72.152ZM44.5708 72.152L42.717 71.5028L41.8017 74.1162H44.5708V72.152ZM55.1786 41.8641L57.027 41.1997L55.1546 35.9904L53.3248 41.2149L55.1786 41.8641ZM77.9294 110.964H107.659V107.036H77.9294V110.964ZM109.482 108.268L70.2611 10.5653L66.6155 12.0288L105.836 109.732L109.482 108.268ZM68.4383 9.33285H42.0585V13.2613H68.4383V9.33285ZM40.2303 10.5788L1.84699 108.282L5.50337 109.718L43.8867 12.0153L40.2303 10.5788ZM3.67518 110.964H32.5673V107.036H3.67518V110.964ZM34.4241 109.641L39.8675 93.8688L36.154 92.5871L30.7106 108.359L34.4241 109.641ZM38.0108 95.1922H72.6255V91.2637H38.0108V95.1922ZM70.7638 93.854L76.0677 109.626L79.7912 108.374L74.4873 92.6019L70.7638 93.854ZM66.0655 70.1878H44.5708V74.1162H66.0655V70.1878ZM46.4246 72.8013L57.0324 42.5134L53.3248 41.2149L42.717 71.5028L46.4246 72.8013ZM53.3302 42.5285L64.2171 72.8164L67.9139 71.4876L57.027 41.1997L53.3302 42.5285ZM115.774 109H113.81V110.964H115.774V109ZM141.735 109V110.964H143.699V109H141.735ZM141.735 6.41191H143.699V4.4477H141.735V6.41191ZM115.774 6.41191V4.4477H113.81V6.41191H115.774ZM115.774 110.964H141.735V107.036H115.774V110.964ZM143.699 109V6.41191H139.771V109H143.699ZM141.735 4.4477H115.774V8.37613H141.735V4.4477ZM113.81 6.41191V109H117.738V6.41191H113.81ZM231.306 33.6292H233.27V31.665H231.306V33.6292ZM205.345 33.6292V31.665H203.38V33.6292H205.345ZM183.012 33.6292H184.977V31.665H183.012V33.6292ZM157.051 33.6292V31.665H155.087V33.6292H157.051ZM194.178 113.477C205.744 113.477 215.537 109.93 222.456 103.475C229.39 97.0077 233.27 87.7763 233.27 76.758H229.341C229.341 86.8157 225.824 94.9615 219.777 100.602C213.716 106.256 204.945 109.548 194.178 109.548V113.477ZM233.27 76.758V33.6292H229.341V76.758H233.27ZM231.306 31.665H205.345V35.5934H231.306V31.665ZM203.38 33.6292V75.6414H207.309V33.6292H203.38ZM203.38 75.6414C203.38 79.2143 202.425 81.8414 200.909 83.5499C199.42 85.2285 197.199 86.239 194.178 86.239V90.1674C198.137 90.1674 201.499 88.8052 203.848 86.1569C206.171 83.5386 207.309 79.8848 207.309 75.6414H203.38ZM194.178 86.239C191.22 86.239 188.994 85.2574 187.489 83.5898C185.962 81.8982 184.977 79.2758 184.977 75.6414H181.048C181.048 79.9629 182.226 83.6214 184.573 86.2217C186.941 88.8461 190.298 90.1674 194.178 90.1674V86.239ZM184.977 75.6414V33.6292H181.048V75.6414H184.977ZM183.012 31.665H157.051V35.5934H183.012V31.665ZM155.087 33.6292V76.758H159.016V33.6292H155.087ZM155.087 76.758C155.087 87.7818 159.006 97.0123 165.955 103.477C172.89 109.928 182.68 113.477 194.178 113.477V109.548C183.484 109.548 174.711 106.257 168.631 100.601C162.564 94.9569 159.016 86.8102 159.016 76.758H155.087ZM312.227 42.562L310.602 43.6665L312.102 45.8723L313.764 43.7852L312.227 42.562ZM268.54 41.8641L266.742 42.6562L268.008 45.5285L270.038 43.1343L268.54 41.8641ZM264.911 33.6292L266.708 32.8371L266.191 31.665H264.911V33.6292ZM246.626 33.6292V31.665H244.662V33.6292H246.626ZM246.626 109H244.662V110.964H246.626V109ZM272.587 109V110.964H274.551V109H272.587ZM291.849 109H289.884V110.964H291.849V109ZM317.112 109V110.964H319.076V109H317.112ZM336.234 109H334.27V110.964H336.234V109ZM362.195 109V110.964H364.159V109H362.195ZM335.396 29.5713C325.446 29.5713 316.506 34.0316 310.69 41.3388L313.764 43.7852C318.835 37.414 326.643 33.4997 335.396 33.4997V29.5713ZM313.851 41.4575C308.72 33.9123 300.419 29.5713 290.592 29.5713V33.4997C299.189 33.4997 306.242 37.2541 310.602 43.6665L313.851 41.4575ZM290.592 29.5713C281.335 29.5713 272.841 33.7537 267.041 40.5939L270.038 43.1343C275.125 37.1336 282.542 33.4997 290.592 33.4997V29.5713ZM270.337 41.072L266.708 32.8371L263.113 34.4212L266.742 42.6562L270.337 41.072ZM264.911 31.665H246.626V35.5934H264.911V31.665ZM244.662 33.6292V109H248.59V33.6292H244.662ZM246.626 110.964H272.587V107.036H246.626V110.964ZM274.551 109V67.6856H270.623V109H274.551ZM274.551 67.6856C274.551 63.2414 275.486 60.1345 276.976 58.1817C278.401 56.3119 280.507 55.2735 283.474 55.2735V51.3451C279.463 51.3451 276.125 52.8192 273.852 55.7996C271.642 58.697 270.623 62.7783 270.623 67.6856H274.551ZM283.474 55.2735C285.644 55.2735 287.107 56.0428 288.106 57.4371C289.181 58.9371 289.884 61.3953 289.884 65.0337H293.813C293.813 60.9954 293.05 57.5914 291.299 55.1484C289.472 52.5997 286.748 51.3451 283.474 51.3451V55.2735ZM289.884 65.0337V109H293.813V65.0337H289.884ZM291.849 110.964H317.112V107.036H291.849V110.964ZM319.076 109V67.6856H315.148V109H319.076ZM319.076 67.6856C319.076 63.1371 319.955 60.0364 321.39 58.1132C322.749 56.293 324.797 55.2735 327.859 55.2735V51.3451C323.803 51.3451 320.478 52.7683 318.242 55.7634C316.083 58.6555 315.148 62.743 315.148 67.6856H319.076ZM327.859 55.2735C330.158 55.2735 331.594 56.015 332.547 57.3365C333.589 58.7832 334.27 61.2225 334.27 65.0337H338.198C338.198 60.889 337.482 57.4661 335.734 55.0396C333.895 52.4879 331.144 51.3451 327.859 51.3451V55.2735ZM334.27 65.0337V109H338.198V65.0337H334.27ZM336.234 110.964H362.195V107.036H336.234V110.964ZM364.159 109V61.8234H360.231V109H364.159ZM364.159 61.8234C364.159 52.5763 361.39 44.5175 356.347 38.7405C351.283 32.9394 344.035 29.5713 335.396 29.5713V33.4997C342.948 33.4997 349.1 36.4125 353.387 41.3239C357.696 46.2593 360.231 53.3444 360.231 61.8234H364.159ZM399.525 41.4454L397.731 42.2461L398.971 45.0244L400.993 42.7503L399.525 41.4454ZM396.035 33.6292L397.829 32.8284L397.31 31.665H396.035V33.6292ZM377.751 33.6292V31.665H375.787V33.6292H377.751ZM377.751 109H375.787V110.964H377.751V109ZM403.712 109V110.964H405.676V109H403.712ZM426.323 109H424.359V110.964H426.323V109ZM452.284 109V110.964H454.249V109H452.284ZM423.253 29.5713C412.989 29.5713 404.055 33.3922 398.057 40.1404L400.993 42.7503C406.16 36.9368 413.976 33.4997 423.253 33.4997V29.5713ZM401.318 40.6447L397.829 32.8284L394.242 34.4299L397.731 42.2461L401.318 40.6447ZM396.035 31.665H377.751V35.5934H396.035V31.665ZM375.787 33.6292V109H379.715V33.6292H375.787ZM377.751 110.964H403.712V107.036H377.751V110.964ZM405.676 109V68.8022H401.748V109H405.676ZM405.676 68.8022C405.676 64.2714 406.762 60.9728 408.537 58.8403C410.268 56.7598 412.85 55.5527 416.413 55.5527V51.6243C411.881 51.6243 408.113 53.2086 405.517 56.3274C402.965 59.394 401.748 63.7023 401.748 68.8022H405.676ZM416.413 55.5527C419.222 55.5527 421.057 56.4509 422.264 58.0396C423.549 59.7296 424.359 62.506 424.359 66.7086H428.287C428.287 62.118 427.423 58.3343 425.392 55.6625C423.285 52.8895 420.164 51.6243 416.413 51.6243V55.5527ZM424.359 66.7086V109H428.287V66.7086H424.359ZM426.323 110.964H452.284V107.036H426.323V110.964ZM454.249 109V63.0796H450.32V109H454.249ZM454.249 63.0796C454.249 53.1242 451.228 44.7298 445.754 38.804C440.266 32.8638 432.464 29.5713 423.253 29.5713V33.4997C431.488 33.4997 438.202 36.4184 442.868 41.4697C447.548 46.5356 450.32 53.9132 450.32 63.0796H454.249ZM467.851 24.2776H465.887V26.2418H467.851V24.2776ZM493.533 24.2776V26.2418H495.497V24.2776H493.533ZM493.533 2.22464H495.497V0.260431H493.533V2.22464ZM467.851 2.22464V0.260431H465.887V2.22464H467.851ZM467.712 109H465.748V110.964H467.712V109ZM493.673 109V110.964H495.637V109H493.673ZM493.673 33.6292H495.637V31.665H493.673V33.6292ZM467.712 33.6292V31.665H465.748V33.6292H467.712ZM467.851 26.2418H493.533V22.3134H467.851V26.2418ZM495.497 24.2776V2.22464H491.569V24.2776H495.497ZM493.533 0.260431H467.851V4.18885H493.533V0.260431ZM465.887 2.22464V24.2776H469.816V2.22464H465.887ZM467.712 110.964H493.673V107.036H467.712V110.964ZM495.637 109V33.6292H491.709V109H495.637ZM493.673 31.665H467.712V35.5934H493.673V31.665ZM465.748 33.6292V109H469.676V33.6292H465.748ZM509.966 57.4966H508.002V59.6399L510.137 59.4533L509.966 57.4966ZM534.252 9.06385H536.216V7.09964H534.252V9.06385ZM508.85 9.06385V7.09964H506.885V9.06385H508.85ZM508.85 33.0709H506.885V35.0351H508.85V33.0709ZM520.993 33.0709H522.957V31.1066H520.993V33.0709ZM509.966 44.6556L509.785 42.6998L508.002 42.8649V44.6556H509.966ZM510.137 59.4533C517.737 58.7893 524.28 55.822 528.93 50.8878C533.586 45.9466 536.216 39.1657 536.216 31.1168H532.288C532.288 38.2816 529.964 44.0626 526.071 48.1937C522.171 52.332 516.572 54.9477 509.795 55.5398L510.137 59.4533ZM536.216 31.1168V9.06385H532.288V31.1168H536.216ZM534.252 7.09964H508.85V11.0281H534.252V7.09964ZM506.885 9.06385V33.0709H510.814V9.06385H506.885ZM508.85 35.0351H520.993V31.1066H508.85V35.0351ZM519.028 33.0709C519.028 35.6945 518.27 37.9226 516.832 39.5535C515.406 41.1711 513.149 42.3883 509.785 42.6998L510.147 46.6115C514.321 46.225 517.576 44.6508 519.779 42.1509C521.971 39.6643 522.957 36.449 522.957 33.0709H519.028ZM508.002 44.6556V57.4966H511.93V44.6556H508.002ZM580.974 61.8234L580.633 63.7578L580.637 63.7584L580.974 61.8234ZM582.928 56.6591H580.964V58.6233H582.928V56.6591ZM607.354 56.6591V58.6233H609.354L609.318 56.6231L607.354 56.6591ZM570.366 79.8287L570.043 81.7662L570.056 81.7682L570.068 81.7701L570.366 79.8287ZM567.156 84.2951H569.12V82.3309H567.156V84.2951ZM542.172 84.2951V82.3309H540.174L540.208 84.3287L542.172 84.2951ZM575.391 113.477C585.757 113.477 594.559 110.814 600.817 105.924C607.119 101 610.714 93.9047 610.714 85.4117H606.785C606.785 92.6908 603.751 98.646 598.398 102.829C593.001 107.046 585.124 109.548 575.391 109.548V113.477ZM610.714 85.4117C610.714 80.3879 609.668 76.3256 607.806 73.0433C605.944 69.7594 603.33 67.372 600.373 65.5996C594.555 62.1125 587.214 60.918 581.312 59.8884L580.637 63.7584C586.737 64.8225 593.284 65.931 598.353 68.9691C600.84 70.4592 602.919 72.39 604.389 74.9814C605.86 77.5743 606.785 80.9443 606.785 85.4117H610.714ZM581.315 59.8891C577.692 59.2497 574.716 58.6881 572.635 57.8274C571.612 57.4045 570.968 56.9714 570.593 56.5576C570.262 56.1942 570.097 55.8062 570.097 55.2634H566.169C566.169 56.8142 566.719 58.136 567.685 59.1989C568.604 60.2114 569.836 60.9211 571.134 61.4577C573.693 62.5162 577.138 63.141 580.633 63.7578L581.315 59.8891ZM570.097 55.2634C570.097 54.098 570.537 53.2808 571.266 52.7078C572.047 52.094 573.322 51.6446 575.112 51.6446V47.7161C572.715 47.7161 570.5 48.3135 568.839 49.6189C567.125 50.9651 566.169 52.9394 566.169 55.2634H570.097ZM575.112 51.6446C577.128 51.6446 578.576 52.1358 579.488 52.8975C580.344 53.613 580.964 54.7628 580.964 56.6591H584.892C584.892 53.8099 583.907 51.4703 582.007 49.8828C580.162 48.3415 577.702 47.7161 575.112 47.7161V51.6446ZM582.928 58.6233H607.354V54.6949H582.928V58.6233ZM609.318 56.6231C609.168 48.4377 605.691 41.5357 599.665 36.7183C593.673 31.9284 585.286 29.2922 575.391 29.2922V33.2206C584.618 33.2206 592.073 35.6789 597.212 39.7869C602.317 43.8675 605.261 49.6669 605.39 56.6952L609.318 56.6231ZM575.391 29.2922C565.45 29.2922 556.934 31.8117 550.853 36.4661C544.726 41.1558 541.185 47.938 541.185 56.1008H545.113C545.113 49.1895 548.062 43.5495 553.241 39.5855C558.466 35.5862 566.071 33.2206 575.391 33.2206V29.2922ZM541.185 56.1008C541.185 65.9367 545.42 71.9946 551.306 75.7451C557.022 79.3878 564.201 80.7924 570.043 81.7662L570.689 77.8912C564.808 76.911 558.378 75.5938 553.417 72.4322C548.625 69.3784 545.113 64.5494 545.113 56.1008H541.185ZM570.068 81.7701C573.733 82.3339 576.734 82.8994 578.81 83.7822C579.83 84.2161 580.478 84.6679 580.86 85.1057C581.203 85.4976 581.383 85.9301 581.383 86.5283H585.311C585.311 84.9631 584.776 83.6161 583.818 82.5206C582.901 81.471 581.665 80.7277 580.347 80.1672C577.747 79.061 574.258 78.4401 570.665 77.8873L570.068 81.7701ZM581.383 86.5283C581.383 87.7831 580.837 88.6761 579.925 89.3225C578.953 90.0121 577.527 90.4263 575.949 90.4263V94.3547C578.14 94.3547 580.413 93.7919 582.197 92.5274C584.042 91.2198 585.311 89.1817 585.311 86.5283H581.383ZM575.949 90.4263C573.816 90.4263 572.114 89.8758 570.98 88.9289C569.9 88.0268 569.12 86.5885 569.12 84.2951H565.192C565.192 87.5848 566.367 90.1941 568.462 91.944C570.503 93.649 573.197 94.3547 575.949 94.3547V90.4263ZM567.156 82.3309H542.172V86.2593H567.156V82.3309ZM540.208 84.3287C540.357 93.0194 543.757 100.379 549.933 105.535C556.078 110.665 564.799 113.477 575.391 113.477V109.548C565.466 109.548 557.717 106.916 552.451 102.52C547.217 98.1503 544.267 91.9011 544.136 84.2615L540.208 84.3287ZM721.894 11.2971H723.858V9.33285H721.894V11.2971ZM641.778 11.2971V9.33285H639.814V11.2971H641.778ZM641.778 35.5832H639.814V37.5474H641.778V35.5832ZM668.297 35.5832H670.261V33.619H668.297V35.5832ZM668.297 109H666.333V110.964H668.297V109ZM695.375 109V110.964H697.339V109H695.375ZM695.375 35.5832V33.619H693.411V35.5832H695.375ZM721.894 35.5832V37.5474H723.858V35.5832H721.894ZM721.894 9.33285H641.778V13.2613H721.894V9.33285ZM639.814 11.2971V35.5832H643.742V11.2971H639.814ZM641.778 37.5474H668.297V33.619H641.778V37.5474ZM666.333 35.5832V109H670.261V35.5832H666.333ZM668.297 110.964H695.375V107.036H668.297V110.964ZM697.339 109V35.5832H693.411V109H697.339ZM695.375 37.5474H721.894V33.619H695.375V37.5474ZM723.858 35.5832V11.2971H719.93V35.5832H723.858ZM782.774 33.6292V31.665H781.507L780.985 32.8196L782.774 33.6292ZM780.122 39.4913L778.858 40.9947L780.843 42.6638L781.912 40.3009L780.122 39.4913ZM779.843 103.696L781.654 102.934L780.634 100.512L778.599 102.176L779.843 103.696ZM782.076 109L780.266 109.762L780.772 110.964H782.076V109ZM802.175 109V110.964H804.14V109H802.175ZM802.175 33.6292H804.14V31.665H802.175V33.6292ZM780.985 32.8196L778.333 38.6818L781.912 40.3009L784.564 34.4387L780.985 32.8196ZM781.387 37.988C774.875 32.5123 766.466 29.4317 757.092 29.4317V33.3602C765.584 33.3602 773.087 36.1417 778.858 40.9947L781.387 37.988ZM757.092 29.4317C732.959 29.4317 715.628 46.9391 715.628 71.3146H719.557C719.557 49.0718 735.166 33.3602 757.092 33.3602V29.4317ZM715.628 71.3146C715.628 95.8159 732.946 113.477 757.092 113.477V109.548C735.179 109.548 719.557 93.7107 719.557 71.3146H715.628ZM757.092 113.477C766.314 113.477 774.576 110.544 781.087 105.216L778.599 102.176C772.828 106.898 765.457 109.548 757.092 109.548V113.477ZM778.033 104.458L780.266 109.762L783.887 108.238L781.654 102.934L778.033 104.458ZM782.076 110.964H802.175V107.036H782.076V110.964ZM804.14 109V33.6292H800.211V109H804.14ZM802.175 31.665H782.774V35.5934H802.175V31.665ZM760.582 86.6577C751.949 86.6577 745.657 80.1931 745.657 71.3146H741.729C741.729 82.2558 749.674 90.5862 760.582 90.5862V86.6577ZM745.657 71.3146C745.657 62.6076 751.918 56.2506 760.582 56.2506V52.3221C749.705 52.3221 741.729 60.481 741.729 71.3146H745.657ZM760.582 56.2506C769.246 56.2506 775.506 62.6076 775.506 71.3146H779.435C779.435 60.481 771.458 52.3221 760.582 52.3221V56.2506ZM775.506 71.3146C775.506 80.1931 769.215 86.6577 760.582 86.6577V90.5862C771.49 90.5862 779.435 82.2558 779.435 71.3146H775.506ZM818.559 109H816.595V110.964H818.559V109ZM844.52 109V110.964H846.484V109H844.52ZM844.52 6.41191H846.484V4.4477H844.52V6.41191ZM818.559 6.41191V4.4477H816.595V6.41191H818.559ZM818.559 110.964H844.52V107.036H818.559V110.964ZM846.484 109V6.41191H842.556V109H846.484ZM844.52 4.4477H818.559V8.37613H844.52V4.4477ZM816.595 6.41191V109H820.523V6.41191H816.595ZM937.44 109V110.964H941.089L939.08 107.919L937.44 109ZM911.479 69.6397L909.836 68.5634L909.129 69.6434L909.84 70.7212L911.479 69.6397ZM935.068 33.6292L936.711 34.7054L938.702 31.665H935.068V33.6292ZM905.896 33.6292V31.665H904.792L904.218 32.6081L905.896 33.6292ZM887.891 63.2192H885.927V70.2258L889.569 64.2402L887.891 63.2192ZM887.891 6.41191H889.855V4.4477H887.891V6.41191ZM861.93 6.41191V4.4477H859.966V6.41191H861.93ZM861.93 109H859.966V110.964H861.93V109ZM887.891 109V110.964H889.855V109H887.891ZM887.891 77.1768L889.581 76.176L885.927 70.0042V77.1768H887.891ZM906.734 109L905.044 110.001L905.614 110.964H906.734V109ZM939.08 107.919L913.119 68.5582L909.84 70.7212L935.801 110.081L939.08 107.919ZM913.122 70.716L936.711 34.7054L933.425 32.5529L909.836 68.5634L913.122 70.716ZM935.068 31.665H905.896V35.5934H935.068V31.665ZM904.218 32.6081L886.213 62.1982L889.569 64.2402L907.574 34.6502L904.218 32.6081ZM889.855 63.2192V6.41191H885.927V63.2192H889.855ZM887.891 4.4477H861.93V8.37613H887.891V4.4477ZM859.966 6.41191V109H863.894V6.41191H859.966ZM861.93 110.964H887.891V107.036H861.93V110.964ZM889.855 109V77.1768H885.927V109H889.855ZM886.201 78.1775L905.044 110.001L908.424 107.999L889.581 76.176L886.201 78.1775ZM906.734 110.964H937.44V107.036H906.734V110.964Z" fill="url(#paint0_linear)"/>
<defs>
<linearGradient id="paint0_linear" x1="469.5" y1="-18" x2="470" y2="109" gradientUnits="userSpaceOnUse">
<stop stop-color="white"/>
<stop offset="1" stop-color="white" stop-opacity="0"/>
</linearGradient>
</defs>
</svg>
