<svg width="322" height="51" viewBox="0 0 322 51" fill="none" xmlns="http://www.w3.org/2000/svg">
<path opacity="0.4" d="M36.3473 39.4L36.8093 39.209L36.6816 38.9H36.3473V39.4ZM15.5472 39.4V38.9H15.2129L15.0852 39.209L15.5472 39.4ZM11.5793 49V49.5H11.9136L12.0413 49.191L11.5793 49ZM0.95525 49L0.49856 48.7964L0.184977 49.5H0.95525V49ZM20.9232 4.2V3.7H20.5987L20.4666 3.99644L20.9232 4.2ZM31.1633 4.2L31.6197 3.9959L31.4874 3.7H31.1633V4.2ZM51.1953 49V49.5H51.9665L51.6517 48.7959L51.1953 49ZM40.3153 49L39.8532 49.191L39.9809 49.5H40.3153V49ZM33.0833 31.528V32.028H33.8315L33.5452 31.3367L33.0833 31.528ZM25.9793 14.376L26.4412 14.1847L25.9793 13.0693L25.5173 14.1847L25.9793 14.376ZM18.8753 31.528L18.4133 31.3367L18.127 32.028H18.8753V31.528ZM36.3473 38.9H15.5472V39.9H36.3473V38.9ZM15.0852 39.209L11.1172 48.809L12.0413 49.191L16.0093 39.591L15.0852 39.209ZM11.5793 48.5H0.95525V49.5H11.5793V48.5ZM1.41194 49.2036L21.3799 4.40355L20.4666 3.99644L0.49856 48.7964L1.41194 49.2036ZM20.9232 4.7H31.1633V3.7H20.9232V4.7ZM30.7068 4.40409L50.7388 49.2041L51.6517 48.7959L31.6197 3.9959L30.7068 4.40409ZM51.1953 48.5H40.3153V49.5H51.1953V48.5ZM40.7773 48.809L36.8093 39.209L35.8852 39.591L39.8532 49.191L40.7773 48.809ZM33.5452 31.3367L26.4412 14.1847L25.5173 14.5673L32.6213 31.7193L33.5452 31.3367ZM25.5173 14.1847L18.4133 31.3367L19.3372 31.7193L26.4412 14.5673L25.5173 14.1847ZM18.8753 32.028H33.0833V31.028H18.8753V32.028ZM55.8432 4.2V3.7H55.3432V4.2H55.8432ZM66.2113 4.2H66.7113V3.7H66.2113V4.2ZM66.2113 40.552H65.7113V41.052H66.2113V40.552ZM88.6752 40.552H89.1752V40.052H88.6752V40.552ZM88.6752 49V49.5H89.1752V49H88.6752ZM55.8432 49H55.3432V49.5H55.8432V49ZM55.8432 4.7H66.2113V3.7H55.8432V4.7ZM65.7113 4.2V40.552H66.7113V4.2H65.7113ZM66.2113 41.052H88.6752V40.052H66.2113V41.052ZM88.1752 40.552V49H89.1752V40.552H88.1752ZM88.6752 48.5H55.8432V49.5H88.6752V48.5ZM56.3432 49V4.2H55.3432V49H56.3432ZM98.8337 44.456L98.4802 44.8096L98.4823 44.8117L98.8337 44.456ZM93.5218 4.2V3.7H93.0218V4.2H93.5218ZM103.89 4.2H104.39V3.7H103.89V4.2ZM121.298 38.056L121.671 38.3882L121.675 38.3841L121.298 38.056ZM123.858 4.2V3.7H123.358V4.2H123.858ZM134.098 4.2H134.598V3.7H134.098V4.2ZM128.722 44.456L128.37 44.1003L128.368 44.1024L128.722 44.456ZM113.81 49.268C107.504 49.268 102.652 47.5259 99.1852 44.1003L98.4823 44.8117C102.183 48.4687 107.315 50.268 113.81 50.268V49.268ZM99.1873 44.1024C95.7663 40.6814 94.0218 35.769 94.0218 29.288H93.0218C93.0218 35.9483 94.8185 41.1479 98.4802 44.8096L99.1873 44.1024ZM94.0218 29.288V4.2H93.0218V29.288H94.0218ZM93.5218 4.7H103.89V3.7H93.5218V4.7ZM103.39 4.2V28.904H104.39V4.2H103.39ZM103.39 28.904C103.39 32.9714 104.232 36.115 106.001 38.2473C107.785 40.3975 110.442 41.436 113.874 41.436V40.436C110.65 40.436 108.314 39.4692 106.771 37.6087C105.212 35.7304 104.39 32.8579 104.39 28.904H103.39ZM113.874 41.436C117.219 41.436 119.846 40.4417 121.671 38.3882L120.924 37.7238C119.336 39.5103 117.014 40.436 113.874 40.436V41.436ZM121.675 38.3841C123.496 36.29 124.358 33.0958 124.358 28.904H123.358C123.358 32.9895 122.513 35.8967 120.92 37.7279L121.675 38.3841ZM124.358 28.904V4.2H123.358V28.904H124.358ZM123.858 4.7H134.098V3.7H123.858V4.7ZM133.598 4.2V29.288H134.598V4.2H133.598ZM133.598 29.288C133.598 35.7674 131.833 40.679 128.37 44.1003L129.073 44.8117C132.779 41.1503 134.598 35.9499 134.598 29.288H133.598ZM128.368 44.1024C124.945 47.5258 120.116 49.268 113.81 49.268V50.268C120.304 50.268 125.416 48.4688 129.075 44.8096L128.368 44.1024ZM185.111 49L184.611 49.0012L184.612 49.5H185.111V49ZM185.047 22.12L185.547 22.1188L185.543 20.31L184.618 21.8642L185.047 22.12ZM171.863 44.264V44.764H172.147L172.293 44.5198L171.863 44.264ZM167.191 44.264L166.764 44.5239L166.91 44.764H167.191V44.264ZM154.071 22.696L154.498 22.4361L153.571 20.912V22.696H154.071ZM154.071 49V49.5H154.571V49H154.071ZM144.343 49H143.843V49.5H144.343V49ZM144.343 4.2V3.7H143.843V4.2H144.343ZM152.919 4.2L153.348 3.94203L153.202 3.7H152.919V4.2ZM169.687 32.04L169.259 32.298L169.691 33.0146L170.117 32.2951L169.687 32.04ZM186.199 4.2V3.7H185.914L185.769 3.94493L186.199 4.2ZM194.711 4.2L195.211 4.19857L195.21 3.7H194.711V4.2ZM194.839 49V49.5H195.341L195.339 48.9986L194.839 49ZM185.611 48.9988L185.547 22.1188L184.547 22.1212L184.611 49.0012L185.611 48.9988ZM184.618 21.8642L171.434 44.0082L172.293 44.5198L185.477 22.3758L184.618 21.8642ZM171.863 43.764H167.191V44.764H171.863V43.764ZM167.618 44.0041L154.498 22.4361L153.644 22.9559L166.764 44.5239L167.618 44.0041ZM153.571 22.696V49H154.571V22.696H153.571ZM154.071 48.5H144.343V49.5H154.071V48.5ZM144.843 49V4.2H143.843V49H144.843ZM144.343 4.7H152.919V3.7H144.343V4.7ZM152.491 4.45797L169.259 32.298L170.116 31.782L153.348 3.94203L152.491 4.45797ZM170.117 32.2951L186.629 4.45506L185.769 3.94493L169.257 31.7849L170.117 32.2951ZM186.199 4.7H194.711V3.7H186.199V4.7ZM194.211 4.20143L194.339 49.0014L195.339 48.9986L195.211 4.19857L194.211 4.20143ZM194.839 48.5H185.111V49.5H194.839V48.5ZM246.556 4.2H247.056V3.7H246.556V4.2ZM246.556 49V49.5H247.056V49H246.556ZM238.044 49L237.658 49.3173L237.808 49.5H238.044V49ZM215.708 21.8L216.095 21.4827L215.208 20.4032V21.8H215.708ZM215.708 49V49.5H216.208V49H215.708ZM205.468 49H204.968V49.5H205.468V49ZM205.468 4.2V3.7H204.968V4.2H205.468ZM214.044 4.2L214.431 3.88323L214.281 3.7H214.044V4.2ZM236.316 31.4L235.929 31.7168L236.816 32.7999V31.4H236.316ZM236.316 4.2V3.7H235.816V4.2H236.316ZM246.056 4.2V49H247.056V4.2H246.056ZM246.556 48.5H238.044V49.5H246.556V48.5ZM238.431 48.6827L216.095 21.4827L215.322 22.1173L237.658 49.3173L238.431 48.6827ZM215.208 21.8V49H216.208V21.8H215.208ZM215.708 48.5H205.468V49.5H215.708V48.5ZM205.968 49V4.2H204.968V49H205.968ZM205.468 4.7H214.044V3.7H205.468V4.7ZM213.657 4.51676L235.929 31.7168L236.703 31.0832L214.431 3.88323L213.657 4.51676ZM236.816 31.4V4.2H235.816V31.4H236.816ZM236.316 4.7H246.556V3.7H236.316V4.7ZM257.156 4.2V3.7H256.656V4.2H257.156ZM267.524 4.2H268.024V3.7H267.524V4.2ZM267.524 49V49.5H268.024V49H267.524ZM257.156 49H256.656V49.5H257.156V49ZM257.156 4.7H267.524V3.7H257.156V4.7ZM267.024 4.2V49H268.024V4.2H267.024ZM267.524 48.5H257.156V49.5H267.524V48.5ZM257.656 49V4.2H256.656V49H257.656ZM285.708 2.728L285.354 3.08161L285.361 3.08816L285.708 2.728ZM287.116 9.704L286.631 9.58273L287.116 9.704ZM285.772 13.544L286.236 13.7308L286.236 13.7297L285.772 13.544ZM282.06 22.76V23.26H282.397L282.524 22.9468L282.06 22.76ZM275.724 22.76L275.241 22.6287L275.069 23.26H275.724V22.76ZM278.476 12.648L278.958 12.7793L279.071 12.3638L278.677 12.1903L278.476 12.648ZM275.98 10.536L275.558 10.8044L275.98 10.536ZM276.812 2.728L277.159 3.08816L277.159 3.08792L276.812 2.728ZM281.292 1.5C282.966 1.5 284.306 2.03314 285.354 3.08155L286.061 2.37444C284.806 1.11886 283.202 0.499996 281.292 0.499996V1.5ZM285.361 3.08816C286.4 4.0891 286.936 5.42338 286.936 7.144H287.936C287.936 5.19529 287.319 3.58556 286.055 2.36784L285.361 3.08816ZM286.936 7.144C286.936 7.95521 286.834 8.76783 286.631 9.58273L287.601 9.82527C287.824 8.9335 287.936 8.03946 287.936 7.144H286.936ZM286.631 9.58273C286.426 10.4014 285.989 11.6552 285.308 13.3583L286.236 13.7297C286.92 12.0195 287.379 10.7133 287.601 9.82527L286.631 9.58273ZM285.308 13.3572L281.596 22.5732L282.524 22.9468L286.236 13.7308L285.308 13.3572ZM282.06 22.26H275.724V23.26H282.06V22.26ZM276.206 22.8913L278.958 12.7793L277.993 12.5167L275.241 22.6287L276.206 22.8913ZM278.677 12.1903C277.697 11.7589 276.943 11.1186 276.402 10.2676L275.558 10.8044C276.211 11.8307 277.122 12.5985 278.274 13.1057L278.677 12.1903ZM276.402 10.2676C275.864 9.42319 275.584 8.38976 275.584 7.144H274.584C274.584 8.54357 274.901 9.77147 275.558 10.8044L276.402 10.2676ZM275.584 7.144C275.584 5.42338 276.119 4.0891 277.159 3.08816L276.465 2.36784C275.2 3.58557 274.584 5.19529 274.584 7.144H275.584ZM277.159 3.08792C278.252 2.03336 279.618 1.5 281.292 1.5V0.499996C279.382 0.499996 277.76 1.11864 276.465 2.36807L277.159 3.08792ZM296.277 48.488L296.148 48.9713L296.155 48.9731L296.277 48.488ZM289.749 45.8L289.295 45.5894L289.114 45.9807L289.474 46.2177L289.749 45.8ZM293.077 38.632L293.346 38.2107L292.864 37.9028L292.623 38.4214L293.077 38.632ZM298.645 41.064L298.504 41.5438L298.512 41.5462L298.645 41.064ZM309.653 36.712L309.479 37.1809L309.653 36.712ZM304.341 35.624L304.266 36.1185L304.279 36.1201L304.341 35.624ZM297.365 34.152L297.509 33.6734L297.365 34.152ZM292.565 31.208L292.2 31.5504L292.206 31.5561L292.565 31.208ZM292.437 19.432L292.037 19.132L292.036 19.1336L292.437 19.432ZM297.941 15.464L297.761 14.9975L297.758 14.9986L297.941 15.464ZM313.749 14.888L313.636 15.3751L313.646 15.3773L313.749 14.888ZM319.765 17.064L320.218 17.2761L320.41 16.8658L320.02 16.6342L319.765 17.064ZM316.437 24.168L316.191 24.6036L316.661 24.8682L316.89 24.3801L316.437 24.168ZM301.717 22.504L301.472 22.0677L301.717 22.504ZM301.845 27.048L302.018 26.5791L301.845 27.048ZM307.349 28.264L307.431 27.7708L307.424 27.7697L307.349 28.264ZM314.261 29.8L314.113 30.2778L314.123 30.2808L314.261 29.8ZM318.933 32.68L318.568 33.0223L318.933 32.68ZM318.997 44.264L319.393 44.5689L318.997 44.264ZM313.365 48.168L313.538 48.6372L313.542 48.6355L313.365 48.168ZM304.661 49.012C301.842 49.012 299.088 48.6755 296.398 48.0029L296.155 48.9731C298.926 49.6658 301.762 50.012 304.661 50.012V49.012ZM296.405 48.0048C293.705 47.2875 291.584 46.4092 290.024 45.3823L289.474 46.2177C291.156 47.3241 293.387 48.2378 296.148 48.9712L296.405 48.0048ZM290.202 46.0106L293.53 38.8426L292.623 38.4214L289.295 45.5894L290.202 46.0106ZM292.808 39.0533C294.392 40.0654 296.293 40.8935 298.504 41.5437L298.786 40.5843C296.645 39.9545 294.834 39.1613 293.346 38.2107L292.808 39.0533ZM298.512 41.5462C300.728 42.1544 302.906 42.46 305.045 42.46V41.46C303.002 41.46 300.913 41.1683 298.777 40.5818L298.512 41.5462ZM305.045 42.46C307.182 42.46 308.859 42.1982 310.019 41.6241C310.605 41.3336 311.076 40.9551 311.399 40.4753C311.725 39.9921 311.881 39.4352 311.881 38.824H310.881C310.881 39.2581 310.773 39.6159 310.57 39.9167C310.365 40.2209 310.044 40.4957 309.575 40.7279C308.623 41.1992 307.132 41.46 305.045 41.46V42.46ZM311.881 38.824C311.881 38.2277 311.703 37.692 311.336 37.2434C310.975 36.8025 310.458 36.4769 309.826 36.2431L309.479 37.1809C310 37.3738 310.346 37.6135 310.562 37.8766C310.771 38.132 310.881 38.439 310.881 38.824H311.881ZM309.826 36.2431C308.619 35.7958 306.801 35.4277 304.403 35.1279L304.279 36.1201C306.659 36.4177 308.383 36.7749 309.479 37.1809L309.826 36.2431ZM304.416 35.1296C301.613 34.705 299.313 34.2187 297.509 33.6734L297.22 34.6306C299.086 35.1946 301.436 35.6897 304.266 36.1184L304.416 35.1296ZM297.509 33.6734C295.758 33.1439 294.231 32.2084 292.924 30.8599L292.206 31.5561C293.629 33.0236 295.302 34.0508 297.22 34.6306L297.509 33.6734ZM292.929 30.8657C291.72 29.5787 291.081 27.7125 291.081 25.192H290.081C290.081 27.8768 290.764 30.0213 292.2 31.5503L292.929 30.8657ZM291.081 25.192C291.081 23.1178 291.668 21.3037 292.838 19.7304L292.036 19.1336C290.731 20.8883 290.081 22.9142 290.081 25.192H291.081ZM292.837 19.732C294.051 18.1134 295.803 16.8411 298.124 15.9294L297.758 14.9986C295.3 15.9643 293.383 17.3373 292.037 19.132L292.837 19.732ZM298.121 15.9305C300.483 15.0189 303.278 14.556 306.517 14.556V13.556C303.185 13.556 300.263 14.0318 297.761 14.9975L298.121 15.9305ZM306.517 14.556C308.91 14.556 311.283 14.8289 313.636 15.375L313.862 14.4009C311.436 13.8378 308.987 13.556 306.517 13.556V14.556ZM313.646 15.3773C316.042 15.8817 317.991 16.5911 319.509 17.4938L320.02 16.6342C318.381 15.6595 316.32 14.9183 313.852 14.3987L313.646 15.3773ZM319.312 16.8519L315.984 23.9559L316.89 24.3801L320.218 17.2761L319.312 16.8519ZM316.682 23.7324C313.576 21.9822 310.184 21.108 306.517 21.108V22.108C310.018 22.108 313.239 22.9405 316.191 24.6036L316.682 23.7324ZM306.517 21.108C304.353 21.108 302.65 21.4081 301.472 22.0677L301.961 22.9403C302.916 22.4053 304.414 22.108 306.517 22.108V21.108ZM301.472 22.0677C300.303 22.7226 299.617 23.6329 299.617 24.808H300.617C300.617 24.1057 300.997 23.48 301.961 22.9403L301.472 22.0677ZM299.617 24.808C299.617 25.4366 299.789 26.0012 300.153 26.4734C300.513 26.9403 301.033 27.2806 301.671 27.5169L302.018 26.5791C301.504 26.3887 301.16 26.1423 300.945 25.8626C300.733 25.5881 300.617 25.246 300.617 24.808H299.617ZM301.671 27.5169C302.873 27.9622 304.75 28.3734 307.273 28.7583L307.424 27.7697C304.913 27.3866 303.12 26.9872 302.018 26.5791L301.671 27.5169ZM307.267 28.7572C310.071 29.2245 312.35 29.7321 314.113 30.2776L314.409 29.3224C312.587 28.7586 310.259 28.2421 307.431 27.7708L307.267 28.7572ZM314.123 30.2808C315.825 30.767 317.305 31.6776 318.568 33.0223L319.297 32.3377C317.915 30.8664 316.28 29.857 314.398 29.3192L314.123 30.2808ZM318.568 33.0223C319.78 34.3122 320.417 36.1381 320.417 38.568H321.417C321.417 35.9632 320.731 33.8638 319.297 32.3377L318.568 33.0223ZM320.417 38.568C320.417 40.593 319.812 42.3841 318.6 43.9591L319.393 44.5689C320.741 42.8159 321.417 40.8097 321.417 38.568H320.417ZM318.6 43.9591C317.39 45.5328 315.598 46.7862 313.187 47.7005L313.542 48.6355C316.081 47.6725 318.044 46.3232 319.393 44.5689L318.6 43.9591ZM313.192 47.6988C310.829 48.5693 307.989 49.012 304.661 49.012V50.012C308.074 50.012 311.036 49.5587 313.538 48.6372L313.192 47.6988Z" fill="url(#paint0_linear)"/>
<defs>
<linearGradient id="paint0_linear" x1="28.3366" y1="-1.22494" x2="272.803" y2="99.3829" gradientUnits="userSpaceOnUse">
<stop stop-color="#F62D2E"/>
<stop offset="0.523958" stop-color="#4173FC"/>
<stop offset="1" stop-color="#30F7FF"/>
</linearGradient>
</defs>
</svg>
