<svg width="476" height="57" viewBox="0 0 476 57" fill="none" xmlns="http://www.w3.org/2000/svg">
<path d="M38.1473 55H53.2829L33.3152 5.25841H19.885L0.343674 55H15.053L17.8243 46.9703H35.447L38.1473 55ZM32.1072 36.2403H21.1641L26.5646 20.8204L32.1072 36.2403ZM57.4144 55H70.6314V2.77133H57.4144V55ZM97.3309 56.2791C108.7 56.2791 116.233 49.3152 116.233 38.5853V16.6279H103.016V38.0168C103.016 41.9961 100.884 44.4121 97.3309 44.4121C93.849 44.4121 91.6461 42.0672 91.6461 38.0168V16.6279H78.4291V38.5853C78.4291 49.3152 86.0324 56.2791 97.3309 56.2791ZM169.226 15.562C164.465 15.562 160.202 17.6938 157.43 21.1757C155.014 17.6227 151.106 15.562 146.416 15.562C142.011 15.562 137.96 17.5517 135.189 20.8204L133.341 16.6279H124.033V55H137.25V33.9664C137.25 29.2054 139.239 26.6473 142.792 26.6473C145.564 26.6473 147.056 28.708 147.056 32.6163V55H159.918V33.9664C159.918 29.1344 161.765 26.6473 165.389 26.6473C168.232 26.6473 169.653 28.5659 169.653 32.6163V55H182.87V30.9819C182.87 21.9574 177.469 15.562 169.226 15.562ZM213.955 15.562C208.981 15.562 204.717 17.4096 201.875 20.6072L200.098 16.6279H190.79V55H204.007V34.5349C204.007 29.6318 206.352 26.7894 210.473 26.7894C213.813 26.7894 215.518 28.9923 215.518 33.469V55H228.735V31.6215C228.735 21.8863 222.837 15.562 213.955 15.562ZM236.661 11.8669H249.736V0.639548H236.661V11.8669ZM236.59 55H249.807V16.6279H236.59V55ZM258.102 28.7791C265.421 28.1395 270.466 23.0943 270.466 15.3488V4.12146H257.533V16.3437H263.715C263.715 19.3992 261.939 21.8863 258.102 22.2416V28.7791ZM291.41 56.2791C301.643 56.2791 308.393 51.0207 308.393 42.991C308.393 33.3269 300.364 32.0478 294.253 30.9819C290.629 30.3424 287.715 29.7739 287.715 27.6421C287.715 25.8656 289.136 24.7997 291.268 24.7997C293.613 24.7997 295.247 25.9367 295.247 28.3527H307.683C307.541 20.6072 301.145 15.4199 291.41 15.4199C281.604 15.4199 274.996 20.3941 274.996 28.0685C274.996 37.3773 282.883 39.1538 288.852 40.1486C292.547 40.7171 295.461 41.3566 295.461 43.5594C295.461 45.5491 293.613 46.5439 291.694 46.5439C289.207 46.5439 287.218 45.2649 287.218 42.4225H274.498C274.64 50.7364 280.964 56.2791 291.41 56.2791ZM365.997 5.25841H325.208V17.6227H338.71V55H352.495V17.6227H365.997V5.25841ZM396.991 16.6279L395.641 19.6124C392.514 16.9832 388.464 15.491 383.916 15.491C372.191 15.491 363.806 23.947 363.806 35.814C363.806 47.7519 372.191 56.2791 383.916 56.2791C388.393 56.2791 392.372 54.8579 395.499 52.2997L396.636 55H406.868V16.6279H396.991ZM385.693 44.6253C380.719 44.6253 377.095 40.8592 377.095 35.814C377.095 30.8398 380.719 27.1447 385.693 27.1447C390.667 27.1447 394.291 30.8398 394.291 35.814C394.291 40.8592 390.667 44.6253 385.693 44.6253ZM415.21 55H428.427V2.77133H415.21V55ZM475.733 55L462.516 34.9612L474.525 16.6279H459.674L450.507 31.6925V2.77133H437.29V55H450.507V38.7985L460.1 55H475.733Z" fill="white"/>
</svg>
