<svg width="31" height="30" viewBox="0 0 31 30" fill="none" xmlns="http://www.w3.org/2000/svg">
<g clip-path="url(#clip0)">
<path d="M18.5378 15C18.5378 16.5857 17.2524 17.8711 15.6667 17.8711C14.081 17.8711 12.7956 16.5857 12.7956 15C12.7956 13.4143 14.081 12.1289 15.6667 12.1289C17.2524 12.1289 18.5378 13.4143 18.5378 15Z" fill="white"/>
<path d="M22.3812 9.92015C22.2432 9.54616 22.023 9.20764 21.7369 8.92978C21.459 8.64368 21.1207 8.42349 20.7465 8.28548C20.443 8.1676 19.9871 8.0273 19.1473 7.98907C18.2389 7.94765 17.9665 7.93872 15.6667 7.93872C13.3667 7.93872 13.0943 7.94742 12.1861 7.98885C11.3463 8.0273 10.8902 8.1676 10.5869 8.28548C10.2127 8.42349 9.87415 8.64368 9.59651 8.92978C9.31041 9.20764 9.09023 9.54593 8.95198 9.92015C8.83411 10.2236 8.6938 10.6798 8.65558 11.5196C8.61415 12.4278 8.60522 12.7001 8.60522 15.0002C8.60522 17.3 8.61415 17.5724 8.65558 18.4808C8.6938 19.3206 8.83411 19.7765 8.95198 20.08C9.09023 20.4542 9.31018 20.7925 9.59628 21.0704C9.87415 21.3565 10.2124 21.5766 10.5867 21.7147C10.8902 21.8328 11.3463 21.9731 12.1861 22.0113C13.0943 22.0527 13.3664 22.0614 15.6665 22.0614C17.9667 22.0614 18.2391 22.0527 19.1471 22.0113C19.9868 21.9731 20.443 21.8328 20.7465 21.7147C21.4977 21.4249 22.0914 20.8312 22.3812 20.08C22.499 19.7765 22.6393 19.3206 22.6778 18.4808C22.7192 17.5724 22.7279 17.3 22.7279 15.0002C22.7279 12.7001 22.7192 12.4278 22.6778 11.5196C22.6396 10.6798 22.4993 10.2236 22.3812 9.92015ZM15.6667 19.4229C13.2238 19.4229 11.2435 17.4428 11.2435 15C11.2435 12.5571 13.2238 10.577 15.6667 10.577C18.1093 10.577 20.0896 12.5571 20.0896 15C20.0896 17.4428 18.1093 19.4229 15.6667 19.4229ZM20.2645 11.4358C19.6936 11.4358 19.2308 10.973 19.2308 10.4022C19.2308 9.83134 19.6936 9.36855 20.2645 9.36855C20.8353 9.36855 21.2981 9.83134 21.2981 10.4022C21.2979 10.973 20.8353 11.4358 20.2645 11.4358Z" fill="white"/>
<path d="M15.6667 0C7.38368 0 0.666687 6.717 0.666687 15C0.666687 23.283 7.38368 30 15.6667 30C23.9497 30 30.6667 23.283 30.6667 15C30.6667 6.717 23.9497 0 15.6667 0ZM24.228 18.5511C24.1864 19.468 24.0406 20.094 23.8277 20.6419C23.3802 21.7989 22.4656 22.7135 21.3086 23.161C20.7609 23.3739 20.1347 23.5194 19.218 23.5613C18.2995 23.6032 18.0061 23.6133 15.6669 23.6133C13.3275 23.6133 13.0343 23.6032 12.1156 23.5613C11.1989 23.5194 10.5727 23.3739 10.025 23.161C9.45003 22.9447 8.92955 22.6057 8.49925 22.1674C8.06117 21.7374 7.7222 21.2167 7.50591 20.6419C7.29305 20.0942 7.14725 19.468 7.10559 18.5513C7.06325 17.6326 7.05341 17.3392 7.05341 15C7.05341 12.6608 7.06325 12.3674 7.10536 11.4489C7.14702 10.532 7.29259 9.90601 7.50545 9.35806C7.72174 8.78334 8.06094 8.26263 8.49925 7.83257C8.92932 7.39426 9.45003 7.05528 10.0247 6.83899C10.5727 6.62613 11.1987 6.48056 12.1156 6.43867C13.0341 6.39679 13.3275 6.38672 15.6667 6.38672C18.0059 6.38672 18.2993 6.39679 19.2178 6.4389C20.1347 6.48056 20.7607 6.62613 21.3086 6.83876C21.8833 7.05505 22.4041 7.39426 22.8344 7.83257C23.2724 8.26286 23.6116 8.78334 23.8277 9.35806C24.0408 9.90601 24.1864 10.532 24.2282 11.4489C24.2701 12.3674 24.28 12.6608 24.28 15C24.28 17.3392 24.2701 17.6326 24.228 18.5511Z" fill="white"/>
</g>
<defs>
<clipPath id="clip0">
<rect width="30" height="30" fill="white" transform="translate(0.666687)"/>
</clipPath>
</defs>
</svg>
