<svg width="30" height="30" viewBox="0 0 30 30" fill="none" xmlns="http://www.w3.org/2000/svg">
<g opacity="0.6">
<path d="M14.9999 0C23.2847 0 30 6.71625 30 15.0001C30 23.2839 23.2847 30 14.9999 30C6.71522 30 0 23.2838 0 15.0001C0 6.71635 6.71532 0 14.9999 0Z" fill="white"/>
<path d="M8.45254 20.61H11.2613V11.2481H8.45254V20.61ZM19.3951 10.9238C18.0319 10.9238 16.8122 11.4216 15.947 12.5204V11.2173H13.1279V20.6101H15.947V15.5307C15.947 14.4572 16.9305 13.41 18.1623 13.41C19.3941 13.41 19.6979 14.4572 19.6979 15.5044V20.6091H22.5067V15.2954C22.5066 11.6044 20.7591 10.9238 19.3951 10.9238ZM9.84379 10.3125C10.6201 10.3125 11.2501 9.68245 11.2501 8.90619C11.2501 8.12993 10.6201 7.5 9.84379 7.5C9.06753 7.5 8.4375 8.13003 8.4375 8.90629C8.4375 9.68256 9.06753 10.3125 9.84379 10.3125Z" fill="#292929"/>
</g>
</svg>
