<svg width="30" height="30" viewBox="0 0 30 30" fill="none" xmlns="http://www.w3.org/2000/svg">
<path d="M14.9999 0C23.2847 0 30 6.71625 30 15.0001C30 23.2839 23.2847 30 14.9999 30C6.71522 30 0 23.2838 0 15.0001C0 6.71635 6.71532 0 14.9999 0Z" fill="white"/>
<path d="M8.45247 20.61H11.2613V11.2481H8.45247V20.61ZM19.395 10.9238C18.0319 10.9238 16.8122 11.4216 15.9469 12.5204V11.2173H13.1279V20.6101H15.9469V15.5307C15.9469 14.4572 16.9304 13.41 18.1622 13.41C19.3941 13.41 19.6979 14.4572 19.6979 15.5044V20.6091H22.5067V15.2954C22.5066 11.6044 20.7591 10.9238 19.395 10.9238ZM9.84373 10.3125C10.62 10.3125 11.25 9.68245 11.25 8.90619C11.25 8.12993 10.62 7.5 9.84373 7.5C9.06747 7.5 8.43744 8.13003 8.43744 8.90629C8.43744 9.68256 9.06747 10.3125 9.84373 10.3125Z" fill="#292929"/>
</svg>
