<svg width="196" height="79" viewBox="0 0 196 79" fill="none" xmlns="http://www.w3.org/2000/svg">
<g filter="url(#filter0_d)">
<path d="M119.472 17.944L118.765 18.6511L118.772 18.6578L118.778 18.6643L119.472 17.944ZM121.056 25.792L120.086 25.5495L120.086 25.5495L121.056 25.792ZM119.544 30.112L120.472 30.4856L120.472 30.4834L119.544 30.112ZM115.368 40.48V41.48H116.043L116.296 40.8536L115.368 40.48ZM108.24 40.48L107.275 40.2174L106.931 41.48H108.24V40.48ZM111.336 29.104L112.301 29.3666L112.527 28.5356L111.739 28.1887L111.336 29.104ZM108.528 26.728L107.684 27.2649H107.684L108.528 26.728ZM109.464 17.944L110.158 18.6643L110.158 18.6638L109.464 17.944ZM114.504 17C116.284 17 117.676 17.5623 118.765 18.6511L120.179 17.2369C118.676 15.7337 116.756 15 114.504 15V17ZM118.778 18.6643C119.849 19.6955 120.416 21.0761 120.416 22.912H122.416C122.416 20.6199 121.687 18.6885 120.166 17.2237L118.778 18.6643ZM120.416 22.912C120.416 23.7878 120.307 24.6663 120.086 25.5495L122.026 26.0345C122.285 24.9977 122.416 23.9562 122.416 22.912H120.416ZM120.086 25.5495C119.863 26.4401 119.381 27.8276 118.616 29.7406L120.472 30.4834C121.243 28.5564 121.769 27.0639 122.026 26.0345L120.086 25.5495ZM118.616 29.7384L114.44 40.1064L116.296 40.8536L120.472 30.4856L118.616 29.7384ZM115.368 39.48H108.24V41.48H115.368V39.48ZM109.205 40.7426L112.301 29.3666L110.371 28.8414L107.275 40.2174L109.205 40.7426ZM111.739 28.1887C110.711 27.7364 109.932 27.0719 109.372 26.1911L107.684 27.2649C108.468 28.496 109.561 29.4156 110.933 30.0193L111.739 28.1887ZM109.372 26.1911C108.82 25.3237 108.52 24.2462 108.52 22.912H106.52C106.52 24.5538 106.892 26.0203 107.684 27.2649L109.372 26.1911ZM108.52 22.912C108.52 21.0761 109.087 19.6955 110.158 18.6643L108.77 17.2237C107.249 18.6885 106.52 20.6199 106.52 22.912H108.52ZM110.158 18.6638C111.3 17.5627 112.724 17 114.504 17V15C112.252 15 110.316 15.7333 108.77 17.2242L110.158 18.6638ZM168.858 60.496H169.858V59.496H168.858V60.496ZM168.858 70V71H169.858V70H168.858ZM130.77 70H129.77V71H130.77V70ZM130.77 62.44L130.084 61.713L129.77 62.009V62.44H130.77ZM150.21 44.08L150.897 44.807L150.9 44.8037L150.21 44.08ZM154.386 39.04L155.275 39.4995L155.281 39.4872L154.386 39.04ZM153.378 30.184L152.744 30.9567L152.759 30.969L152.774 30.9807L153.378 30.184ZM141.426 29.824L141.844 30.7327L141.854 30.7281L141.864 30.7232L141.426 29.824ZM136.962 33.568L136.421 34.4087L137.222 34.9248L137.776 34.1492L136.962 33.568ZM128.466 28.096L127.636 27.5382L127.068 28.3845L127.925 28.9367L128.466 28.096ZM136.602 21.256L137.029 22.1603L137.04 22.1554L136.602 21.256ZM158.274 20.608L157.865 21.5205L157.875 21.5247L157.884 21.5287L158.274 20.608ZM164.826 25.792L164 26.3548L164.007 26.3649L164.014 26.3749L164.826 25.792ZM165.474 41.344L166.376 41.7767L165.474 41.344ZM158.778 49.552L158.098 48.8188L158.092 48.8249L158.778 49.552ZM147.186 60.496L146.5 59.7689L144.67 61.496H147.186V60.496ZM167.858 60.496V70H169.858V60.496H167.858ZM168.858 69H130.77V71H168.858V69ZM131.77 70V62.44H129.77V70H131.77ZM131.457 63.167L150.897 44.807L149.524 43.353L130.084 61.713L131.457 63.167ZM150.9 44.8037C152.99 42.8112 154.478 41.0398 155.275 39.4994L153.498 38.5806C152.855 39.8242 151.559 41.4128 149.52 43.3563L150.9 44.8037ZM155.281 39.4872C156.059 37.9301 156.466 36.3619 156.466 34.792H154.466C154.466 36.0061 154.153 37.2699 153.492 38.5928L155.281 39.4872ZM156.466 34.792C156.466 32.5178 155.665 30.6631 153.983 29.3873L152.774 30.9807C153.876 31.8169 154.466 33.0342 154.466 34.792H156.466ZM154.013 29.4113C152.418 28.1011 150.159 27.528 147.402 27.528V29.528C149.926 29.528 151.651 30.0589 152.744 30.9567L154.013 29.4113ZM147.402 27.528C145.061 27.528 142.917 27.987 140.989 28.9248L141.864 30.7232C143.488 29.933 145.328 29.528 147.402 29.528V27.528ZM141.009 28.9153C139.066 29.8082 137.444 31.1732 136.149 32.9868L137.776 34.1492C138.881 32.6028 140.235 31.4718 141.844 30.7327L141.009 28.9153ZM137.504 32.7273L129.008 27.2553L127.925 28.9367L136.421 34.4087L137.504 32.7273ZM129.296 28.6538C131.155 25.8879 133.722 23.7219 137.029 22.1602L136.175 20.3517C132.57 22.0541 129.713 24.4481 127.636 27.5382L129.296 28.6538ZM137.04 22.1554C140.339 20.5515 144.145 19.736 148.482 19.736V17.736C143.891 17.736 139.778 18.6005 136.165 20.3566L137.04 22.1554ZM148.482 19.736C152.117 19.736 155.236 20.3417 157.865 21.5205L158.683 19.6955C155.745 18.3783 152.336 17.736 148.482 17.736V19.736ZM157.884 21.5287C160.563 22.6636 162.585 24.2771 164 26.3548L165.653 25.2292C163.996 22.7949 161.65 20.9524 158.665 19.6872L157.884 21.5287ZM164.014 26.3749C165.462 28.394 166.202 30.8004 166.202 33.64H168.202C168.202 30.4316 167.358 27.606 165.639 25.2091L164.014 26.3749ZM166.202 33.64C166.202 36.2305 165.658 38.6501 164.573 40.9113L166.376 41.7767C167.595 39.2379 168.202 36.5215 168.202 33.64H166.202ZM164.573 40.9113C163.5 43.1459 161.373 45.7811 158.098 48.8188L159.458 50.2852C162.807 47.1789 165.145 44.3421 166.376 41.7767L164.573 40.9113ZM158.092 48.8249L146.5 59.7689L147.873 61.2231L159.465 50.2791L158.092 48.8249ZM147.186 61.496H168.858V59.496H147.186V61.496ZM189.871 19.6H190.871V18.6H189.871V19.6ZM189.871 70V71H190.871V70H189.871ZM178.207 70H177.207V71H178.207V70ZM178.207 28.96H179.207V27.96H178.207V28.96ZM168.127 28.96H167.127V29.96H168.127V28.96ZM168.127 19.6V18.6H167.127V19.6H168.127ZM188.871 19.6V70H190.871V19.6H188.871ZM189.871 69H178.207V71H189.871V69ZM179.207 70V28.96H177.207V70H179.207ZM178.207 27.96H168.127V29.96H178.207V27.96ZM169.127 28.96V19.6H167.127V28.96H169.127ZM168.127 20.6H189.871V18.6H168.127V20.6Z" fill="url(#paint0_linear)"/>
</g>
<path d="M10.6069 28.7572L0.686016 18.331L0.158311 18H44.9076L64.3799 36.7424L84.3799 18H99.6834L73.0343 44.8103L100 71H83.8522L64.6438 52.2162L44.6966 71H0L10.6069 60.3669H40.3694L55.7784 44.8103L39.314 28.7572H10.6069Z" fill="url(#paint1_linear)"/>
<path d="M11.2401 49.9407V38.9352H39.314L44.9076 44.8103L39.314 49.9407H11.2401Z" fill="url(#paint2_linear)"/>
<defs>
<filter id="filter0_d" x="102.52" y="15" width="92.3511" height="64" filterUnits="userSpaceOnUse" color-interpolation-filters="sRGB">
<feFlood flood-opacity="0" result="BackgroundImageFix"/>
<feColorMatrix in="SourceAlpha" type="matrix" values="0 0 0 0 0 0 0 0 0 0 0 0 0 0 0 0 0 0 127 0"/>
<feOffset dy="4"/>
<feGaussianBlur stdDeviation="2"/>
<feColorMatrix type="matrix" values="0 0 0 0 0 0 0 0 0 0 0 0 0 0 0 0 0 0 0.25 0"/>
<feBlend mode="normal" in2="BackgroundImageFix" result="effect1_dropShadow"/>
<feBlend mode="normal" in="SourceGraphic" in2="effect1_dropShadow" result="shape"/>
</filter>
<linearGradient id="paint0_linear" x1="115.802" y1="8.96694" x2="174.15" y2="67.8725" gradientUnits="userSpaceOnUse">
<stop stop-color="#F62D2D"/>
<stop offset="0.534375" stop-color="#3F6DFF"/>
<stop offset="1" stop-color="#2EFEFF"/>
</linearGradient>
<linearGradient id="paint1_linear" x1="17.0993" y1="17.8769" x2="90.2601" y2="71.3377" gradientUnits="userSpaceOnUse">
<stop stop-color="#F52C2C"/>
<stop offset="0.534375" stop-color="#3F69FF"/>
<stop offset="1" stop-color="#2EFFFF"/>
</linearGradient>
<linearGradient id="paint2_linear" x1="17.0993" y1="17.8769" x2="90.2601" y2="71.3377" gradientUnits="userSpaceOnUse">
<stop stop-color="#F52C2C"/>
<stop offset="0.534375" stop-color="#3F69FF"/>
<stop offset="1" stop-color="#2EFFFF"/>
</linearGradient>
</defs>
</svg>
