<svg width="249" height="129" viewBox="0 0 249 129" fill="none" xmlns="http://www.w3.org/2000/svg">
<g opacity="0.7" filter="url(#filter0_f)">
<path d="M146.472 44.944L145.12 46.2957L145.133 46.3084L145.146 46.321L146.472 44.944ZM148.056 52.792L146.201 52.3284H146.201L148.056 52.792ZM146.544 57.112L148.317 57.8262L148.319 57.8219L146.544 57.112ZM142.368 67.48V69.3916H143.659L144.141 68.1942L142.368 67.48ZM135.24 67.48L133.395 66.978L132.739 69.3916H135.24V67.48ZM138.336 56.104L140.181 56.606L140.613 55.0174L139.106 54.3543L138.336 56.104ZM135.528 53.728L133.915 54.7543L133.915 54.7543L135.528 53.728ZM136.464 44.944L137.79 46.321L137.791 46.32L136.464 44.944ZM141.504 44.9116C143.069 44.9116 144.22 45.3957 145.12 46.2957L147.824 43.5923C146.132 41.9003 143.971 41.0884 141.504 41.0884V44.9116ZM145.146 46.321C146.012 47.1545 146.504 48.284 146.504 49.912H150.328C150.328 47.412 149.524 45.2294 147.798 43.567L145.146 46.321ZM146.504 49.912C146.504 50.7109 146.405 51.5153 146.201 52.3284L149.911 53.2556C150.187 52.1487 150.328 51.033 150.328 49.912H146.504ZM146.201 52.3284C145.995 53.1557 145.532 54.4955 144.769 56.4021L148.319 57.8219C149.092 55.8885 149.637 54.3483 149.911 53.2556L146.201 52.3284ZM144.771 56.3978L140.595 66.7658L144.141 68.1942L148.317 57.8262L144.771 56.3978ZM142.368 65.5684H135.24V69.3916H142.368V65.5684ZM137.085 67.982L140.181 56.606L136.491 55.602L133.395 66.978L137.085 67.982ZM139.106 54.3543C138.235 53.9711 137.6 53.4228 137.141 52.7017L133.915 54.7543C134.8 56.1452 136.037 57.1809 137.566 57.8537L139.106 54.3543ZM137.141 52.7017C136.698 52.0062 136.432 51.106 136.432 49.912H132.608C132.608 51.694 133.014 53.3378 133.915 54.7543L137.141 52.7017ZM136.432 49.912C136.432 48.284 136.924 47.1545 137.79 46.321L135.138 43.567C133.412 45.2294 132.608 47.412 132.608 49.912H136.432ZM137.791 46.32C138.749 45.3966 139.94 44.9116 141.504 44.9116V41.0884C139.036 41.0884 136.867 41.8994 135.137 43.5679L137.791 46.32ZM195.858 87.496H197.77V85.5844H195.858V87.496ZM195.858 97V98.9116H197.77V97H195.858ZM157.77 97H155.859V98.9116H157.77V97ZM157.77 89.44L156.458 88.0502L155.859 88.616V89.44H157.77ZM177.21 71.08L178.523 72.4698L178.53 72.4635L177.21 71.08ZM181.386 66.04L183.084 66.9182L183.09 66.9066L183.096 66.8949L181.386 66.04ZM180.378 57.184L179.165 58.6611L179.194 58.6846L179.223 58.7069L180.378 57.184ZM168.426 56.824L169.224 58.561L169.244 58.5522L169.263 58.543L168.426 56.824ZM163.962 60.568L162.927 62.1751L164.459 63.1616L165.518 61.6791L163.962 60.568ZM155.466 55.096L153.88 54.0296L152.792 55.6476L154.431 56.7031L155.466 55.096ZM163.602 48.256L164.419 49.9846L164.428 49.9799L164.438 49.9752L163.602 48.256ZM185.274 47.608L184.492 49.3523L184.51 49.3604L184.529 49.3681L185.274 47.608ZM191.826 52.792L190.246 53.8678L190.259 53.8872L190.273 53.9063L191.826 52.792ZM192.474 68.344L194.198 69.1712L192.474 68.344ZM185.778 76.552L184.478 75.1505L184.472 75.1562L184.466 75.162L185.778 76.552ZM174.186 87.496L172.874 86.106L169.377 89.4076H174.186V87.496ZM193.947 87.496V97H197.77V87.496H193.947ZM195.858 95.0884H157.77V98.9116H195.858V95.0884ZM159.682 97V89.44H155.859V97H159.682ZM159.083 90.8298L178.523 72.4698L175.898 69.6902L156.458 88.0502L159.083 90.8298ZM178.53 72.4635C180.643 70.4486 182.218 68.5939 183.084 66.9182L179.688 65.1618C179.115 66.2701 177.906 67.7754 175.891 69.6965L178.53 72.4635ZM183.096 66.8949C183.928 65.2311 184.378 63.524 184.378 61.792H180.555C180.555 62.844 180.285 63.9689 179.677 65.1851L183.096 66.8949ZM184.378 61.792C184.378 59.2825 183.48 57.1372 181.534 55.661L179.223 58.7069C180.061 59.3427 180.555 60.2695 180.555 61.792H184.378ZM181.592 55.7069C179.768 54.2087 177.266 53.6164 174.402 53.6164V57.4396C176.819 57.4396 178.301 57.9513 179.165 58.6611L181.592 55.7069ZM174.402 53.6164C171.939 53.6164 169.656 54.1 167.59 55.105L169.263 58.543C170.749 57.82 172.45 57.4396 174.402 57.4396V53.6164ZM167.628 55.087C165.532 56.05 163.789 57.5217 162.407 59.4569L165.518 61.6791C166.536 60.2543 167.768 59.23 169.224 58.561L167.628 55.087ZM164.997 58.9609L156.501 53.4889L154.431 56.7031L162.927 62.1751L164.997 58.9609ZM157.053 56.1624C158.813 53.5442 161.248 51.482 164.419 49.9846L162.786 46.5274C159.045 48.294 156.056 50.7918 153.88 54.0296L157.053 56.1624ZM164.438 49.9752C167.595 48.4408 171.261 47.6476 175.482 47.6476V43.8244C170.776 43.8244 166.522 44.7112 162.767 46.5368L164.438 49.9752ZM175.482 47.6476C179.017 47.6476 182.004 48.2367 184.492 49.3523L186.056 45.8636C182.977 44.4833 179.436 43.8244 175.482 43.8244V47.6476ZM184.529 49.3681C187.067 50.4436 188.942 51.9527 190.246 53.8678L193.407 51.7162C191.638 49.1193 189.146 47.1724 186.02 45.8479L184.529 49.3681ZM190.273 53.9063C191.598 55.7531 192.291 57.9686 192.291 60.64H196.114C196.114 57.2634 195.223 54.2469 193.38 51.6777L190.273 53.9063ZM192.291 60.64C192.291 63.0978 191.776 65.3822 190.751 67.5168L194.198 69.1712C195.477 66.5058 196.114 63.6542 196.114 60.64H192.291ZM190.751 67.5168C189.751 69.6006 187.72 72.144 184.478 75.1505L187.078 77.9535C190.461 74.816 192.894 71.8874 194.198 69.1712L190.751 67.5168ZM184.466 75.162L172.874 86.106L175.499 88.886L187.091 77.942L184.466 75.162ZM174.186 89.4076H195.858V85.5844H174.186V89.4076ZM216.871 46.6H218.783V44.6884H216.871V46.6ZM216.871 97V98.9116H218.783V97H216.871ZM205.207 97H203.296V98.9116H205.207V97ZM205.207 55.96H207.119V54.0484H205.207V55.96ZM195.127 55.96H193.216V57.8716H195.127V55.96ZM195.127 46.6V44.6884H193.216V46.6H195.127ZM214.96 46.6V97H218.783V46.6H214.96ZM216.871 95.0884H205.207V98.9116H216.871V95.0884ZM207.119 97V55.96H203.296V97H207.119ZM205.207 54.0484H195.127V57.8716H205.207V54.0484ZM197.039 55.96V46.6H193.216V55.96H197.039ZM195.127 48.5116H216.871V44.6884H195.127V48.5116Z" fill="url(#paint0_linear)"/>
</g>
<g filter="url(#filter1_d)">
<path d="M147.472 29.944L146.765 30.6511L146.772 30.6578L146.778 30.6643L147.472 29.944ZM149.056 37.792L148.086 37.5495L148.086 37.5495L149.056 37.792ZM147.544 42.112L148.472 42.4856L148.472 42.4834L147.544 42.112ZM143.368 52.48V53.48H144.043L144.296 52.8536L143.368 52.48ZM136.24 52.48L135.275 52.2174L134.931 53.48H136.24V52.48ZM139.336 41.104L140.301 41.3666L140.527 40.5356L139.739 40.1887L139.336 41.104ZM136.528 38.728L135.684 39.2649H135.684L136.528 38.728ZM137.464 29.944L138.158 30.6643L138.158 30.6638L137.464 29.944ZM142.504 29C144.284 29 145.676 29.5623 146.765 30.6511L148.179 29.2369C146.676 27.7337 144.756 27 142.504 27V29ZM146.778 30.6643C147.849 31.6955 148.416 33.0761 148.416 34.912H150.416C150.416 32.6199 149.687 30.6885 148.166 29.2237L146.778 30.6643ZM148.416 34.912C148.416 35.7878 148.307 36.6663 148.086 37.5495L150.026 38.0345C150.285 36.9977 150.416 35.9562 150.416 34.912H148.416ZM148.086 37.5495C147.863 38.4401 147.381 39.8276 146.616 41.7406L148.472 42.4834C149.243 40.5564 149.769 39.0639 150.026 38.0345L148.086 37.5495ZM146.616 41.7384L142.44 52.1064L144.296 52.8536L148.472 42.4856L146.616 41.7384ZM143.368 51.48H136.24V53.48H143.368V51.48ZM137.205 52.7426L140.301 41.3666L138.371 40.8414L135.275 52.2174L137.205 52.7426ZM139.739 40.1887C138.711 39.7364 137.932 39.0719 137.372 38.1911L135.684 39.2649C136.468 40.496 137.561 41.4156 138.933 42.0193L139.739 40.1887ZM137.372 38.1911C136.82 37.3237 136.52 36.2462 136.52 34.912H134.52C134.52 36.5538 134.892 38.0203 135.684 39.2649L137.372 38.1911ZM136.52 34.912C136.52 33.0761 137.087 31.6955 138.158 30.6643L136.77 29.2237C135.249 30.6885 134.52 32.6199 134.52 34.912H136.52ZM138.158 30.6638C139.3 29.5627 140.724 29 142.504 29V27C140.252 27 138.316 27.7333 136.77 29.2242L138.158 30.6638ZM196.858 72.496H197.858V71.496H196.858V72.496ZM196.858 82V83H197.858V82H196.858ZM158.77 82H157.77V83H158.77V82ZM158.77 74.44L158.084 73.713L157.77 74.009V74.44H158.77ZM178.21 56.08L178.897 56.807L178.9 56.8037L178.21 56.08ZM182.386 51.04L183.275 51.4995L183.281 51.4872L182.386 51.04ZM181.378 42.184L180.744 42.9567L180.759 42.969L180.774 42.9807L181.378 42.184ZM169.426 41.824L169.844 42.7327L169.854 42.7281L169.864 42.7232L169.426 41.824ZM164.962 45.568L164.421 46.4087L165.222 46.9248L165.776 46.1492L164.962 45.568ZM156.466 40.096L155.636 39.5382L155.068 40.3845L155.925 40.9367L156.466 40.096ZM164.602 33.256L165.029 34.1603L165.04 34.1554L164.602 33.256ZM186.274 32.608L185.865 33.5205L185.875 33.5247L185.884 33.5287L186.274 32.608ZM192.826 37.792L192 38.3548L192.007 38.3649L192.014 38.3749L192.826 37.792ZM193.474 53.344L194.376 53.7767L193.474 53.344ZM186.778 61.552L186.098 60.8188L186.092 60.8249L186.778 61.552ZM175.186 72.496L174.5 71.7689L172.67 73.496H175.186V72.496ZM195.858 72.496V82H197.858V72.496H195.858ZM196.858 81H158.77V83H196.858V81ZM159.77 82V74.44H157.77V82H159.77ZM159.457 75.167L178.897 56.807L177.524 55.353L158.084 73.713L159.457 75.167ZM178.9 56.8037C180.99 54.8112 182.478 53.0398 183.275 51.4994L181.498 50.5806C180.855 51.8242 179.559 53.4128 177.52 55.3563L178.9 56.8037ZM183.281 51.4872C184.059 49.9301 184.466 48.3619 184.466 46.792H182.466C182.466 48.0061 182.153 49.2699 181.492 50.5928L183.281 51.4872ZM184.466 46.792C184.466 44.5178 183.665 42.6631 181.983 41.3873L180.774 42.9807C181.876 43.8169 182.466 45.0342 182.466 46.792H184.466ZM182.013 41.4113C180.418 40.1011 178.159 39.528 175.402 39.528V41.528C177.926 41.528 179.651 42.0589 180.744 42.9567L182.013 41.4113ZM175.402 39.528C173.061 39.528 170.917 39.987 168.989 40.9248L169.864 42.7232C171.488 41.933 173.328 41.528 175.402 41.528V39.528ZM169.009 40.9153C167.066 41.8082 165.444 43.1732 164.149 44.9868L165.776 46.1492C166.881 44.6028 168.235 43.4718 169.844 42.7327L169.009 40.9153ZM165.504 44.7273L157.008 39.2553L155.925 40.9367L164.421 46.4087L165.504 44.7273ZM157.296 40.6538C159.155 37.8879 161.722 35.7219 165.029 34.1602L164.175 32.3517C160.57 34.0541 157.713 36.4481 155.636 39.5382L157.296 40.6538ZM165.04 34.1554C168.339 32.5515 172.145 31.736 176.482 31.736V29.736C171.891 29.736 167.778 30.6005 164.165 32.3566L165.04 34.1554ZM176.482 31.736C180.117 31.736 183.236 32.3417 185.865 33.5205L186.683 31.6955C183.745 30.3783 180.336 29.736 176.482 29.736V31.736ZM185.884 33.5287C188.563 34.6636 190.585 36.2771 192 38.3548L193.653 37.2292C191.996 34.7949 189.65 32.9524 186.665 31.6872L185.884 33.5287ZM192.014 38.3749C193.462 40.394 194.202 42.8004 194.202 45.64H196.202C196.202 42.4316 195.358 39.606 193.639 37.2091L192.014 38.3749ZM194.202 45.64C194.202 48.2305 193.658 50.6501 192.573 52.9113L194.376 53.7767C195.595 51.2379 196.202 48.5215 196.202 45.64H194.202ZM192.573 52.9113C191.5 55.1459 189.373 57.7811 186.098 60.8188L187.458 62.2852C190.807 59.1789 193.145 56.3421 194.376 53.7767L192.573 52.9113ZM186.092 60.8249L174.5 71.7689L175.873 73.2231L187.465 62.2791L186.092 60.8249ZM175.186 73.496H196.858V71.496H175.186V73.496ZM217.871 31.6H218.871V30.6H217.871V31.6ZM217.871 82V83H218.871V82H217.871ZM206.207 82H205.207V83H206.207V82ZM206.207 40.96H207.207V39.96H206.207V40.96ZM196.127 40.96H195.127V41.96H196.127V40.96ZM196.127 31.6V30.6H195.127V31.6H196.127ZM216.871 31.6V82H218.871V31.6H216.871ZM217.871 81H206.207V83H217.871V81ZM207.207 82V40.96H205.207V82H207.207ZM206.207 39.96H196.127V41.96H206.207V39.96ZM197.127 40.96V31.6H195.127V40.96H197.127ZM196.127 32.6H217.871V30.6H196.127V32.6Z" fill="url(#paint1_linear)"/>
</g>
<g opacity="0.7" filter="url(#filter2_f)">
<path d="M40.6069 40.7572L30.686 30.331L30.1583 30H74.9076L94.3799 48.7424L114.38 30H129.683L103.034 56.8103L130 83H113.852L94.6438 64.2162L74.6966 83H30L40.6069 72.3669H70.3694L85.7784 56.8103L69.314 40.7572H40.6069Z" fill="url(#paint2_linear)"/>
<path d="M41.2401 61.9407V50.9352H69.314L74.9076 56.8103L69.314 61.9407H41.2401Z" fill="url(#paint3_linear)"/>
</g>
<path d="M38.6069 40.7572L28.686 30.331L28.1583 30H72.9076L92.3799 48.7424L112.38 30H127.683L101.034 56.8103L128 83H111.852L92.6438 64.2162L72.6966 83H28L38.6069 72.3669H68.3694L83.7784 56.8103L67.314 40.7572H38.6069Z" fill="url(#paint4_linear)"/>
<path d="M39.2401 61.9407V50.9352H67.314L72.9076 56.8103L67.314 61.9407H39.2401Z" fill="url(#paint5_linear)"/>
<defs>
<filter id="filter0_f" x="102.608" y="11.0884" width="146.174" height="117.823" filterUnits="userSpaceOnUse" color-interpolation-filters="sRGB">
<feFlood flood-opacity="0" result="BackgroundImageFix"/>
<feBlend mode="normal" in="SourceGraphic" in2="BackgroundImageFix" result="shape"/>
<feGaussianBlur stdDeviation="15" result="effect1_foregroundBlur"/>
</filter>
<filter id="filter1_d" x="130.52" y="27" width="92.3511" height="64" filterUnits="userSpaceOnUse" color-interpolation-filters="sRGB">
<feFlood flood-opacity="0" result="BackgroundImageFix"/>
<feColorMatrix in="SourceAlpha" type="matrix" values="0 0 0 0 0 0 0 0 0 0 0 0 0 0 0 0 0 0 127 0"/>
<feOffset dy="4"/>
<feGaussianBlur stdDeviation="2"/>
<feColorMatrix type="matrix" values="0 0 0 0 0 0 0 0 0 0 0 0 0 0 0 0 0 0 0.25 0"/>
<feBlend mode="normal" in2="BackgroundImageFix" result="effect1_dropShadow"/>
<feBlend mode="normal" in="SourceGraphic" in2="effect1_dropShadow" result="shape"/>
</filter>
<filter id="filter2_f" x="0" y="0" width="160" height="113" filterUnits="userSpaceOnUse" color-interpolation-filters="sRGB">
<feFlood flood-opacity="0" result="BackgroundImageFix"/>
<feBlend mode="normal" in="SourceGraphic" in2="BackgroundImageFix" result="shape"/>
<feGaussianBlur stdDeviation="15" result="effect1_foregroundBlur"/>
</filter>
<linearGradient id="paint0_linear" x1="142.921" y1="34.0455" x2="187.242" y2="91.6197" gradientUnits="userSpaceOnUse">
<stop stop-color="#F62D2D"/>
<stop offset="0.534375" stop-color="#3F6DFF"/>
<stop offset="1" stop-color="#2EFEFF"/>
</linearGradient>
<linearGradient id="paint1_linear" x1="143.802" y1="20.9669" x2="202.15" y2="79.8725" gradientUnits="userSpaceOnUse">
<stop stop-color="#F62D2D"/>
<stop offset="0.534375" stop-color="#3F6DFF"/>
<stop offset="1" stop-color="#2EFEFF"/>
</linearGradient>
<linearGradient id="paint2_linear" x1="47.0993" y1="29.8769" x2="120.26" y2="83.3377" gradientUnits="userSpaceOnUse">
<stop stop-color="#F52C2C"/>
<stop offset="0.534375" stop-color="#3F69FF"/>
<stop offset="1" stop-color="#2EFFFF"/>
</linearGradient>
<linearGradient id="paint3_linear" x1="47.0993" y1="29.8769" x2="120.26" y2="83.3377" gradientUnits="userSpaceOnUse">
<stop stop-color="#F52C2C"/>
<stop offset="0.534375" stop-color="#3F69FF"/>
<stop offset="1" stop-color="#2EFFFF"/>
</linearGradient>
<linearGradient id="paint4_linear" x1="45.0993" y1="29.8769" x2="118.26" y2="83.3377" gradientUnits="userSpaceOnUse">
<stop stop-color="#F52C2C"/>
<stop offset="0.534375" stop-color="#3F69FF"/>
<stop offset="1" stop-color="#2EFFFF"/>
</linearGradient>
<linearGradient id="paint5_linear" x1="45.0993" y1="29.8769" x2="118.26" y2="83.3377" gradientUnits="userSpaceOnUse">
<stop stop-color="#F52C2C"/>
<stop offset="0.534375" stop-color="#3F69FF"/>
<stop offset="1" stop-color="#2EFFFF"/>
</linearGradient>
</defs>
</svg>
