<svg width="142" height="19" viewBox="0 0 142 19" fill="none" xmlns="http://www.w3.org/2000/svg">
<path d="M2.54565 6.63856L0.164644 4.08119L0.0379947 4H10.7778L15.4512 8.59719L20.2512 4H23.924L17.5282 10.5761L24 17H20.1245L15.5145 12.3927L10.7272 17H0L2.54565 14.3919H9.68865L13.3868 10.5761L9.43536 6.63856H2.54565Z" fill="white"/>
<path d="M2.69763 11.8345V9.13505H9.43536L10.7778 10.5761L9.43536 11.8345H2.69763Z" fill="white"/>
<path d="M31.542 17.252C30.222 17.252 29.034 16.976 27.978 16.424C26.934 15.86 26.112 15.08 25.512 14.084C24.912 13.088 24.612 11.96 24.612 10.7C24.612 9.44 24.912 8.312 25.512 7.316C26.112 6.32 26.934 5.546 27.978 4.994C29.034 4.43 30.222 4.148 31.542 4.148C32.694 4.148 33.732 4.352 34.656 4.76C35.58 5.168 36.348 5.756 36.96 6.524L34.692 8.576C33.876 7.592 32.886 7.1 31.722 7.1C31.038 7.1 30.426 7.25 29.886 7.55C29.358 7.85 28.944 8.276 28.644 8.828C28.356 9.368 28.212 9.992 28.212 10.7C28.212 11.408 28.356 12.038 28.644 12.59C28.944 13.13 29.358 13.55 29.886 13.85C30.426 14.15 31.038 14.3 31.722 14.3C32.886 14.3 33.876 13.808 34.692 12.824L36.96 14.876C36.348 15.644 35.58 16.232 34.656 16.64C33.732 17.048 32.694 17.252 31.542 17.252ZM48.6651 14.246V17H38.5491V4.4H48.4311V7.154H42.0771V9.278H47.6751V11.942H42.0771V14.246H48.6651ZM50.6428 4.4H54.2068V14.174H60.2188V17H50.6428V4.4ZM66.022 17.252C65.002 17.252 64.012 17.126 63.052 16.874C62.092 16.622 61.312 16.286 60.712 15.866L61.882 13.238C62.446 13.61 63.1 13.91 63.844 14.138C64.588 14.366 65.32 14.48 66.04 14.48C67.408 14.48 68.092 14.138 68.092 13.454C68.092 13.094 67.894 12.83 67.498 12.662C67.114 12.482 66.49 12.296 65.626 12.104C64.678 11.9 63.886 11.684 63.25 11.456C62.614 11.216 62.068 10.838 61.612 10.322C61.156 9.806 60.928 9.11 60.928 8.234C60.928 7.466 61.138 6.776 61.558 6.164C61.978 5.54 62.602 5.048 63.43 4.688C64.27 4.328 65.296 4.148 66.508 4.148C67.336 4.148 68.152 4.244 68.956 4.436C69.76 4.616 70.468 4.886 71.08 5.246L69.982 7.892C68.782 7.244 67.618 6.92 66.49 6.92C65.782 6.92 65.266 7.028 64.942 7.244C64.618 7.448 64.456 7.718 64.456 8.054C64.456 8.39 64.648 8.642 65.032 8.81C65.416 8.978 66.034 9.152 66.886 9.332C67.846 9.536 68.638 9.758 69.262 9.998C69.898 10.226 70.444 10.598 70.9 11.114C71.368 11.618 71.602 12.308 71.602 13.184C71.602 13.94 71.392 14.624 70.972 15.236C70.552 15.848 69.922 16.34 69.082 16.712C68.242 17.072 67.222 17.252 66.022 17.252ZM73.2483 4.4H76.8123V17H73.2483V4.4ZM85.7019 17.252C84.3699 17.252 83.1699 16.97 82.1019 16.406C81.0459 15.842 80.2119 15.062 79.5999 14.066C78.9999 13.07 78.6999 11.948 78.6999 10.7C78.6999 9.452 78.9999 8.33 79.5999 7.334C80.2119 6.338 81.0459 5.558 82.1019 4.994C83.1699 4.43 84.3699 4.148 85.7019 4.148C87.0339 4.148 88.2279 4.43 89.2839 4.994C90.3519 5.558 91.1859 6.338 91.7859 7.334C92.3979 8.33 92.7039 9.452 92.7039 10.7C92.7039 11.948 92.3979 13.07 91.7859 14.066C91.1859 15.062 90.3519 15.842 89.2839 16.406C88.2279 16.97 87.0339 17.252 85.7019 17.252ZM85.7019 14.3C86.3379 14.3 86.9139 14.15 87.4299 13.85C87.9459 13.55 88.3539 13.13 88.6539 12.59C88.9539 12.038 89.1039 11.408 89.1039 10.7C89.1039 9.992 88.9539 9.368 88.6539 8.828C88.3539 8.276 87.9459 7.85 87.4299 7.55C86.9139 7.25 86.3379 7.1 85.7019 7.1C85.0659 7.1 84.4899 7.25 83.9739 7.55C83.4579 7.85 83.0499 8.276 82.7499 8.828C82.4499 9.368 82.2999 9.992 82.2999 10.7C82.2999 11.408 82.4499 12.038 82.7499 12.59C83.0499 13.13 83.4579 13.55 83.9739 13.85C84.4899 14.15 85.0659 14.3 85.7019 14.3ZM100.079 13.652H98.1345V17H94.5705V4.4H100.331C101.471 4.4 102.461 4.592 103.301 4.976C104.141 5.348 104.789 5.888 105.245 6.596C105.701 7.292 105.929 8.114 105.929 9.062C105.929 9.974 105.713 10.772 105.281 11.456C104.861 12.128 104.255 12.656 103.463 13.04L106.181 17H102.365L100.079 13.652ZM102.329 9.062C102.329 8.474 102.143 8.018 101.771 7.694C101.399 7.37 100.847 7.208 100.115 7.208H98.1345V10.898H100.115C100.847 10.898 101.399 10.742 101.771 10.43C102.143 10.106 102.329 9.65 102.329 9.062Z" fill="white"/>
<path d="M115.014 4.04L114.164 4.91704H114.164L115.014 4.04ZM115.482 6.326L114.3 6.01777L114.3 6.01777L115.482 6.326ZM115.014 7.568L116.132 8.05824L116.134 8.05488L115.014 7.568ZM113.862 10.196V11.4171H114.66L114.98 10.6862L113.862 10.196ZM111.72 10.196L110.547 9.85769L110.097 11.4171H111.72V10.196ZM112.566 7.262L113.739 7.60031L114.029 6.59503L113.08 6.15445L112.566 7.262ZM111.774 6.578L110.716 7.18821L110.73 7.21256L110.746 7.23624L111.774 6.578ZM112.08 4.04L111.23 3.16296H111.23L112.08 4.04ZM113.556 4.7031C113.861 4.7031 114.032 4.78867 114.164 4.91704L115.864 3.16296C115.228 2.54733 114.427 2.2609 113.556 2.2609V4.7031ZM114.164 4.91704C114.281 5.02989 114.369 5.18421 114.369 5.498H116.811C116.811 4.61179 116.515 3.79411 115.864 3.16296L114.164 4.91704ZM114.369 5.498C114.369 5.66655 114.347 5.83903 114.3 6.01777L116.664 6.63423C116.761 6.26097 116.811 5.88145 116.811 5.498H114.369ZM114.3 6.01777C114.254 6.19675 114.13 6.5381 113.894 7.08111L116.134 8.05488C116.378 7.4939 116.566 7.00725 116.664 6.63423L114.3 6.01777ZM113.896 7.07776L112.744 9.70576L114.98 10.6862L116.132 8.05824L113.896 7.07776ZM113.862 8.9749H111.72V11.4171H113.862V8.9749ZM112.893 10.5343L113.739 7.60031L111.393 6.92369L110.547 9.85769L112.893 10.5343ZM113.08 6.15445C112.946 6.09214 112.864 6.01604 112.802 5.91976L110.746 7.23624C111.068 7.73996 111.514 8.11986 112.052 8.36955L113.08 6.15445ZM112.832 5.96779C112.772 5.8649 112.725 5.72074 112.725 5.498H110.283C110.283 6.09126 110.416 6.66709 110.716 7.18821L112.832 5.96779ZM112.725 5.498C112.725 5.18421 112.813 5.02989 112.93 4.91704L111.23 3.16296C110.579 3.79411 110.283 4.61179 110.283 5.498H112.725ZM112.93 4.91704C113.057 4.79339 113.231 4.7031 113.556 4.7031V2.2609C112.681 2.2609 111.871 2.54261 111.23 3.16296L112.93 4.91704ZM131.686 14.174H132.907V12.9529H131.686V14.174ZM131.686 17V18.2211H132.907V17H131.686ZM121.876 17H120.655V18.2211H121.876V17ZM121.876 14.768L121.042 13.8761L120.655 14.2381V14.768H121.876ZM126.592 10.358L127.426 11.2499L127.432 11.2445L126.592 10.358ZM127.51 9.26L128.593 9.82336L128.598 9.81476L128.602 9.80609L127.51 9.26ZM124.828 7.352L125.401 8.43044L125.413 8.424L124.828 7.352ZM123.874 8.252L123.279 9.3184L124.285 9.87979L124.904 8.90758L123.874 8.252ZM121.228 6.776L120.182 6.14549L119.53 7.22712L120.633 7.8424L121.228 6.776ZM123.298 4.85L123.867 5.93026L123.867 5.93026L123.298 4.85ZM128.986 4.616L128.507 5.73934L128.514 5.74209L128.986 4.616ZM130.714 5.966L129.711 6.66213L129.719 6.67388L129.727 6.68544L130.714 5.966ZM130.894 9.926L129.797 9.38851L129.793 9.39759L130.894 9.926ZM129.202 11.978L128.378 11.0768L128.373 11.0813L129.202 11.978ZM126.826 14.174L125.997 13.2773L123.706 15.3951H126.826V14.174ZM130.465 14.174V17H132.907V14.174H130.465ZM131.686 15.7789H121.876V18.2211H131.686V15.7789ZM123.097 17V14.768H120.655V17H123.097ZM122.71 15.6599L127.426 11.2499L125.758 9.4661L121.042 13.8761L122.71 15.6599ZM127.432 11.2445C127.917 10.7848 128.342 10.3066 128.593 9.82336L126.427 8.69664C126.366 8.81344 126.179 9.06719 125.752 9.47154L127.432 11.2445ZM128.602 9.80609C128.833 9.34477 128.965 8.84696 128.965 8.324H126.523C126.523 8.42504 126.499 8.55123 126.418 8.71391L128.602 9.80609ZM128.965 8.324C128.965 7.60888 128.706 6.92263 128.108 6.42858L126.552 8.31142C126.552 8.31143 126.552 8.31109 126.551 8.31037C126.55 8.30966 126.549 8.30862 126.548 8.30723C126.545 8.30439 126.542 8.30052 126.538 8.29566C126.53 8.28527 126.524 8.27451 126.52 8.26561C126.517 8.25704 126.517 8.25505 126.518 8.2629C126.52 8.27118 126.523 8.2907 126.523 8.324H128.965ZM128.108 6.42858C127.53 5.9512 126.805 5.8069 126.124 5.8069V8.2491C126.499 8.2491 126.578 8.3328 126.552 8.31142L128.108 6.42858ZM126.124 5.8069C125.46 5.8069 124.825 5.96242 124.243 6.28L125.413 8.424C125.622 8.30958 125.852 8.2491 126.124 8.2491V5.8069ZM124.255 6.27363C123.67 6.58447 123.2 7.03692 122.844 7.59642L124.904 8.90758C125.052 8.67507 125.218 8.52753 125.401 8.43037L124.255 6.27363ZM124.469 7.1856L121.823 5.7096L120.633 7.8424L123.279 9.3184L124.469 7.1856ZM122.274 7.40651C122.645 6.79138 123.165 6.30032 123.867 5.93026L122.729 3.76974C121.655 4.33568 120.795 5.12862 120.182 6.14549L122.274 7.40651ZM123.867 5.93026C124.547 5.57208 125.394 5.3691 126.448 5.3691V2.9269C125.078 2.9269 123.825 3.19192 122.729 3.76974L123.867 5.93026ZM126.448 5.3691C127.277 5.3691 127.954 5.50371 128.507 5.73932L129.465 3.49268C128.554 3.10429 127.539 2.9269 126.448 2.9269V5.3691ZM128.514 5.74209C129.071 5.97599 129.452 6.28862 129.711 6.66213L131.717 5.26987C131.16 4.46738 130.388 3.88001 129.458 3.48991L128.514 5.74209ZM129.727 6.68544C129.983 7.03602 130.123 7.45143 130.123 7.982H132.565C132.565 6.97657 132.285 6.04798 131.701 5.24656L129.727 6.68544ZM130.123 7.982C130.123 8.48037 130.015 8.94444 129.797 9.38852L131.99 10.4635C132.373 9.68356 132.565 8.85163 132.565 7.982H130.123ZM129.793 9.39759C129.604 9.7909 129.173 10.3501 128.378 11.0768L130.026 12.8792C130.911 12.0699 131.608 11.2611 131.995 10.4544L129.793 9.39759ZM128.373 11.0813L125.997 13.2773L127.655 15.0707L130.031 12.8747L128.373 11.0813ZM126.826 15.3951H131.686V12.9529H126.826V15.3951ZM138.123 4.4H139.344V3.1789H138.123V4.4ZM138.123 17V18.2211H139.344V17H138.123ZM134.559 17H133.338V18.2211H134.559V17ZM134.559 7.154H135.78V5.9329H134.559V7.154ZM132.219 7.154H130.998V8.3751H132.219V7.154ZM132.219 4.4V3.1789H130.998V4.4H132.219ZM136.902 4.4V17H139.344V4.4H136.902ZM138.123 15.7789H134.559V18.2211H138.123V15.7789ZM135.78 17V7.154H133.338V17H135.78ZM134.559 5.9329H132.219V8.3751H134.559V5.9329ZM133.44 7.154V4.4H130.998V7.154H133.44ZM132.219 5.6211H138.123V3.1789H132.219V5.6211Z" fill="white"/>
</svg>
