<svg width="15" height="15" viewBox="0 0 15 15" fill="none" xmlns="http://www.w3.org/2000/svg">
<g opacity="0.5">
<path d="M14.375 8.11203H0.625C0.279999 8.11203 0 7.83203 0 7.48703C0 7.14203 0.279999 6.86203 0.625 6.86203H14.375C14.72 6.86203 15 7.14203 15 7.48703C15 7.83203 14.72 8.11203 14.375 8.11203Z" fill="white"/>
<path d="M14.375 3.32031H0.625C0.279999 3.32031 0 3.04031 0 2.69531C0 2.35031 0.279999 2.07031 0.625 2.07031H14.375C14.72 2.07031 15 2.35031 15 2.69531C15 3.04031 14.72 3.32031 14.375 3.32031Z" fill="white"/>
<path d="M14.375 12.9036H0.625C0.279999 12.9036 0 12.6236 0 12.2786C0 11.9336 0.279999 11.6536 0.625 11.6536H14.375C14.72 11.6536 15 11.9336 15 12.2786C15 12.6236 14.72 12.9036 14.375 12.9036Z" fill="white"/>
</g>
</svg>
