<svg width="58" height="9" viewBox="0 0 58 9" fill="none" xmlns="http://www.w3.org/2000/svg">
<path d="M6.19 6.91V8H0.94V1H6.05V2.09H2.24V3.91H5.62V4.98H2.24V6.91H6.19ZM10.8216 8L9.45156 6.15L8.07156 8H6.69156L8.77156 5.29L6.78156 2.66H8.17156L9.48156 4.41L10.7916 2.66H12.1416L10.1416 5.27L12.2316 8H10.8216ZM15.4282 8.07C14.8749 8.07 14.3782 7.95333 13.9382 7.72C13.4982 7.48667 13.1549 7.16333 12.9082 6.75C12.6615 6.33 12.5382 5.85667 12.5382 5.33C12.5382 4.80333 12.6615 4.33333 12.9082 3.92C13.1549 3.50667 13.4949 3.18333 13.9282 2.95C14.3682 2.71667 14.8682 2.6 15.4282 2.6C15.9549 2.6 16.4149 2.70667 16.8082 2.92C17.2082 3.13333 17.5082 3.44 17.7082 3.84L16.7482 4.4C16.5949 4.15333 16.4015 3.97 16.1682 3.85C15.9415 3.72333 15.6915 3.66 15.4182 3.66C14.9515 3.66 14.5649 3.81333 14.2582 4.12C13.9515 4.42 13.7982 4.82333 13.7982 5.33C13.7982 5.83667 13.9482 6.24333 14.2482 6.55C14.5549 6.85 14.9449 7 15.4182 7C15.6915 7 15.9415 6.94 16.1682 6.82C16.4015 6.69333 16.5949 6.50667 16.7482 6.26L17.7082 6.82C17.5015 7.22 17.1982 7.53 16.7982 7.75C16.4049 7.96333 15.9482 8.07 15.4282 8.07ZM23.7306 5.36C23.7306 5.44667 23.724 5.57 23.7106 5.73H19.5206C19.594 6.12333 19.784 6.43667 20.0906 6.67C20.404 6.89667 20.7906 7.01 21.2506 7.01C21.8373 7.01 22.3206 6.81667 22.7006 6.43L23.3706 7.2C23.1306 7.48667 22.8273 7.70333 22.4606 7.85C22.094 7.99667 21.6806 8.07 21.2206 8.07C20.634 8.07 20.1173 7.95333 19.6706 7.72C19.224 7.48667 18.8773 7.16333 18.6306 6.75C18.3906 6.33 18.2706 5.85667 18.2706 5.33C18.2706 4.81 18.3873 4.34333 18.6206 3.93C18.8606 3.51 19.1906 3.18333 19.6106 2.95C20.0306 2.71667 20.504 2.6 21.0306 2.6C21.5506 2.6 22.014 2.71667 22.4206 2.95C22.834 3.17667 23.154 3.5 23.3806 3.92C23.614 4.33333 23.7306 4.81333 23.7306 5.36ZM21.0306 3.6C20.6306 3.6 20.2906 3.72 20.0106 3.96C19.7373 4.19333 19.5706 4.50667 19.5106 4.9H22.5406C22.4873 4.51333 22.324 4.2 22.0506 3.96C21.7773 3.72 21.4373 3.6 21.0306 3.6ZM24.9313 0.58H26.1813V8H24.9313V0.58ZM29.472 8.07C29.0386 8.07 28.6153 8.01333 28.202 7.9C27.7886 7.78667 27.4586 7.64333 27.212 7.47L27.692 6.52C27.932 6.68 28.2186 6.81 28.552 6.91C28.892 7.00333 29.2253 7.05 29.552 7.05C30.2986 7.05 30.672 6.85333 30.672 6.46C30.672 6.27333 30.5753 6.14333 30.382 6.07C30.1953 5.99667 29.892 5.92667 29.472 5.86C29.032 5.79333 28.672 5.71667 28.392 5.63C28.1186 5.54333 27.8786 5.39333 27.672 5.18C27.472 4.96 27.372 4.65667 27.372 4.27C27.372 3.76333 27.582 3.36 28.002 3.06C28.4286 2.75333 29.002 2.6 29.722 2.6C30.0886 2.6 30.4553 2.64333 30.822 2.73C31.1886 2.81 31.4886 2.92 31.722 3.06L31.242 4.01C30.7886 3.74333 30.2786 3.61 29.712 3.61C29.3453 3.61 29.0653 3.66667 28.872 3.78C28.6853 3.88667 28.592 4.03 28.592 4.21C28.592 4.41 28.692 4.55333 28.892 4.64C29.0986 4.72 29.4153 4.79667 29.842 4.87C30.2686 4.93667 30.6186 5.01333 30.892 5.1C31.1653 5.18667 31.3986 5.33333 31.592 5.54C31.792 5.74667 31.892 6.04 31.892 6.42C31.892 6.92 31.6753 7.32 31.242 7.62C30.8086 7.92 30.2186 8.07 29.472 8.07ZM32.9684 2.66H34.2184V8H32.9684V2.66ZM33.5984 1.78C33.3718 1.78 33.1818 1.71 33.0284 1.57C32.8751 1.42333 32.7984 1.24333 32.7984 1.03C32.7984 0.816666 32.8751 0.64 33.0284 0.499999C33.1818 0.353333 33.3718 0.28 33.5984 0.28C33.8251 0.28 34.0151 0.35 34.1684 0.49C34.3218 0.623333 34.3984 0.793333 34.3984 1C34.3984 1.22 34.3218 1.40667 34.1684 1.56C34.0218 1.70667 33.8318 1.78 33.5984 1.78ZM38.2591 8.07C37.7191 8.07 37.2324 7.95333 36.7991 7.72C36.3657 7.48667 36.0257 7.16333 35.7791 6.75C35.5391 6.33 35.4191 5.85667 35.4191 5.33C35.4191 4.80333 35.5391 4.33333 35.7791 3.92C36.0257 3.50667 36.3657 3.18333 36.7991 2.95C37.2324 2.71667 37.7191 2.6 38.2591 2.6C38.8057 2.6 39.2957 2.71667 39.7291 2.95C40.1624 3.18333 40.4991 3.50667 40.7391 3.92C40.9857 4.33333 41.1091 4.80333 41.1091 5.33C41.1091 5.85667 40.9857 6.33 40.7391 6.75C40.4991 7.16333 40.1624 7.48667 39.7291 7.72C39.2957 7.95333 38.8057 8.07 38.2591 8.07ZM38.2591 7C38.7191 7 39.0991 6.84667 39.3991 6.54C39.6991 6.23333 39.8491 5.83 39.8491 5.33C39.8491 4.83 39.6991 4.42667 39.3991 4.12C39.0991 3.81333 38.7191 3.66 38.2591 3.66C37.7991 3.66 37.4191 3.81333 37.1191 4.12C36.8257 4.42667 36.6791 4.83 36.6791 5.33C36.6791 5.83 36.8257 6.23333 37.1191 6.54C37.4191 6.84667 37.7991 7 38.2591 7ZM43.4944 3.44C43.8544 2.88 44.4877 2.6 45.3944 2.6V3.79C45.2877 3.77 45.191 3.76 45.1044 3.76C44.6177 3.76 44.2377 3.90333 43.9644 4.19C43.691 4.47 43.5544 4.87667 43.5544 5.41V8H42.3044V2.66H43.4944V3.44ZM47.2652 0.51C47.4985 0.51 47.6918 0.586667 47.8452 0.74C47.9985 0.893333 48.0752 1.09 48.0752 1.33C48.0752 1.45 48.0585 1.56667 48.0252 1.68C47.9985 1.79333 47.9418 1.96333 47.8552 2.19L47.3352 3.61H46.5252L46.9252 2.07C46.7785 2.01667 46.6618 1.92667 46.5752 1.8C46.4952 1.66667 46.4552 1.51 46.4552 1.33C46.4552 1.09 46.5318 0.893333 46.6852 0.74C46.8385 0.586667 47.0318 0.51 47.2652 0.51ZM54.1819 6.9V8H49.0219V7.13L51.8019 4.49C52.1152 4.19 52.3252 3.93 52.4319 3.71C52.5452 3.48333 52.6019 3.26 52.6019 3.04C52.6019 2.71333 52.4919 2.46333 52.2719 2.29C52.0519 2.11667 51.7285 2.03 51.3019 2.03C50.5885 2.03 50.0419 2.27333 49.6619 2.76L48.7519 2.06C49.0252 1.69333 49.3919 1.41 49.8519 1.21C50.3185 1.00333 50.8385 0.9 51.4119 0.9C52.1719 0.9 52.7785 1.08 53.2319 1.44C53.6852 1.8 53.9119 2.29 53.9119 2.91C53.9119 3.29 53.8319 3.64667 53.6719 3.98C53.5119 4.31333 53.2052 4.69333 52.7519 5.12L50.8819 6.9H54.1819ZM57.3522 1V8H56.0522V2.09H54.5722V1H57.3522Z" fill="white"/>
</svg>
